<mxfile host="Electron" modified="2025-05-20T21:00:05.409Z" agent="Mozilla/5.0 (Windows NT 10.0; Win64; x64) AppleWebKit/537.36 (KHTML, like Gecko) draw.io/24.1.0 Chrome/120.0.6099.109 Electron/28.1.0 Safari/537.36" etag="fEatfgigDELfhO204XAw" version="24.1.0" type="device">
  <diagram name="PÃ¡gina-1" id="leCqtOfOdwgIMC7q104f">
    <mxGraphModel dx="1687" dy="984" grid="0" gridSize="10" guides="1" tooltips="1" connect="1" arrows="1" fold="1" page="0" pageScale="1" pageWidth="827" pageHeight="1169" math="0" shadow="0">
      <root>
        <mxCell id="0" />
        <mxCell id="1" parent="0" />
        <mxCell id="n6qV_Xt3kzfEs7hYFHmW-1" value="" style="html=1;jettySize=18;whiteSpace=wrap;fontSize=13;strokeColor=#333333;strokeOpacity=100;strokeWidth=0.8;rounded=1;arcSize=16;edgeStyle=orthogonalEdgeStyle;jumpStyle=arc;startArrow=ERone;startSize=16;endArrow=ERone;endSize=16;exitX=0.5;exitY=-0.003;exitPerimeter=0;entryX=0.5;entryY=1.002;entryPerimeter=0;lucidId=cM~DS3CCzZBN;" parent="1" source="n6qV_Xt3kzfEs7hYFHmW-11" target="n6qV_Xt3kzfEs7hYFHmW-2" edge="1">
          <mxGeometry width="100" height="100" relative="1" as="geometry">
            <Array as="points" />
          </mxGeometry>
        </mxCell>
        <mxCell id="n6qV_Xt3kzfEs7hYFHmW-2" value="personal" style="html=1;overflow=block;blockSpacing=1;swimlane;childLayout=stackLayout;horizontal=1;horizontalStack=0;resizeParent=1;resizeParentMax=0;resizeLast=0;collapsible=0;fontStyle=0;marginBottom=0;swimlaneFillColor=#ffdda6;startSize=30;whiteSpace=wrap;fontSize=13.3;align=left;spacingLeft=8.4;spacingRight=8.4;spacingTop=2.4;spacing=3.6;strokeColor=#333333;strokeOpacity=100;fillOpacity=100;rounded=1;absoluteArcSize=1;arcSize=7.5;strokeWidth=0.8;fillColor=#d9bc8d;" parent="1" vertex="1">
          <mxGeometry x="612" y="467" width="169" height="217.5" as="geometry" />
        </mxCell>
        <mxCell id="n6qV_Xt3kzfEs7hYFHmW-3" value="Id" style="part=1;resizeHeight=0;strokeColor=none;align=left;verticalAlign=top;overflow=hidden;rotatable=0;points=[[0,0.5],[1,0.5]];portConstraint=eastwest;html=1;whiteSpace=wrap;#ffdda6whiteSpace=wrap;fontSize=13.3;fontColor=default;spacingLeft=8.4;spacingRight=8.4;spacingTop=2.4;fillColor=none;strokeOpacity=100;fillOpacity=100;" parent="n6qV_Xt3kzfEs7hYFHmW-2" vertex="1">
          <mxGeometry y="30" width="169" height="26.25" as="geometry" />
        </mxCell>
        <mxCell id="n6qV_Xt3kzfEs7hYFHmW-4" value="name" style="part=1;resizeHeight=0;strokeColor=none;align=left;verticalAlign=top;overflow=hidden;rotatable=0;points=[[0,0.5],[1,0.5]];portConstraint=eastwest;html=1;whiteSpace=wrap;#ffdda6whiteSpace=wrap;fontSize=13.3;spacingLeft=8.4;spacingRight=8.4;spacingTop=2.4;fillColor=#000000;opacity=5;" parent="n6qV_Xt3kzfEs7hYFHmW-2" vertex="1">
          <mxGeometry y="56.25" width="169" height="26.25" as="geometry" />
        </mxCell>
        <mxCell id="n6qV_Xt3kzfEs7hYFHmW-5" value="last_name" style="part=1;resizeHeight=0;strokeColor=none;align=left;verticalAlign=top;overflow=hidden;rotatable=0;points=[[0,0.5],[1,0.5]];portConstraint=eastwest;html=1;whiteSpace=wrap;#ffdda6whiteSpace=wrap;fontSize=13.3;spacingLeft=8.4;spacingRight=8.4;spacingTop=2.4;fillColor=none;strokeOpacity=100;fillOpacity=100;" parent="n6qV_Xt3kzfEs7hYFHmW-2" vertex="1">
          <mxGeometry y="82.5" width="169" height="26.25" as="geometry" />
        </mxCell>
        <mxCell id="n6qV_Xt3kzfEs7hYFHmW-6" value="dni" style="part=1;resizeHeight=0;strokeColor=none;align=left;verticalAlign=top;overflow=hidden;rotatable=0;points=[[0,0.5],[1,0.5]];portConstraint=eastwest;html=1;whiteSpace=wrap;#ffdda6whiteSpace=wrap;fontSize=13.3;spacingLeft=8.4;spacingRight=8.4;spacingTop=2.4;fillColor=#000000;opacity=5;" parent="n6qV_Xt3kzfEs7hYFHmW-2" vertex="1">
          <mxGeometry y="108.75" width="169" height="26.25" as="geometry" />
        </mxCell>
        <mxCell id="n6qV_Xt3kzfEs7hYFHmW-7" value="immigration_card" style="part=1;resizeHeight=0;strokeColor=none;align=left;verticalAlign=top;overflow=hidden;rotatable=0;points=[[0,0.5],[1,0.5]];portConstraint=eastwest;html=1;whiteSpace=wrap;#ffdda6whiteSpace=wrap;fontSize=13.3;spacingLeft=8.4;spacingRight=8.4;spacingTop=2.4;fillColor=none;strokeOpacity=100;fillOpacity=100;" parent="n6qV_Xt3kzfEs7hYFHmW-2" vertex="1">
          <mxGeometry y="135" width="169" height="26.25" as="geometry" />
        </mxCell>
        <mxCell id="n6qV_Xt3kzfEs7hYFHmW-8" value="passport" style="part=1;resizeHeight=0;strokeColor=none;align=left;verticalAlign=top;overflow=hidden;rotatable=0;points=[[0,0.5],[1,0.5]];portConstraint=eastwest;html=1;whiteSpace=wrap;#ffdda6whiteSpace=wrap;fontSize=13.3;spacingLeft=8.4;spacingRight=8.4;spacingTop=2.4;fillColor=#000000;opacity=5;" parent="n6qV_Xt3kzfEs7hYFHmW-2" vertex="1">
          <mxGeometry y="161.25" width="169" height="26.25" as="geometry" />
        </mxCell>
        <mxCell id="n6qV_Xt3kzfEs7hYFHmW-9" value="img_url" style="part=1;resizeHeight=0;strokeColor=none;align=left;verticalAlign=top;overflow=hidden;rotatable=0;points=[[0,0.5],[1,0.5]];portConstraint=eastwest;html=1;whiteSpace=wrap;#ffdda6whiteSpace=wrap;fontSize=13.3;spacingLeft=8.4;spacingRight=8.4;spacingTop=2.4;fillColor=none;strokeOpacity=100;fillOpacity=100;" parent="n6qV_Xt3kzfEs7hYFHmW-2" vertex="1">
          <mxGeometry y="187.5" width="169" height="15" as="geometry" />
        </mxCell>
        <mxCell id="n6qV_Xt3kzfEs7hYFHmW-10" value="id_user" style="part=1;resizeHeight=0;strokeColor=none;align=left;verticalAlign=top;overflow=hidden;rotatable=0;points=[[0,0.5],[1,0.5]];portConstraint=eastwest;html=1;whiteSpace=wrap;#ffdda6whiteSpace=wrap;fontSize=13.3;spacingLeft=8.4;spacingRight=8.4;spacingTop=2.4;fillColor=#000000;opacity=5;" parent="n6qV_Xt3kzfEs7hYFHmW-2" vertex="1">
          <mxGeometry y="202.5" width="169" height="15" as="geometry" />
        </mxCell>
        <mxCell id="n6qV_Xt3kzfEs7hYFHmW-11" value="Users" style="html=1;overflow=block;blockSpacing=1;swimlane;childLayout=stackLayout;horizontal=1;horizontalStack=0;resizeParent=1;resizeParentMax=0;resizeLast=0;collapsible=0;fontStyle=0;marginBottom=0;swimlaneFillColor=#ffdda6;startSize=30;whiteSpace=wrap;fontSize=13.3;align=left;spacingLeft=8.4;spacingRight=8.4;spacingTop=2.4;spacing=3.6;strokeColor=#333333;strokeOpacity=100;fillOpacity=100;rounded=1;absoluteArcSize=1;arcSize=7.5;strokeWidth=0.8;fillColor=#d9bc8d;" parent="1" vertex="1">
          <mxGeometry x="612" y="824" width="169" height="135" as="geometry" />
        </mxCell>
        <mxCell id="n6qV_Xt3kzfEs7hYFHmW-12" value="Id" style="part=1;resizeHeight=0;strokeColor=none;align=left;verticalAlign=top;overflow=hidden;rotatable=0;points=[[0,0.5],[1,0.5]];portConstraint=eastwest;html=1;whiteSpace=wrap;#ffdda6whiteSpace=wrap;fontSize=13.3;fontColor=default;spacingLeft=8.4;spacingRight=8.4;spacingTop=2.4;fillColor=none;strokeOpacity=100;fillOpacity=100;" parent="n6qV_Xt3kzfEs7hYFHmW-11" vertex="1">
          <mxGeometry y="30" width="169" height="26.25" as="geometry" />
        </mxCell>
        <mxCell id="n6qV_Xt3kzfEs7hYFHmW-13" value="email" style="part=1;resizeHeight=0;strokeColor=none;align=left;verticalAlign=top;overflow=hidden;rotatable=0;points=[[0,0.5],[1,0.5]];portConstraint=eastwest;html=1;whiteSpace=wrap;#ffdda6whiteSpace=wrap;fontSize=13.3;spacingLeft=8.4;spacingRight=8.4;spacingTop=2.4;fillColor=#000000;opacity=5;" parent="n6qV_Xt3kzfEs7hYFHmW-11" vertex="1">
          <mxGeometry y="56.25" width="169" height="26.25" as="geometry" />
        </mxCell>
        <mxCell id="n6qV_Xt3kzfEs7hYFHmW-14" value="password" style="part=1;resizeHeight=0;strokeColor=none;align=left;verticalAlign=top;overflow=hidden;rotatable=0;points=[[0,0.5],[1,0.5]];portConstraint=eastwest;html=1;whiteSpace=wrap;#ffdda6whiteSpace=wrap;fontSize=13.3;spacingLeft=8.4;spacingRight=8.4;spacingTop=2.4;fillColor=none;strokeOpacity=100;fillOpacity=100;" parent="n6qV_Xt3kzfEs7hYFHmW-11" vertex="1">
          <mxGeometry y="82.5" width="169" height="26.25" as="geometry" />
        </mxCell>
        <mxCell id="n6qV_Xt3kzfEs7hYFHmW-15" value="remember_token" style="part=1;resizeHeight=0;strokeColor=none;align=left;verticalAlign=top;overflow=hidden;rotatable=0;points=[[0,0.5],[1,0.5]];portConstraint=eastwest;html=1;whiteSpace=wrap;#ffdda6whiteSpace=wrap;fontSize=13.3;spacingLeft=8.4;spacingRight=8.4;spacingTop=2.4;fillColor=#000000;opacity=5;" parent="n6qV_Xt3kzfEs7hYFHmW-11" vertex="1">
          <mxGeometry y="108.75" width="169" height="26.25" as="geometry" />
        </mxCell>
        <mxCell id="n6qV_Xt3kzfEs7hYFHmW-16" value="customers" style="html=1;overflow=block;blockSpacing=1;swimlane;childLayout=stackLayout;horizontal=1;horizontalStack=0;resizeParent=1;resizeParentMax=0;resizeLast=0;collapsible=0;fontStyle=0;marginBottom=0;swimlaneFillColor=#ffdda6;startSize=30;whiteSpace=wrap;fontSize=13.3;align=left;spacingLeft=8.4;spacingRight=8.4;spacingTop=2.4;spacing=3.6;strokeColor=#333333;strokeOpacity=100;fillOpacity=100;rounded=1;absoluteArcSize=1;arcSize=7.5;strokeWidth=0.8;fillColor=#d9bc8d;" parent="1" vertex="1">
          <mxGeometry x="334" y="81" width="169" height="241" as="geometry" />
        </mxCell>
        <mxCell id="n6qV_Xt3kzfEs7hYFHmW-17" value="id" style="part=1;resizeHeight=0;strokeColor=none;align=left;verticalAlign=top;overflow=hidden;rotatable=0;points=[[0,0.5],[1,0.5]];portConstraint=eastwest;html=1;whiteSpace=wrap;#ffdda6whiteSpace=wrap;fontSize=13.3;spacingLeft=8.4;spacingRight=8.4;spacingTop=2.4;fillColor=none;strokeOpacity=100;fillOpacity=100;" parent="n6qV_Xt3kzfEs7hYFHmW-16" vertex="1">
          <mxGeometry y="30" width="169" height="26.25" as="geometry" />
        </mxCell>
        <mxCell id="n6qV_Xt3kzfEs7hYFHmW-18" value="ruc" style="part=1;resizeHeight=0;strokeColor=none;align=left;verticalAlign=top;overflow=hidden;rotatable=0;points=[[0,0.5],[1,0.5]];portConstraint=eastwest;html=1;whiteSpace=wrap;#ffdda6whiteSpace=wrap;fontSize=13.3;spacingLeft=8.4;spacingRight=8.4;spacingTop=2.4;fillColor=#000000;opacity=5;" parent="n6qV_Xt3kzfEs7hYFHmW-16" vertex="1">
          <mxGeometry y="56.25" width="169" height="26.25" as="geometry" />
        </mxCell>
        <mxCell id="n6qV_Xt3kzfEs7hYFHmW-19" value="name_businessname" style="part=1;resizeHeight=0;strokeColor=none;align=left;verticalAlign=top;overflow=hidden;rotatable=0;points=[[0,0.5],[1,0.5]];portConstraint=eastwest;html=1;whiteSpace=wrap;#ffdda6whiteSpace=wrap;fontSize=13.3;spacingLeft=8.4;spacingRight=8.4;spacingTop=2.4;fillColor=none;strokeOpacity=100;fillOpacity=100;" parent="n6qV_Xt3kzfEs7hYFHmW-16" vertex="1">
          <mxGeometry y="82.5" width="169" height="34.5" as="geometry" />
        </mxCell>
        <mxCell id="n6qV_Xt3kzfEs7hYFHmW-20" value="contact_name" style="part=1;resizeHeight=0;strokeColor=none;align=left;verticalAlign=top;overflow=hidden;rotatable=0;points=[[0,0.5],[1,0.5]];portConstraint=eastwest;html=1;whiteSpace=wrap;#ffdda6whiteSpace=wrap;fontSize=13.3;spacingLeft=8.4;spacingRight=8.4;spacingTop=2.4;fillColor=#000000;opacity=5;" parent="n6qV_Xt3kzfEs7hYFHmW-16" vertex="1">
          <mxGeometry y="117" width="169" height="31.25" as="geometry" />
        </mxCell>
        <mxCell id="n6qV_Xt3kzfEs7hYFHmW-21" value="contact_number" style="part=1;resizeHeight=0;strokeColor=none;align=left;verticalAlign=top;overflow=hidden;rotatable=0;points=[[0,0.5],[1,0.5]];portConstraint=eastwest;html=1;whiteSpace=wrap;#ffdda6whiteSpace=wrap;fontSize=13.3;spacingLeft=8.4;spacingRight=8.4;spacingTop=2.4;fillColor=none;strokeOpacity=100;fillOpacity=100;" parent="n6qV_Xt3kzfEs7hYFHmW-16" vertex="1">
          <mxGeometry y="148.25" width="169" height="29.25" as="geometry" />
        </mxCell>
        <mxCell id="n6qV_Xt3kzfEs7hYFHmW-22" value="contact_email" style="part=1;resizeHeight=0;strokeColor=none;align=left;verticalAlign=top;overflow=hidden;rotatable=0;points=[[0,0.5],[1,0.5]];portConstraint=eastwest;html=1;whiteSpace=wrap;#ffdda6whiteSpace=wrap;fontSize=13.3;spacingLeft=8.4;spacingRight=8.4;spacingTop=2.4;fillColor=#000000;opacity=5;" parent="n6qV_Xt3kzfEs7hYFHmW-16" vertex="1">
          <mxGeometry y="177.5" width="169" height="31.25" as="geometry" />
        </mxCell>
        <mxCell id="n6qV_Xt3kzfEs7hYFHmW-23" value="id_personal" style="part=1;resizeHeight=0;strokeColor=none;align=left;verticalAlign=top;overflow=hidden;rotatable=0;points=[[0,0.5],[1,0.5]];portConstraint=eastwest;html=1;whiteSpace=wrap;#ffdda6whiteSpace=wrap;fontSize=13.3;spacingLeft=8.4;spacingRight=8.4;spacingTop=2.4;fillColor=none;strokeOpacity=100;fillOpacity=100;" parent="n6qV_Xt3kzfEs7hYFHmW-16" vertex="1">
          <mxGeometry y="208.75" width="169" height="32.25" as="geometry" />
        </mxCell>
        <mxCell id="n6qV_Xt3kzfEs7hYFHmW-24" value="rol_users" style="html=1;overflow=block;blockSpacing=1;swimlane;childLayout=stackLayout;horizontal=1;horizontalStack=0;resizeParent=1;resizeParentMax=0;resizeLast=0;collapsible=0;fontStyle=0;marginBottom=0;swimlaneFillColor=#ffdda6;startSize=30;whiteSpace=wrap;fontSize=13.3;align=left;spacingLeft=8.4;spacingRight=8.4;spacingTop=2.4;spacing=3.6;strokeColor=#333333;strokeOpacity=100;fillOpacity=100;rounded=1;absoluteArcSize=1;arcSize=7.5;strokeWidth=0.8;fillColor=#d9bc8d;" parent="1" vertex="1">
          <mxGeometry x="638" y="1144" width="169" height="108.75" as="geometry" />
        </mxCell>
        <mxCell id="n6qV_Xt3kzfEs7hYFHmW-25" value="Id" style="part=1;resizeHeight=0;strokeColor=none;verticalAlign=top;overflow=hidden;rotatable=0;points=[[0,0.5],[1,0.5]];portConstraint=eastwest;html=1;whiteSpace=wrap;#ffdda6whiteSpace=wrap;fontSize=13.3;fontColor=default;align=left;spacingLeft=8.4;spacingRight=8.4;spacingTop=2.4;fillColor=none;strokeOpacity=100;fillOpacity=100;" parent="n6qV_Xt3kzfEs7hYFHmW-24" vertex="1">
          <mxGeometry y="30" width="169" height="26.25" as="geometry" />
        </mxCell>
        <mxCell id="n6qV_Xt3kzfEs7hYFHmW-26" value="id_usuario" style="part=1;resizeHeight=0;strokeColor=none;verticalAlign=top;overflow=hidden;rotatable=0;points=[[0,0.5],[1,0.5]];portConstraint=eastwest;html=1;whiteSpace=wrap;#ffdda6whiteSpace=wrap;fontSize=13.3;align=left;spacingLeft=8.4;spacingRight=8.4;spacingTop=2.4;fillColor=#000000;opacity=5;" parent="n6qV_Xt3kzfEs7hYFHmW-24" vertex="1">
          <mxGeometry y="56.25" width="169" height="26.25" as="geometry" />
        </mxCell>
        <mxCell id="n6qV_Xt3kzfEs7hYFHmW-27" value="id_roles" style="part=1;resizeHeight=0;strokeColor=none;verticalAlign=top;overflow=hidden;rotatable=0;points=[[0,0.5],[1,0.5]];portConstraint=eastwest;html=1;whiteSpace=wrap;#ffdda6whiteSpace=wrap;fontSize=13.3;align=left;spacingLeft=8.4;spacingRight=8.4;spacingTop=2.4;fillColor=none;strokeOpacity=100;fillOpacity=100;" parent="n6qV_Xt3kzfEs7hYFHmW-24" vertex="1">
          <mxGeometry y="82.5" width="169" height="26.25" as="geometry" />
        </mxCell>
        <mxCell id="n6qV_Xt3kzfEs7hYFHmW-28" value="customs" style="html=1;overflow=block;blockSpacing=1;swimlane;childLayout=stackLayout;horizontal=1;horizontalStack=0;resizeParent=1;resizeParentMax=0;resizeLast=0;collapsible=0;fontStyle=0;marginBottom=0;swimlaneFillColor=#c3f7c8;startSize=30;whiteSpace=wrap;fontSize=13.3;align=left;spacingLeft=8.4;spacingRight=8.4;spacingTop=2.4;spacing=3.6;strokeColor=#333333;strokeOpacity=100;fillOpacity=100;rounded=1;absoluteArcSize=1;arcSize=7.5;strokeWidth=0.8;fillColor=#a6d2aa;" parent="1" vertex="1">
          <mxGeometry x="944" y="1246" width="169" height="375" as="geometry" />
        </mxCell>
        <mxCell id="n6qV_Xt3kzfEs7hYFHmW-29" value="Id" style="part=1;resizeHeight=0;strokeColor=none;verticalAlign=top;overflow=hidden;rotatable=0;points=[[0,0.5],[1,0.5]];portConstraint=eastwest;html=1;whiteSpace=wrap;#c3f7c8whiteSpace=wrap;fontSize=13.3;fontColor=default;align=left;spacingLeft=8.4;spacingRight=8.4;spacingTop=2.4;fillColor=none;strokeOpacity=100;fillOpacity=100;" parent="n6qV_Xt3kzfEs7hYFHmW-28" vertex="1">
          <mxGeometry y="30" width="169" height="26.25" as="geometry" />
        </mxCell>
        <mxCell id="n6qV_Xt3kzfEs7hYFHmW-30" value="nro_orde" style="part=1;resizeHeight=0;strokeColor=none;verticalAlign=top;overflow=hidden;rotatable=0;points=[[0,0.5],[1,0.5]];portConstraint=eastwest;html=1;whiteSpace=wrap;#c3f7c8whiteSpace=wrap;fontSize=13.3;align=left;spacingLeft=8.4;spacingRight=8.4;spacingTop=2.4;fillColor=#000000;opacity=5;" parent="n6qV_Xt3kzfEs7hYFHmW-28" vertex="1">
          <mxGeometry y="56.25" width="169" height="26.25" as="geometry" />
        </mxCell>
        <mxCell id="n6qV_Xt3kzfEs7hYFHmW-31" value="nro_dam" style="part=1;resizeHeight=0;strokeColor=none;verticalAlign=top;overflow=hidden;rotatable=0;points=[[0,0.5],[1,0.5]];portConstraint=eastwest;html=1;whiteSpace=wrap;#c3f7c8whiteSpace=wrap;fontSize=13.3;align=left;spacingLeft=8.4;spacingRight=8.4;spacingTop=2.4;fillColor=none;strokeOpacity=100;fillOpacity=100;" parent="n6qV_Xt3kzfEs7hYFHmW-28" vertex="1">
          <mxGeometry y="82.5" width="169" height="26.25" as="geometry" />
        </mxCell>
        <mxCell id="n6qV_Xt3kzfEs7hYFHmW-32" value="date_register" style="part=1;resizeHeight=0;strokeColor=none;verticalAlign=top;overflow=hidden;rotatable=0;points=[[0,0.5],[1,0.5]];portConstraint=eastwest;html=1;whiteSpace=wrap;#c3f7c8whiteSpace=wrap;fontSize=13.3;align=left;spacingLeft=8.4;spacingRight=8.4;spacingTop=2.4;fillColor=#000000;opacity=5;" parent="n6qV_Xt3kzfEs7hYFHmW-28" vertex="1">
          <mxGeometry y="108.75" width="169" height="26.25" as="geometry" />
        </mxCell>
        <mxCell id="n6qV_Xt3kzfEs7hYFHmW-33" value="cif_value" style="part=1;resizeHeight=0;strokeColor=none;verticalAlign=top;overflow=hidden;rotatable=0;points=[[0,0.5],[1,0.5]];portConstraint=eastwest;html=1;whiteSpace=wrap;#c3f7c8whiteSpace=wrap;fontSize=13.3;align=left;spacingLeft=8.4;spacingRight=8.4;spacingTop=2.4;fillColor=none;strokeOpacity=100;fillOpacity=100;" parent="n6qV_Xt3kzfEs7hYFHmW-28" vertex="1">
          <mxGeometry y="135" width="169" height="26.25" as="geometry" />
        </mxCell>
        <mxCell id="n6qV_Xt3kzfEs7hYFHmW-34" value="channel" style="part=1;resizeHeight=0;strokeColor=none;verticalAlign=top;overflow=hidden;rotatable=0;points=[[0,0.5],[1,0.5]];portConstraint=eastwest;html=1;whiteSpace=wrap;#c3f7c8whiteSpace=wrap;fontSize=13.3;align=left;spacingLeft=8.4;spacingRight=8.4;spacingTop=2.4;fillColor=#000000;opacity=5;" parent="n6qV_Xt3kzfEs7hYFHmW-28" vertex="1">
          <mxGeometry y="161.25" width="169" height="26.25" as="geometry" />
        </mxCell>
        <mxCell id="n6qV_Xt3kzfEs7hYFHmW-35" value="nro_bl" style="part=1;resizeHeight=0;strokeColor=none;verticalAlign=top;overflow=hidden;rotatable=0;points=[[0,0.5],[1,0.5]];portConstraint=eastwest;html=1;whiteSpace=wrap;#c3f7c8whiteSpace=wrap;fontSize=13.3;align=left;spacingLeft=8.4;spacingRight=8.4;spacingTop=2.4;fillColor=none;strokeOpacity=100;fillOpacity=100;" parent="n6qV_Xt3kzfEs7hYFHmW-28" vertex="1">
          <mxGeometry y="187.5" width="169" height="26.25" as="geometry" />
        </mxCell>
        <mxCell id="n6qV_Xt3kzfEs7hYFHmW-36" value="regularization_date" style="part=1;resizeHeight=0;strokeColor=none;verticalAlign=top;overflow=hidden;rotatable=0;points=[[0,0.5],[1,0.5]];portConstraint=eastwest;html=1;whiteSpace=wrap;#c3f7c8whiteSpace=wrap;fontSize=13.3;align=left;spacingLeft=8.4;spacingRight=8.4;spacingTop=2.4;fillColor=#000000;opacity=5;" parent="n6qV_Xt3kzfEs7hYFHmW-28" vertex="1">
          <mxGeometry y="213.75" width="169" height="26.25" as="geometry" />
        </mxCell>
        <mxCell id="n6qV_Xt3kzfEs7hYFHmW-37" value="state" style="part=1;resizeHeight=0;strokeColor=none;verticalAlign=top;overflow=hidden;rotatable=0;points=[[0,0.5],[1,0.5]];portConstraint=eastwest;html=1;whiteSpace=wrap;#c3f7c8whiteSpace=wrap;fontSize=13.3;align=left;spacingLeft=8.4;spacingRight=8.4;spacingTop=2.4;fillColor=none;strokeOpacity=100;fillOpacity=100;" parent="n6qV_Xt3kzfEs7hYFHmW-28" vertex="1">
          <mxGeometry y="240" width="169" height="26.25" as="geometry" />
        </mxCell>
        <mxCell id="n6qV_Xt3kzfEs7hYFHmW-38" value="id_modality" style="part=1;resizeHeight=0;strokeColor=none;verticalAlign=top;overflow=hidden;rotatable=0;points=[[0,0.5],[1,0.5]];portConstraint=eastwest;html=1;whiteSpace=wrap;#c3f7c8whiteSpace=wrap;fontSize=13.3;align=left;spacingLeft=8.4;spacingRight=8.4;spacingTop=2.4;fillColor=#000000;opacity=5;" parent="n6qV_Xt3kzfEs7hYFHmW-28" vertex="1">
          <mxGeometry y="266.25" width="169" height="36.25" as="geometry" />
        </mxCell>
        <mxCell id="X1TgRnpZAQ3NQ5CsBxn8-3" value="nro_operation" style="part=1;resizeHeight=0;strokeColor=none;verticalAlign=top;overflow=hidden;rotatable=0;points=[[0,0.5],[1,0.5]];portConstraint=eastwest;html=1;whiteSpace=wrap;#c3f7c8whiteSpace=wrap;fontSize=13.3;align=left;spacingLeft=8.4;spacingRight=8.4;spacingTop=2.4;fillColor=#000000;opacity=5;" parent="n6qV_Xt3kzfEs7hYFHmW-28" vertex="1">
          <mxGeometry y="302.5" width="169" height="36.25" as="geometry" />
        </mxCell>
        <mxCell id="MXTqZxVAq7oDFnsf_esE-2" value="id_cargo_insurance" style="part=1;resizeHeight=0;strokeColor=none;verticalAlign=top;overflow=hidden;rotatable=0;points=[[0,0.5],[1,0.5]];portConstraint=eastwest;html=1;whiteSpace=wrap;#c3f7c8whiteSpace=wrap;fontSize=13.3;align=left;spacingLeft=8.4;spacingRight=8.4;spacingTop=2.4;fillColor=#000000;opacity=5;" parent="n6qV_Xt3kzfEs7hYFHmW-28" vertex="1">
          <mxGeometry y="338.75" width="169" height="36.25" as="geometry" />
        </mxCell>
        <mxCell id="n6qV_Xt3kzfEs7hYFHmW-39" value="Permission" style="html=1;overflow=block;blockSpacing=1;swimlane;childLayout=stackLayout;horizontal=1;horizontalStack=0;resizeParent=1;resizeParentMax=0;resizeLast=0;collapsible=0;fontStyle=0;marginBottom=0;swimlaneFillColor=#ffdda6;startSize=30;whiteSpace=wrap;fontSize=13.3;align=left;spacingLeft=8.4;spacingRight=8.4;spacingTop=2.4;spacing=3.6;strokeColor=#333333;strokeOpacity=100;fillOpacity=100;rounded=1;absoluteArcSize=1;arcSize=7.5;strokeWidth=0.8;fillColor=#d9bc8d;" parent="1" vertex="1">
          <mxGeometry x="184" y="1111" width="169" height="82.5" as="geometry" />
        </mxCell>
        <mxCell id="n6qV_Xt3kzfEs7hYFHmW-40" value="Id" style="part=1;resizeHeight=0;strokeColor=none;verticalAlign=top;overflow=hidden;rotatable=0;points=[[0,0.5],[1,0.5]];portConstraint=eastwest;html=1;whiteSpace=wrap;#ffdda6whiteSpace=wrap;fontSize=13.3;fontColor=default;align=left;spacingLeft=8.4;spacingRight=8.4;spacingTop=2.4;fillColor=none;strokeOpacity=100;fillOpacity=100;" parent="n6qV_Xt3kzfEs7hYFHmW-39" vertex="1">
          <mxGeometry y="30" width="169" height="26.25" as="geometry" />
        </mxCell>
        <mxCell id="n6qV_Xt3kzfEs7hYFHmW-41" value="name" style="part=1;resizeHeight=0;strokeColor=none;verticalAlign=top;overflow=hidden;rotatable=0;points=[[0,0.5],[1,0.5]];portConstraint=eastwest;html=1;whiteSpace=wrap;#ffdda6whiteSpace=wrap;fontSize=13.3;align=left;spacingLeft=8.4;spacingRight=8.4;spacingTop=2.4;fillColor=#000000;opacity=5;" parent="n6qV_Xt3kzfEs7hYFHmW-39" vertex="1">
          <mxGeometry y="56.25" width="169" height="26.25" as="geometry" />
        </mxCell>
        <mxCell id="n6qV_Xt3kzfEs7hYFHmW-42" value="Role" style="html=1;overflow=block;blockSpacing=1;swimlane;childLayout=stackLayout;horizontal=1;horizontalStack=0;resizeParent=1;resizeParentMax=0;resizeLast=0;collapsible=0;fontStyle=0;marginBottom=0;swimlaneFillColor=#ffdda6;startSize=30;whiteSpace=wrap;fontSize=13.3;align=left;spacingLeft=8.4;spacingRight=8.4;spacingTop=2.4;spacing=3.6;strokeColor=#333333;strokeOpacity=100;fillOpacity=100;rounded=1;absoluteArcSize=1;arcSize=7.5;strokeWidth=0.8;fillColor=#d9bc8d;" parent="1" vertex="1">
          <mxGeometry x="343" y="964" width="169" height="82.5" as="geometry" />
        </mxCell>
        <mxCell id="n6qV_Xt3kzfEs7hYFHmW-43" value="Id" style="part=1;resizeHeight=0;strokeColor=none;verticalAlign=top;overflow=hidden;rotatable=0;points=[[0,0.5],[1,0.5]];portConstraint=eastwest;html=1;whiteSpace=wrap;#ffdda6whiteSpace=wrap;fontSize=13.3;fontColor=default;align=left;spacingLeft=8.4;spacingRight=8.4;spacingTop=2.4;fillColor=none;strokeOpacity=100;fillOpacity=100;" parent="n6qV_Xt3kzfEs7hYFHmW-42" vertex="1">
          <mxGeometry y="30" width="169" height="26.25" as="geometry" />
        </mxCell>
        <mxCell id="n6qV_Xt3kzfEs7hYFHmW-44" value="name" style="part=1;resizeHeight=0;strokeColor=none;verticalAlign=top;overflow=hidden;rotatable=0;points=[[0,0.5],[1,0.5]];portConstraint=eastwest;html=1;whiteSpace=wrap;#ffdda6whiteSpace=wrap;fontSize=13.3;align=left;spacingLeft=8.4;spacingRight=8.4;spacingTop=2.4;fillColor=#000000;opacity=5;" parent="n6qV_Xt3kzfEs7hYFHmW-42" vertex="1">
          <mxGeometry y="56.25" width="169" height="26.25" as="geometry" />
        </mxCell>
        <mxCell id="n6qV_Xt3kzfEs7hYFHmW-45" value="role_permission" style="html=1;overflow=block;blockSpacing=1;swimlane;childLayout=stackLayout;horizontal=1;horizontalStack=0;resizeParent=1;resizeParentMax=0;resizeLast=0;collapsible=0;fontStyle=0;marginBottom=0;swimlaneFillColor=#ffdda6;startSize=30;whiteSpace=wrap;fontSize=13.3;align=left;spacingLeft=8.4;spacingRight=8.4;spacingTop=2.4;spacing=3.6;strokeColor=#333333;strokeOpacity=100;fillOpacity=100;rounded=1;absoluteArcSize=1;arcSize=7.5;strokeWidth=0.8;fillColor=#d9bc8d;" parent="1" vertex="1">
          <mxGeometry x="343" y="1295" width="169" height="108.75" as="geometry" />
        </mxCell>
        <mxCell id="n6qV_Xt3kzfEs7hYFHmW-46" value="Id" style="part=1;resizeHeight=0;strokeColor=none;verticalAlign=top;overflow=hidden;rotatable=0;points=[[0,0.5],[1,0.5]];portConstraint=eastwest;html=1;whiteSpace=wrap;#ffdda6whiteSpace=wrap;fontSize=13.3;fontColor=default;align=left;spacingLeft=8.4;spacingRight=8.4;spacingTop=2.4;fillColor=none;strokeOpacity=100;fillOpacity=100;" parent="n6qV_Xt3kzfEs7hYFHmW-45" vertex="1">
          <mxGeometry y="30" width="169" height="26.25" as="geometry" />
        </mxCell>
        <mxCell id="n6qV_Xt3kzfEs7hYFHmW-47" value="id_role" style="part=1;resizeHeight=0;strokeColor=none;verticalAlign=top;overflow=hidden;rotatable=0;points=[[0,0.5],[1,0.5]];portConstraint=eastwest;html=1;whiteSpace=wrap;#ffdda6whiteSpace=wrap;fontSize=13.3;align=left;spacingLeft=8.4;spacingRight=8.4;spacingTop=2.4;fillColor=#000000;opacity=5;" parent="n6qV_Xt3kzfEs7hYFHmW-45" vertex="1">
          <mxGeometry y="56.25" width="169" height="26.25" as="geometry" />
        </mxCell>
        <mxCell id="n6qV_Xt3kzfEs7hYFHmW-48" value="id_permission" style="part=1;resizeHeight=0;strokeColor=none;verticalAlign=top;overflow=hidden;rotatable=0;points=[[0,0.5],[1,0.5]];portConstraint=eastwest;html=1;whiteSpace=wrap;#ffdda6whiteSpace=wrap;fontSize=13.3;align=left;spacingLeft=8.4;spacingRight=8.4;spacingTop=2.4;fillColor=none;strokeOpacity=100;fillOpacity=100;" parent="n6qV_Xt3kzfEs7hYFHmW-45" vertex="1">
          <mxGeometry y="82.5" width="169" height="26.25" as="geometry" />
        </mxCell>
        <mxCell id="n6qV_Xt3kzfEs7hYFHmW-49" value="" style="html=1;jettySize=18;whiteSpace=wrap;fontSize=13;strokeColor=#333333;strokeOpacity=100;strokeWidth=0.8;rounded=1;arcSize=24;edgeStyle=orthogonalEdgeStyle;startArrow=ERone;startSize=16;endArrow=ERmany;endSize=10;exitX=1.002;exitY=0.96;exitPerimeter=0;entryX=0.5;entryY=-0.003;entryPerimeter=0;lucidId=iCAa0rSAuvY8;" parent="1" source="n6qV_Xt3kzfEs7hYFHmW-11" target="n6qV_Xt3kzfEs7hYFHmW-24" edge="1">
          <mxGeometry width="100" height="100" relative="1" as="geometry">
            <Array as="points" />
          </mxGeometry>
        </mxCell>
        <mxCell id="n6qV_Xt3kzfEs7hYFHmW-50" value="" style="html=1;jettySize=18;whiteSpace=wrap;fontSize=13;strokeColor=#333333;strokeOpacity=100;strokeWidth=0.8;rounded=1;arcSize=24;edgeStyle=orthogonalEdgeStyle;startArrow=ERone;startSize=16;endArrow=ERmany;endSize=10;exitX=0.5;exitY=1.005;exitPerimeter=0;entryX=0.5;entryY=-0.003;entryPerimeter=0;lucidId=fFAaN4ZKWh4v;" parent="1" source="n6qV_Xt3kzfEs7hYFHmW-42" target="n6qV_Xt3kzfEs7hYFHmW-45" edge="1">
          <mxGeometry width="100" height="100" relative="1" as="geometry">
            <Array as="points" />
          </mxGeometry>
        </mxCell>
        <mxCell id="n6qV_Xt3kzfEs7hYFHmW-51" value="" style="html=1;jettySize=18;whiteSpace=wrap;fontSize=13;strokeColor=#333333;strokeOpacity=100;strokeWidth=0.8;rounded=1;arcSize=24;edgeStyle=orthogonalEdgeStyle;startArrow=ERone;startSize=16;endArrow=ERmany;endSize=10;exitX=0.5;exitY=1.005;exitPerimeter=0;entryX=-0.002;entryY=0.517;entryPerimeter=0;lucidId=mFAaPKILsBFm;" parent="1" source="n6qV_Xt3kzfEs7hYFHmW-39" target="n6qV_Xt3kzfEs7hYFHmW-45" edge="1">
          <mxGeometry width="100" height="100" relative="1" as="geometry">
            <Array as="points" />
          </mxGeometry>
        </mxCell>
        <mxCell id="n6qV_Xt3kzfEs7hYFHmW-52" value="type_shipment" style="html=1;overflow=block;blockSpacing=1;swimlane;childLayout=stackLayout;horizontal=1;horizontalStack=0;resizeParent=1;resizeParentMax=0;resizeLast=0;collapsible=0;fontStyle=0;marginBottom=0;swimlaneFillColor=#ffdda6;startSize=30;whiteSpace=wrap;fontSize=13.3;align=left;spacingLeft=8.4;spacingRight=8.4;spacingTop=2.4;spacing=3.6;strokeColor=#333333;strokeOpacity=100;fillOpacity=100;rounded=1;absoluteArcSize=1;arcSize=7.5;strokeWidth=0.8;fillColor=#d9bc8d;" parent="1" vertex="1">
          <mxGeometry x="1523" y="575.75" width="169" height="108.75" as="geometry" />
        </mxCell>
        <mxCell id="n6qV_Xt3kzfEs7hYFHmW-53" value="id" style="part=1;resizeHeight=0;strokeColor=none;align=left;verticalAlign=top;overflow=hidden;rotatable=0;points=[[0,0.5],[1,0.5]];portConstraint=eastwest;html=1;whiteSpace=wrap;#ffdda6whiteSpace=wrap;fontSize=13.3;spacingLeft=8.4;spacingRight=8.4;spacingTop=2.4;fillColor=none;strokeOpacity=100;fillOpacity=100;" parent="n6qV_Xt3kzfEs7hYFHmW-52" vertex="1">
          <mxGeometry y="30" width="169" height="26.25" as="geometry" />
        </mxCell>
        <mxCell id="n6qV_Xt3kzfEs7hYFHmW-54" value="code" style="part=1;resizeHeight=0;strokeColor=none;align=left;verticalAlign=top;overflow=hidden;rotatable=0;points=[[0,0.5],[1,0.5]];portConstraint=eastwest;html=1;whiteSpace=wrap;#ffdda6whiteSpace=wrap;fontSize=13.3;spacingLeft=8.4;spacingRight=8.4;spacingTop=2.4;fillColor=#000000;opacity=5;" parent="n6qV_Xt3kzfEs7hYFHmW-52" vertex="1">
          <mxGeometry y="56.25" width="169" height="26.25" as="geometry" />
        </mxCell>
        <mxCell id="n6qV_Xt3kzfEs7hYFHmW-55" value="description" style="part=1;resizeHeight=0;strokeColor=none;align=left;verticalAlign=top;overflow=hidden;rotatable=0;points=[[0,0.5],[1,0.5]];portConstraint=eastwest;html=1;whiteSpace=wrap;#ffdda6whiteSpace=wrap;fontSize=13.3;spacingLeft=8.4;spacingRight=8.4;spacingTop=2.4;fillColor=none;strokeOpacity=100;fillOpacity=100;" parent="n6qV_Xt3kzfEs7hYFHmW-52" vertex="1">
          <mxGeometry y="82.5" width="169" height="26.25" as="geometry" />
        </mxCell>
        <mxCell id="n6qV_Xt3kzfEs7hYFHmW-56" value="Modality" style="html=1;overflow=block;blockSpacing=1;swimlane;childLayout=stackLayout;horizontal=1;horizontalStack=0;resizeParent=1;resizeParentMax=0;resizeLast=0;collapsible=0;fontStyle=0;marginBottom=0;swimlaneFillColor=#ffdda6;startSize=30;whiteSpace=wrap;fontSize=13.3;align=left;spacingLeft=8.4;spacingRight=8.4;spacingTop=2.4;spacing=3.6;strokeColor=#333333;strokeOpacity=100;fillOpacity=100;rounded=1;absoluteArcSize=1;arcSize=7.5;strokeWidth=0.8;fillColor=#d9bc8d;" parent="1" vertex="1">
          <mxGeometry x="644" y="1579" width="169" height="108.75" as="geometry" />
        </mxCell>
        <mxCell id="n6qV_Xt3kzfEs7hYFHmW-57" value="Id" style="part=1;resizeHeight=0;strokeColor=none;verticalAlign=top;overflow=hidden;rotatable=0;points=[[0,0.5],[1,0.5]];portConstraint=eastwest;html=1;whiteSpace=wrap;#ffdda6whiteSpace=wrap;fontSize=13.3;align=left;spacingLeft=8.4;spacingRight=8.4;spacingTop=2.4;fillColor=none;strokeOpacity=100;fillOpacity=100;" parent="n6qV_Xt3kzfEs7hYFHmW-56" vertex="1">
          <mxGeometry y="30" width="169" height="26.25" as="geometry" />
        </mxCell>
        <mxCell id="n6qV_Xt3kzfEs7hYFHmW-58" value="name" style="part=1;resizeHeight=0;strokeColor=none;verticalAlign=top;overflow=hidden;rotatable=0;points=[[0,0.5],[1,0.5]];portConstraint=eastwest;html=1;whiteSpace=wrap;#ffdda6whiteSpace=wrap;fontSize=13.3;align=left;spacingLeft=8.4;spacingRight=8.4;spacingTop=2.4;fillColor=#000000;opacity=5;" parent="n6qV_Xt3kzfEs7hYFHmW-56" vertex="1">
          <mxGeometry y="56.25" width="169" height="26.25" as="geometry" />
        </mxCell>
        <mxCell id="n6qV_Xt3kzfEs7hYFHmW-59" value="description" style="part=1;resizeHeight=0;strokeColor=none;verticalAlign=top;overflow=hidden;rotatable=0;points=[[0,0.5],[1,0.5]];portConstraint=eastwest;html=1;whiteSpace=wrap;#ffdda6whiteSpace=wrap;fontSize=13.3;align=left;spacingLeft=8.4;spacingRight=8.4;spacingTop=2.4;fillColor=none;strokeOpacity=100;fillOpacity=100;" parent="n6qV_Xt3kzfEs7hYFHmW-56" vertex="1">
          <mxGeometry y="82.5" width="169" height="26.25" as="geometry" />
        </mxCell>
        <mxCell id="n6qV_Xt3kzfEs7hYFHmW-79" value="suppliers" style="html=1;overflow=block;blockSpacing=1;swimlane;childLayout=stackLayout;horizontal=1;horizontalStack=0;resizeParent=1;resizeParentMax=0;resizeLast=0;collapsible=0;fontStyle=0;marginBottom=0;swimlaneFillColor=#ffdda6;startSize=30;whiteSpace=wrap;fontSize=13.3;align=left;spacingLeft=8.4;spacingRight=8.4;spacingTop=2.4;spacing=3.6;strokeColor=#333333;strokeOpacity=100;fillOpacity=100;rounded=1;absoluteArcSize=1;arcSize=7.5;strokeWidth=0.8;fillColor=#d9bc8d;" parent="1" vertex="1">
          <mxGeometry x="2480" y="1227" width="169" height="279" as="geometry" />
        </mxCell>
        <mxCell id="n6qV_Xt3kzfEs7hYFHmW-80" value="id" style="part=1;resizeHeight=0;strokeColor=none;verticalAlign=top;overflow=hidden;rotatable=0;points=[[0,0.5],[1,0.5]];portConstraint=eastwest;html=1;whiteSpace=wrap;#ffdda6whiteSpace=wrap;fontSize=13.3;align=left;spacingLeft=8.4;spacingRight=8.4;spacingTop=2.4;fillColor=none;strokeOpacity=100;fillOpacity=100;" parent="n6qV_Xt3kzfEs7hYFHmW-79" vertex="1">
          <mxGeometry y="30" width="169" height="26.25" as="geometry" />
        </mxCell>
        <mxCell id="n6qV_Xt3kzfEs7hYFHmW-81" value="type_id" style="part=1;resizeHeight=0;strokeColor=none;verticalAlign=top;overflow=hidden;rotatable=0;points=[[0,0.5],[1,0.5]];portConstraint=eastwest;html=1;whiteSpace=wrap;#ffdda6whiteSpace=wrap;fontSize=13.3;align=left;spacingLeft=8.4;spacingRight=8.4;spacingTop=2.4;fillColor=#000000;opacity=5;" parent="n6qV_Xt3kzfEs7hYFHmW-79" vertex="1">
          <mxGeometry y="56.25" width="169" height="26.25" as="geometry" />
        </mxCell>
        <mxCell id="n6qV_Xt3kzfEs7hYFHmW-82" value="number_id" style="part=1;resizeHeight=0;strokeColor=none;verticalAlign=top;overflow=hidden;rotatable=0;points=[[0,0.5],[1,0.5]];portConstraint=eastwest;html=1;whiteSpace=wrap;#ffdda6whiteSpace=wrap;fontSize=13.3;align=left;spacingLeft=8.4;spacingRight=8.4;spacingTop=2.4;fillColor=none;strokeOpacity=100;fillOpacity=100;" parent="n6qV_Xt3kzfEs7hYFHmW-79" vertex="1">
          <mxGeometry y="82.5" width="169" height="26.25" as="geometry" />
        </mxCell>
        <mxCell id="n6qV_Xt3kzfEs7hYFHmW-83" value="name_businessname" style="part=1;resizeHeight=0;strokeColor=none;verticalAlign=top;overflow=hidden;rotatable=0;points=[[0,0.5],[1,0.5]];portConstraint=eastwest;html=1;whiteSpace=wrap;#ffdda6whiteSpace=wrap;fontSize=13.3;align=left;spacingLeft=8.4;spacingRight=8.4;spacingTop=2.4;fillColor=#000000;opacity=5;" parent="n6qV_Xt3kzfEs7hYFHmW-79" vertex="1">
          <mxGeometry y="108.75" width="169" height="26.25" as="geometry" />
        </mxCell>
        <mxCell id="n6qV_Xt3kzfEs7hYFHmW-84" value="addres" style="part=1;resizeHeight=0;strokeColor=none;verticalAlign=top;overflow=hidden;rotatable=0;points=[[0,0.5],[1,0.5]];portConstraint=eastwest;html=1;whiteSpace=wrap;#ffdda6whiteSpace=wrap;fontSize=13.3;align=left;spacingLeft=8.4;spacingRight=8.4;spacingTop=2.4;fillColor=none;strokeOpacity=100;fillOpacity=100;" parent="n6qV_Xt3kzfEs7hYFHmW-79" vertex="1">
          <mxGeometry y="135" width="169" height="26" as="geometry" />
        </mxCell>
        <mxCell id="n6qV_Xt3kzfEs7hYFHmW-85" value="contact_name" style="part=1;resizeHeight=0;strokeColor=none;verticalAlign=top;overflow=hidden;rotatable=0;points=[[0,0.5],[1,0.5]];portConstraint=eastwest;html=1;whiteSpace=wrap;#ffdda6whiteSpace=wrap;fontSize=13.3;align=left;spacingLeft=8.4;spacingRight=8.4;spacingTop=2.4;fillColor=#000000;opacity=5;" parent="n6qV_Xt3kzfEs7hYFHmW-79" vertex="1">
          <mxGeometry y="161" width="169" height="28" as="geometry" />
        </mxCell>
        <mxCell id="n6qV_Xt3kzfEs7hYFHmW-86" value="contact_number" style="part=1;resizeHeight=0;strokeColor=none;verticalAlign=top;overflow=hidden;rotatable=0;points=[[0,0.5],[1,0.5]];portConstraint=eastwest;html=1;whiteSpace=wrap;#ffdda6whiteSpace=wrap;fontSize=13.3;align=left;spacingLeft=8.4;spacingRight=8.4;spacingTop=2.4;fillColor=none;strokeOpacity=100;fillOpacity=100;" parent="n6qV_Xt3kzfEs7hYFHmW-79" vertex="1">
          <mxGeometry y="189" width="169" height="28" as="geometry" />
        </mxCell>
        <mxCell id="n6qV_Xt3kzfEs7hYFHmW-87" value="contact_email" style="part=1;resizeHeight=0;strokeColor=none;verticalAlign=top;overflow=hidden;rotatable=0;points=[[0,0.5],[1,0.5]];portConstraint=eastwest;html=1;whiteSpace=wrap;#ffdda6whiteSpace=wrap;fontSize=13.3;align=left;spacingLeft=8.4;spacingRight=8.4;spacingTop=2.4;fillColor=#000000;opacity=5;" parent="n6qV_Xt3kzfEs7hYFHmW-79" vertex="1">
          <mxGeometry y="217" width="169" height="28" as="geometry" />
        </mxCell>
        <mxCell id="n6qV_Xt3kzfEs7hYFHmW-88" value="type_suppliers" style="part=1;resizeHeight=0;strokeColor=none;verticalAlign=top;overflow=hidden;rotatable=0;points=[[0,0.5],[1,0.5]];portConstraint=eastwest;html=1;whiteSpace=wrap;#ffdda6whiteSpace=wrap;fontSize=13.3;align=left;spacingLeft=8.4;spacingRight=8.4;spacingTop=2.4;fillColor=none;strokeOpacity=100;fillOpacity=100;" parent="n6qV_Xt3kzfEs7hYFHmW-79" vertex="1">
          <mxGeometry y="245" width="169" height="34" as="geometry" />
        </mxCell>
        <mxCell id="7ZXzJWrsroa6qovK6BAl-11" style="edgeStyle=orthogonalEdgeStyle;rounded=0;orthogonalLoop=1;jettySize=auto;html=1;entryX=0.5;entryY=0;entryDx=0;entryDy=0;" edge="1" parent="1" source="n6qV_Xt3kzfEs7hYFHmW-89" target="7ZXzJWrsroa6qovK6BAl-1">
          <mxGeometry relative="1" as="geometry" />
        </mxCell>
        <mxCell id="n6qV_Xt3kzfEs7hYFHmW-89" value="Freight" style="html=1;overflow=block;blockSpacing=1;swimlane;childLayout=stackLayout;horizontal=1;horizontalStack=0;resizeParent=1;resizeParentMax=0;resizeLast=0;collapsible=0;fontStyle=0;marginBottom=0;swimlaneFillColor=#c3f7c8;startSize=30;whiteSpace=wrap;fontSize=13.3;align=left;spacingLeft=8.4;spacingRight=8.4;spacingTop=2.4;spacing=3.6;strokeColor=#333333;strokeOpacity=100;fillOpacity=100;rounded=1;absoluteArcSize=1;arcSize=7.5;strokeWidth=0.8;fillColor=#a6d2aa;" parent="1" vertex="1">
          <mxGeometry x="1712" y="1335" width="169" height="258" as="geometry" />
        </mxCell>
        <mxCell id="n6qV_Xt3kzfEs7hYFHmW-90" value="roi" style="part=1;resizeHeight=0;strokeColor=none;verticalAlign=top;overflow=hidden;rotatable=0;points=[[0,0.5],[1,0.5]];portConstraint=eastwest;html=1;whiteSpace=wrap;#c3f7c8whiteSpace=wrap;fontSize=13.3;align=left;spacingLeft=8.4;spacingRight=8.4;spacingTop=2.4;fillColor=none;strokeOpacity=100;fillOpacity=100;" parent="n6qV_Xt3kzfEs7hYFHmW-89" vertex="1">
          <mxGeometry y="30" width="169" height="26.25" as="geometry" />
        </mxCell>
        <mxCell id="n6qV_Xt3kzfEs7hYFHmW-91" value="hawb_hbl" style="part=1;resizeHeight=0;strokeColor=none;verticalAlign=top;overflow=hidden;rotatable=0;points=[[0,0.5],[1,0.5]];portConstraint=eastwest;html=1;whiteSpace=wrap;#c3f7c8whiteSpace=wrap;fontSize=13.3;align=left;spacingLeft=8.4;spacingRight=8.4;spacingTop=2.4;fillColor=#000000;opacity=5;" parent="n6qV_Xt3kzfEs7hYFHmW-89" vertex="1">
          <mxGeometry y="56.25" width="169" height="26.25" as="geometry" />
        </mxCell>
        <mxCell id="n6qV_Xt3kzfEs7hYFHmW-92" value="bl_work" style="part=1;resizeHeight=0;strokeColor=none;verticalAlign=top;overflow=hidden;rotatable=0;points=[[0,0.5],[1,0.5]];portConstraint=eastwest;html=1;whiteSpace=wrap;#c3f7c8whiteSpace=wrap;fontSize=13.3;align=left;spacingLeft=8.4;spacingRight=8.4;spacingTop=2.4;fillColor=none;strokeOpacity=100;fillOpacity=100;" parent="n6qV_Xt3kzfEs7hYFHmW-89" vertex="1">
          <mxGeometry y="82.5" width="169" height="26.25" as="geometry" />
        </mxCell>
        <mxCell id="n6qV_Xt3kzfEs7hYFHmW-93" value="edt" style="part=1;resizeHeight=0;strokeColor=none;verticalAlign=top;overflow=hidden;rotatable=0;points=[[0,0.5],[1,0.5]];portConstraint=eastwest;html=1;whiteSpace=wrap;#c3f7c8whiteSpace=wrap;fontSize=13.3;align=left;spacingLeft=8.4;spacingRight=8.4;spacingTop=2.4;fillColor=#000000;opacity=5;" parent="n6qV_Xt3kzfEs7hYFHmW-89" vertex="1">
          <mxGeometry y="108.75" width="169" height="26.25" as="geometry" />
        </mxCell>
        <mxCell id="n6qV_Xt3kzfEs7hYFHmW-94" value="eta" style="part=1;resizeHeight=0;strokeColor=none;verticalAlign=top;overflow=hidden;rotatable=0;points=[[0,0.5],[1,0.5]];portConstraint=eastwest;html=1;whiteSpace=wrap;#c3f7c8whiteSpace=wrap;fontSize=13.3;align=left;spacingLeft=8.4;spacingRight=8.4;spacingTop=2.4;fillColor=none;strokeOpacity=100;fillOpacity=100;" parent="n6qV_Xt3kzfEs7hYFHmW-89" vertex="1">
          <mxGeometry y="135" width="169" height="21" as="geometry" />
        </mxCell>
        <mxCell id="n6qV_Xt3kzfEs7hYFHmW-95" value="value_utility" style="part=1;resizeHeight=0;strokeColor=none;verticalAlign=top;overflow=hidden;rotatable=0;points=[[0,0.5],[1,0.5]];portConstraint=eastwest;html=1;whiteSpace=wrap;#c3f7c8whiteSpace=wrap;fontSize=13.3;align=left;spacingLeft=8.4;spacingRight=8.4;spacingTop=2.4;fillColor=#000000;opacity=5;" parent="n6qV_Xt3kzfEs7hYFHmW-89" vertex="1">
          <mxGeometry y="156" width="169" height="23" as="geometry" />
        </mxCell>
        <mxCell id="n6qV_Xt3kzfEs7hYFHmW-96" value="value_freight" style="part=1;resizeHeight=0;strokeColor=none;verticalAlign=top;overflow=hidden;rotatable=0;points=[[0,0.5],[1,0.5]];portConstraint=eastwest;html=1;whiteSpace=wrap;#c3f7c8whiteSpace=wrap;fontSize=13.3;align=left;spacingLeft=8.4;spacingRight=8.4;spacingTop=2.4;fillColor=none;strokeOpacity=100;fillOpacity=100;" parent="n6qV_Xt3kzfEs7hYFHmW-89" vertex="1">
          <mxGeometry y="179" width="169" height="23" as="geometry" />
        </mxCell>
        <mxCell id="n6qV_Xt3kzfEs7hYFHmW-97" value="id_cago_insurance" style="part=1;resizeHeight=0;strokeColor=none;verticalAlign=top;overflow=hidden;rotatable=0;points=[[0,0.5],[1,0.5]];portConstraint=eastwest;html=1;whiteSpace=wrap;#c3f7c8whiteSpace=wrap;fontSize=13.3;align=left;spacingLeft=8.4;spacingRight=8.4;spacingTop=2.4;fillColor=#000000;opacity=5;" parent="n6qV_Xt3kzfEs7hYFHmW-89" vertex="1">
          <mxGeometry y="202" width="169" height="28" as="geometry" />
        </mxCell>
        <mxCell id="MXTqZxVAq7oDFnsf_esE-4" value="nro_orde" style="part=1;resizeHeight=0;strokeColor=none;verticalAlign=top;overflow=hidden;rotatable=0;points=[[0,0.5],[1,0.5]];portConstraint=eastwest;html=1;whiteSpace=wrap;#c3f7c8whiteSpace=wrap;fontSize=13.3;align=left;spacingLeft=8.4;spacingRight=8.4;spacingTop=2.4;fillColor=#000000;opacity=5;" parent="n6qV_Xt3kzfEs7hYFHmW-89" vertex="1">
          <mxGeometry y="230" width="169" height="28" as="geometry" />
        </mxCell>
        <mxCell id="n6qV_Xt3kzfEs7hYFHmW-98" value="Profit" style="html=1;overflow=block;blockSpacing=1;swimlane;childLayout=stackLayout;horizontal=1;horizontalStack=0;resizeParent=1;resizeParentMax=0;resizeLast=0;collapsible=0;fontStyle=0;marginBottom=0;swimlaneFillColor=#c3f7c8;startSize=30;whiteSpace=wrap;fontSize=13.3;align=left;spacingLeft=8.4;spacingRight=8.4;spacingTop=2.4;spacing=3.6;strokeOpacity=0;fillOpacity=100;rounded=1;absoluteArcSize=1;arcSize=7.5;strokeWidth=0.8;fillColor=#a6d2aa;" parent="1" vertex="1">
          <mxGeometry x="1481" y="1144" width="169" height="244.5" as="geometry" />
        </mxCell>
        <mxCell id="n6qV_Xt3kzfEs7hYFHmW-99" value="Id" style="part=1;resizeHeight=0;strokeColor=none;verticalAlign=top;overflow=hidden;rotatable=0;points=[[0,0.5],[1,0.5]];portConstraint=eastwest;html=1;whiteSpace=wrap;#c3f7c8whiteSpace=wrap;fontSize=13.3;align=left;spacingLeft=8.4;spacingRight=8.4;spacingTop=2.4;fillColor=none;strokeOpacity=0;fillOpacity=100;" parent="n6qV_Xt3kzfEs7hYFHmW-98" vertex="1">
          <mxGeometry y="30" width="169" height="26.25" as="geometry" />
        </mxCell>
        <mxCell id="n6qV_Xt3kzfEs7hYFHmW-100" value="value" style="part=1;resizeHeight=0;strokeColor=none;verticalAlign=top;overflow=hidden;rotatable=0;points=[[0,0.5],[1,0.5]];portConstraint=eastwest;html=1;whiteSpace=wrap;#c3f7c8whiteSpace=wrap;fontSize=13.3;align=left;spacingLeft=8.4;spacingRight=8.4;spacingTop=2.4;fillColor=#000000;opacity=5;" parent="n6qV_Xt3kzfEs7hYFHmW-98" vertex="1">
          <mxGeometry y="56.25" width="169" height="26.25" as="geometry" />
        </mxCell>
        <mxCell id="n6qV_Xt3kzfEs7hYFHmW-101" value="date" style="part=1;resizeHeight=0;strokeColor=none;verticalAlign=top;overflow=hidden;rotatable=0;points=[[0,0.5],[1,0.5]];portConstraint=eastwest;html=1;whiteSpace=wrap;#c3f7c8whiteSpace=wrap;fontSize=13.3;align=left;spacingLeft=8.4;spacingRight=8.4;spacingTop=2.4;fillColor=none;strokeOpacity=0;fillOpacity=100;" parent="n6qV_Xt3kzfEs7hYFHmW-98" vertex="1">
          <mxGeometry y="82.5" width="169" height="26.25" as="geometry" />
        </mxCell>
        <mxCell id="n6qV_Xt3kzfEs7hYFHmW-102" value="reference" style="part=1;resizeHeight=0;strokeColor=none;verticalAlign=top;overflow=hidden;rotatable=0;points=[[0,0.5],[1,0.5]];portConstraint=eastwest;html=1;whiteSpace=wrap;#c3f7c8whiteSpace=wrap;fontSize=13.3;align=left;spacingLeft=8.4;spacingRight=8.4;spacingTop=2.4;fillColor=#000000;opacity=5;" parent="n6qV_Xt3kzfEs7hYFHmW-98" vertex="1">
          <mxGeometry y="108.75" width="169" height="26.25" as="geometry" />
        </mxCell>
        <mxCell id="n6qV_Xt3kzfEs7hYFHmW-103" value="id_user" style="part=1;resizeHeight=0;strokeColor=none;verticalAlign=top;overflow=hidden;rotatable=0;points=[[0,0.5],[1,0.5]];portConstraint=eastwest;html=1;whiteSpace=wrap;#c3f7c8whiteSpace=wrap;fontSize=13.3;align=left;spacingLeft=8.4;spacingRight=8.4;spacingTop=2.4;fillColor=none;strokeOpacity=0;fillOpacity=100;" parent="n6qV_Xt3kzfEs7hYFHmW-98" vertex="1">
          <mxGeometry y="135" width="169" height="26.25" as="geometry" />
        </mxCell>
        <mxCell id="n6qV_Xt3kzfEs7hYFHmW-104" value="id_personal" style="part=1;resizeHeight=0;strokeColor=none;verticalAlign=top;overflow=hidden;rotatable=0;points=[[0,0.5],[1,0.5]];portConstraint=eastwest;html=1;whiteSpace=wrap;#c3f7c8whiteSpace=wrap;fontSize=13.3;align=left;spacingLeft=8.4;spacingRight=8.4;spacingTop=2.4;fillColor=#000000;opacity=5;" parent="n6qV_Xt3kzfEs7hYFHmW-98" vertex="1">
          <mxGeometry y="161.25" width="169" height="26.25" as="geometry" />
        </mxCell>
        <mxCell id="n6qV_Xt3kzfEs7hYFHmW-105" value="id_customer" style="part=1;resizeHeight=0;strokeColor=none;verticalAlign=top;overflow=hidden;rotatable=0;points=[[0,0.5],[1,0.5]];portConstraint=eastwest;html=1;whiteSpace=wrap;#c3f7c8whiteSpace=wrap;fontSize=13.3;align=left;spacingLeft=8.4;spacingRight=8.4;spacingTop=2.4;fillColor=none;strokeOpacity=0;fillOpacity=100;" parent="n6qV_Xt3kzfEs7hYFHmW-98" vertex="1">
          <mxGeometry y="187.5" width="169" height="29.5" as="geometry" />
        </mxCell>
        <mxCell id="n6qV_Xt3kzfEs7hYFHmW-106" value="nro_orde" style="part=1;resizeHeight=0;strokeColor=none;verticalAlign=top;overflow=hidden;rotatable=0;points=[[0,0.5],[1,0.5]];portConstraint=eastwest;html=1;whiteSpace=wrap;#c3f7c8whiteSpace=wrap;fontSize=13.3;align=left;spacingLeft=8.4;spacingRight=8.4;spacingTop=2.4;fillColor=#000000;opacity=5;" parent="n6qV_Xt3kzfEs7hYFHmW-98" vertex="1">
          <mxGeometry y="217" width="169" height="27.5" as="geometry" />
        </mxCell>
        <mxCell id="n6qV_Xt3kzfEs7hYFHmW-107" value="additional" style="html=1;overflow=block;blockSpacing=1;swimlane;childLayout=stackLayout;horizontal=1;horizontalStack=0;resizeParent=1;resizeParentMax=0;resizeLast=0;collapsible=0;fontStyle=0;marginBottom=0;swimlaneFillColor=#c3f7c8;startSize=30;whiteSpace=wrap;fontSize=13.3;align=left;spacingLeft=8.4;spacingRight=8.4;spacingTop=2.4;spacing=3.6;strokeColor=#333333;strokeOpacity=100;fillOpacity=100;rounded=1;absoluteArcSize=1;arcSize=7.5;strokeWidth=0.8;fillColor=#a6d2aa;" parent="1" vertex="1">
          <mxGeometry x="1230" y="1156" width="169" height="318.75" as="geometry" />
        </mxCell>
        <mxCell id="n6qV_Xt3kzfEs7hYFHmW-108" value="id" style="part=1;resizeHeight=0;strokeColor=none;align=left;verticalAlign=top;overflow=hidden;rotatable=0;points=[[0,0.5],[1,0.5]];portConstraint=eastwest;html=1;whiteSpace=wrap;#c3f7c8whiteSpace=wrap;fontSize=13.3;spacingLeft=8.4;spacingRight=8.4;spacingTop=2.4;fillColor=none;strokeOpacity=100;fillOpacity=100;" parent="n6qV_Xt3kzfEs7hYFHmW-107" vertex="1">
          <mxGeometry y="30" width="169" height="26.25" as="geometry" />
        </mxCell>
        <mxCell id="n6qV_Xt3kzfEs7hYFHmW-109" value="nro_orde" style="part=1;resizeHeight=0;strokeColor=none;align=left;verticalAlign=top;overflow=hidden;rotatable=0;points=[[0,0.5],[1,0.5]];portConstraint=eastwest;html=1;whiteSpace=wrap;#c3f7c8whiteSpace=wrap;fontSize=13.3;spacingLeft=8.4;spacingRight=8.4;spacingTop=2.4;fillColor=#000000;opacity=5;" parent="n6qV_Xt3kzfEs7hYFHmW-107" vertex="1">
          <mxGeometry y="56.25" width="169" height="26.25" as="geometry" />
        </mxCell>
        <mxCell id="n6qV_Xt3kzfEs7hYFHmW-110" value="date_register" style="part=1;resizeHeight=0;strokeColor=none;align=left;verticalAlign=top;overflow=hidden;rotatable=0;points=[[0,0.5],[1,0.5]];portConstraint=eastwest;html=1;whiteSpace=wrap;#c3f7c8whiteSpace=wrap;fontSize=13.3;spacingLeft=8.4;spacingRight=8.4;spacingTop=2.4;fillColor=none;strokeOpacity=100;fillOpacity=100;" parent="n6qV_Xt3kzfEs7hYFHmW-107" vertex="1">
          <mxGeometry y="82.5" width="169" height="26.25" as="geometry" />
        </mxCell>
        <mxCell id="n6qV_Xt3kzfEs7hYFHmW-111" value="company_to_invoice" style="part=1;resizeHeight=0;strokeColor=none;align=left;verticalAlign=top;overflow=hidden;rotatable=0;points=[[0,0.5],[1,0.5]];portConstraint=eastwest;html=1;whiteSpace=wrap;#c3f7c8whiteSpace=wrap;fontSize=13.3;spacingLeft=8.4;spacingRight=8.4;spacingTop=2.4;fillColor=#000000;opacity=5;" parent="n6qV_Xt3kzfEs7hYFHmW-107" vertex="1">
          <mxGeometry y="108.75" width="169" height="15" as="geometry" />
        </mxCell>
        <mxCell id="n6qV_Xt3kzfEs7hYFHmW-112" value="service" style="part=1;resizeHeight=0;strokeColor=none;align=left;verticalAlign=top;overflow=hidden;rotatable=0;points=[[0,0.5],[1,0.5]];portConstraint=eastwest;html=1;whiteSpace=wrap;#c3f7c8whiteSpace=wrap;fontSize=13.3;spacingLeft=8.4;spacingRight=8.4;spacingTop=2.4;fillColor=none;strokeOpacity=100;fillOpacity=100;" parent="n6qV_Xt3kzfEs7hYFHmW-107" vertex="1">
          <mxGeometry y="123.75" width="169" height="15" as="geometry" />
        </mxCell>
        <mxCell id="n6qV_Xt3kzfEs7hYFHmW-113" value="base_amount" style="part=1;resizeHeight=0;strokeColor=none;align=left;verticalAlign=top;overflow=hidden;rotatable=0;points=[[0,0.5],[1,0.5]];portConstraint=eastwest;html=1;whiteSpace=wrap;#c3f7c8whiteSpace=wrap;fontSize=13.3;spacingLeft=8.4;spacingRight=8.4;spacingTop=2.4;fillColor=#000000;opacity=5;" parent="n6qV_Xt3kzfEs7hYFHmW-107" vertex="1">
          <mxGeometry y="138.75" width="169" height="15" as="geometry" />
        </mxCell>
        <mxCell id="n6qV_Xt3kzfEs7hYFHmW-114" value="igv" style="part=1;resizeHeight=0;strokeColor=none;align=left;verticalAlign=top;overflow=hidden;rotatable=0;points=[[0,0.5],[1,0.5]];portConstraint=eastwest;html=1;whiteSpace=wrap;#c3f7c8whiteSpace=wrap;fontSize=13.3;spacingLeft=8.4;spacingRight=8.4;spacingTop=2.4;fillColor=none;strokeOpacity=100;fillOpacity=100;" parent="n6qV_Xt3kzfEs7hYFHmW-107" vertex="1">
          <mxGeometry y="153.75" width="169" height="15" as="geometry" />
        </mxCell>
        <mxCell id="n6qV_Xt3kzfEs7hYFHmW-115" value="total" style="part=1;resizeHeight=0;strokeColor=none;align=left;verticalAlign=top;overflow=hidden;rotatable=0;points=[[0,0.5],[1,0.5]];portConstraint=eastwest;html=1;whiteSpace=wrap;#c3f7c8whiteSpace=wrap;fontSize=13.3;spacingLeft=8.4;spacingRight=8.4;spacingTop=2.4;fillColor=#000000;opacity=5;" parent="n6qV_Xt3kzfEs7hYFHmW-107" vertex="1">
          <mxGeometry y="168.75" width="169" height="15" as="geometry" />
        </mxCell>
        <mxCell id="n6qV_Xt3kzfEs7hYFHmW-116" value="additional" style="part=1;resizeHeight=0;strokeColor=none;align=left;verticalAlign=top;overflow=hidden;rotatable=0;points=[[0,0.5],[1,0.5]];portConstraint=eastwest;html=1;whiteSpace=wrap;#c3f7c8whiteSpace=wrap;fontSize=13.3;spacingLeft=8.4;spacingRight=8.4;spacingTop=2.4;fillColor=none;strokeOpacity=100;fillOpacity=100;" parent="n6qV_Xt3kzfEs7hYFHmW-107" vertex="1">
          <mxGeometry y="183.75" width="169" height="15" as="geometry" />
        </mxCell>
        <mxCell id="n6qV_Xt3kzfEs7hYFHmW-117" value="administrator" style="part=1;resizeHeight=0;strokeColor=none;align=left;verticalAlign=top;overflow=hidden;rotatable=0;points=[[0,0.5],[1,0.5]];portConstraint=eastwest;html=1;whiteSpace=wrap;#c3f7c8whiteSpace=wrap;fontSize=13.3;spacingLeft=8.4;spacingRight=8.4;spacingTop=2.4;fillColor=#000000;opacity=5;" parent="n6qV_Xt3kzfEs7hYFHmW-107" vertex="1">
          <mxGeometry y="198.75" width="169" height="15" as="geometry" />
        </mxCell>
        <mxCell id="n6qV_Xt3kzfEs7hYFHmW-118" value="observation" style="part=1;resizeHeight=0;strokeColor=none;align=left;verticalAlign=top;overflow=hidden;rotatable=0;points=[[0,0.5],[1,0.5]];portConstraint=eastwest;html=1;whiteSpace=wrap;#c3f7c8whiteSpace=wrap;fontSize=13.3;spacingLeft=8.4;spacingRight=8.4;spacingTop=2.4;fillColor=none;strokeOpacity=100;fillOpacity=100;" parent="n6qV_Xt3kzfEs7hYFHmW-107" vertex="1">
          <mxGeometry y="213.75" width="169" height="15" as="geometry" />
        </mxCell>
        <mxCell id="n6qV_Xt3kzfEs7hYFHmW-119" value="type_service" style="part=1;resizeHeight=0;strokeColor=none;align=left;verticalAlign=top;overflow=hidden;rotatable=0;points=[[0,0.5],[1,0.5]];portConstraint=eastwest;html=1;whiteSpace=wrap;#c3f7c8whiteSpace=wrap;fontSize=13.3;spacingLeft=8.4;spacingRight=8.4;spacingTop=2.4;fillColor=#000000;opacity=5;" parent="n6qV_Xt3kzfEs7hYFHmW-107" vertex="1">
          <mxGeometry y="228.75" width="169" height="15" as="geometry" />
        </mxCell>
        <mxCell id="n6qV_Xt3kzfEs7hYFHmW-120" value="id_customers" style="part=1;resizeHeight=0;strokeColor=none;align=left;verticalAlign=top;overflow=hidden;rotatable=0;points=[[0,0.5],[1,0.5]];portConstraint=eastwest;html=1;whiteSpace=wrap;#c3f7c8whiteSpace=wrap;fontSize=13.3;spacingLeft=8.4;spacingRight=8.4;spacingTop=2.4;fillColor=none;strokeOpacity=100;fillOpacity=100;" parent="n6qV_Xt3kzfEs7hYFHmW-107" vertex="1">
          <mxGeometry y="243.75" width="169" height="15" as="geometry" />
        </mxCell>
        <mxCell id="n6qV_Xt3kzfEs7hYFHmW-121" value="id_personal" style="part=1;resizeHeight=0;strokeColor=none;align=left;verticalAlign=top;overflow=hidden;rotatable=0;points=[[0,0.5],[1,0.5]];portConstraint=eastwest;html=1;whiteSpace=wrap;#c3f7c8whiteSpace=wrap;fontSize=13.3;spacingLeft=8.4;spacingRight=8.4;spacingTop=2.4;fillColor=#000000;opacity=5;" parent="n6qV_Xt3kzfEs7hYFHmW-107" vertex="1">
          <mxGeometry y="258.75" width="169" height="15" as="geometry" />
        </mxCell>
        <mxCell id="n6qV_Xt3kzfEs7hYFHmW-122" value="id_users" style="part=1;resizeHeight=0;strokeColor=none;align=left;verticalAlign=top;overflow=hidden;rotatable=0;points=[[0,0.5],[1,0.5]];portConstraint=eastwest;html=1;whiteSpace=wrap;#c3f7c8whiteSpace=wrap;fontSize=13.3;spacingLeft=8.4;spacingRight=8.4;spacingTop=2.4;fillColor=none;strokeOpacity=100;fillOpacity=100;" parent="n6qV_Xt3kzfEs7hYFHmW-107" vertex="1">
          <mxGeometry y="273.75" width="169" height="15" as="geometry" />
        </mxCell>
        <mxCell id="n6qV_Xt3kzfEs7hYFHmW-123" value="nro_operation" style="part=1;resizeHeight=0;strokeColor=none;align=left;verticalAlign=top;overflow=hidden;rotatable=0;points=[[0,0.5],[1,0.5]];portConstraint=eastwest;html=1;whiteSpace=wrap;#c3f7c8whiteSpace=wrap;fontSize=13.3;spacingLeft=8.4;spacingRight=8.4;spacingTop=2.4;fillColor=#000000;opacity=5;" parent="n6qV_Xt3kzfEs7hYFHmW-107" vertex="1">
          <mxGeometry y="288.75" width="169" height="15" as="geometry" />
        </mxCell>
        <mxCell id="n6qV_Xt3kzfEs7hYFHmW-124" value="id_companies" style="part=1;resizeHeight=0;strokeColor=none;align=left;verticalAlign=top;overflow=hidden;rotatable=0;points=[[0,0.5],[1,0.5]];portConstraint=eastwest;html=1;whiteSpace=wrap;#c3f7c8whiteSpace=wrap;fontSize=13.3;spacingLeft=8.4;spacingRight=8.4;spacingTop=2.4;fillColor=none;strokeOpacity=100;fillOpacity=100;" parent="n6qV_Xt3kzfEs7hYFHmW-107" vertex="1">
          <mxGeometry y="303.75" width="169" height="15" as="geometry" />
        </mxCell>
        <mxCell id="n6qV_Xt3kzfEs7hYFHmW-125" value="companies" style="html=1;overflow=block;blockSpacing=1;swimlane;childLayout=stackLayout;horizontal=1;horizontalStack=0;resizeParent=1;resizeParentMax=0;resizeLast=0;collapsible=0;fontStyle=0;marginBottom=0;swimlaneFillColor=#ffdda6;startSize=30;whiteSpace=wrap;fontSize=13.3;align=left;spacingLeft=8.4;spacingRight=8.4;spacingTop=2.4;spacing=3.6;strokeColor=#333333;strokeOpacity=100;fillOpacity=100;rounded=1;absoluteArcSize=1;arcSize=7.5;strokeWidth=0.8;fillColor=#d9bc8d;" parent="1" vertex="1">
          <mxGeometry x="1187" y="1787" width="169" height="108.75" as="geometry" />
        </mxCell>
        <mxCell id="n6qV_Xt3kzfEs7hYFHmW-126" value="Id" style="part=1;resizeHeight=0;strokeColor=none;align=left;verticalAlign=top;overflow=hidden;rotatable=0;points=[[0,0.5],[1,0.5]];portConstraint=eastwest;html=1;whiteSpace=wrap;#ffdda6whiteSpace=wrap;fontSize=13.3;spacingLeft=8.4;spacingRight=8.4;spacingTop=2.4;fillColor=none;strokeOpacity=100;fillOpacity=100;" parent="n6qV_Xt3kzfEs7hYFHmW-125" vertex="1">
          <mxGeometry y="30" width="169" height="26.25" as="geometry" />
        </mxCell>
        <mxCell id="n6qV_Xt3kzfEs7hYFHmW-127" value="ruc" style="part=1;resizeHeight=0;strokeColor=none;align=left;verticalAlign=top;overflow=hidden;rotatable=0;points=[[0,0.5],[1,0.5]];portConstraint=eastwest;html=1;whiteSpace=wrap;#ffdda6whiteSpace=wrap;fontSize=13.3;spacingLeft=8.4;spacingRight=8.4;spacingTop=2.4;fillColor=#000000;opacity=5;" parent="n6qV_Xt3kzfEs7hYFHmW-125" vertex="1">
          <mxGeometry y="56.25" width="169" height="26.25" as="geometry" />
        </mxCell>
        <mxCell id="n6qV_Xt3kzfEs7hYFHmW-128" value="name_businessname" style="part=1;resizeHeight=0;strokeColor=none;align=left;verticalAlign=top;overflow=hidden;rotatable=0;points=[[0,0.5],[1,0.5]];portConstraint=eastwest;html=1;whiteSpace=wrap;#ffdda6whiteSpace=wrap;fontSize=13.3;spacingLeft=8.4;spacingRight=8.4;spacingTop=2.4;fillColor=none;strokeOpacity=100;fillOpacity=100;" parent="n6qV_Xt3kzfEs7hYFHmW-125" vertex="1">
          <mxGeometry y="82.5" width="169" height="26.25" as="geometry" />
        </mxCell>
        <mxCell id="n6qV_Xt3kzfEs7hYFHmW-129" value="routing" style="html=1;overflow=block;blockSpacing=1;swimlane;childLayout=stackLayout;horizontal=1;horizontalStack=0;resizeParent=1;resizeParentMax=0;resizeLast=0;collapsible=0;fontStyle=0;marginBottom=0;swimlaneFillColor=#c3f7c8;startSize=30;whiteSpace=wrap;fontSize=13.3;align=left;spacingLeft=8.4;spacingRight=8.4;spacingTop=2.4;spacing=3.6;strokeColor=#333333;strokeOpacity=100;fillOpacity=100;rounded=1;absoluteArcSize=1;arcSize=7.5;strokeWidth=0.8;fillColor=#a6d2aa;" parent="1" vertex="1">
          <mxGeometry x="921" y="441" width="169" height="366.75" as="geometry" />
        </mxCell>
        <mxCell id="n6qV_Xt3kzfEs7hYFHmW-130" value="nro_operration" style="part=1;resizeHeight=0;strokeColor=none;align=left;verticalAlign=top;overflow=hidden;rotatable=0;points=[[0,0.5],[1,0.5]];portConstraint=eastwest;html=1;whiteSpace=wrap;#c3f7c8whiteSpace=wrap;fontSize=13.3;spacingLeft=8.4;spacingRight=8.4;spacingTop=2.4;fillColor=none;strokeOpacity=100;fillOpacity=100;" parent="n6qV_Xt3kzfEs7hYFHmW-129" vertex="1">
          <mxGeometry y="30" width="169" height="26.25" as="geometry" />
        </mxCell>
        <mxCell id="n6qV_Xt3kzfEs7hYFHmW-131" value="origen" style="part=1;resizeHeight=0;strokeColor=none;align=left;verticalAlign=top;overflow=hidden;rotatable=0;points=[[0,0.5],[1,0.5]];portConstraint=eastwest;html=1;whiteSpace=wrap;#c3f7c8whiteSpace=wrap;fontSize=13.3;spacingLeft=8.4;spacingRight=8.4;spacingTop=2.4;fillColor=#000000;opacity=5;" parent="n6qV_Xt3kzfEs7hYFHmW-129" vertex="1">
          <mxGeometry y="56.25" width="169" height="26.25" as="geometry" />
        </mxCell>
        <mxCell id="n6qV_Xt3kzfEs7hYFHmW-132" value="destino" style="part=1;resizeHeight=0;strokeColor=none;align=left;verticalAlign=top;overflow=hidden;rotatable=0;points=[[0,0.5],[1,0.5]];portConstraint=eastwest;html=1;whiteSpace=wrap;#c3f7c8whiteSpace=wrap;fontSize=13.3;spacingLeft=8.4;spacingRight=8.4;spacingTop=2.4;fillColor=none;strokeOpacity=100;fillOpacity=100;" parent="n6qV_Xt3kzfEs7hYFHmW-129" vertex="1">
          <mxGeometry y="82.5" width="169" height="26.25" as="geometry" />
        </mxCell>
        <mxCell id="n6qV_Xt3kzfEs7hYFHmW-133" value="freight_value" style="part=1;resizeHeight=0;strokeColor=none;align=left;verticalAlign=top;overflow=hidden;rotatable=0;points=[[0,0.5],[1,0.5]];portConstraint=eastwest;html=1;whiteSpace=wrap;#c3f7c8whiteSpace=wrap;fontSize=13.3;spacingLeft=8.4;spacingRight=8.4;spacingTop=2.4;fillColor=#000000;opacity=5;" parent="n6qV_Xt3kzfEs7hYFHmW-129" vertex="1">
          <mxGeometry y="108.75" width="169" height="26.25" as="geometry" />
        </mxCell>
        <mxCell id="n6qV_Xt3kzfEs7hYFHmW-134" value="load_value" style="part=1;resizeHeight=0;strokeColor=none;align=left;verticalAlign=top;overflow=hidden;rotatable=0;points=[[0,0.5],[1,0.5]];portConstraint=eastwest;html=1;whiteSpace=wrap;#c3f7c8whiteSpace=wrap;fontSize=13.3;spacingLeft=8.4;spacingRight=8.4;spacingTop=2.4;fillColor=none;strokeOpacity=100;fillOpacity=100;" parent="n6qV_Xt3kzfEs7hYFHmW-129" vertex="1">
          <mxGeometry y="135" width="169" height="26.25" as="geometry" />
        </mxCell>
        <mxCell id="n6qV_Xt3kzfEs7hYFHmW-136" value="id_personal" style="part=1;resizeHeight=0;strokeColor=none;align=left;verticalAlign=top;overflow=hidden;rotatable=0;points=[[0,0.5],[1,0.5]];portConstraint=eastwest;html=1;whiteSpace=wrap;#c3f7c8whiteSpace=wrap;fontSize=13.3;spacingLeft=8.4;spacingRight=8.4;spacingTop=2.4;fillColor=none;strokeOpacity=100;fillOpacity=100;" parent="n6qV_Xt3kzfEs7hYFHmW-129" vertex="1">
          <mxGeometry y="161.25" width="169" height="21.5" as="geometry" />
        </mxCell>
        <mxCell id="n6qV_Xt3kzfEs7hYFHmW-137" value="id_customer" style="part=1;resizeHeight=0;strokeColor=none;align=left;verticalAlign=top;overflow=hidden;rotatable=0;points=[[0,0.5],[1,0.5]];portConstraint=eastwest;html=1;whiteSpace=wrap;#c3f7c8whiteSpace=wrap;fontSize=13.3;spacingLeft=8.4;spacingRight=8.4;spacingTop=2.4;fillColor=#000000;opacity=5;" parent="n6qV_Xt3kzfEs7hYFHmW-129" vertex="1">
          <mxGeometry y="182.75" width="169" height="28" as="geometry" />
        </mxCell>
        <mxCell id="n6qV_Xt3kzfEs7hYFHmW-138" value="id_type_shipment" style="part=1;resizeHeight=0;strokeColor=none;align=left;verticalAlign=top;overflow=hidden;rotatable=0;points=[[0,0.5],[1,0.5]];portConstraint=eastwest;html=1;whiteSpace=wrap;#c3f7c8whiteSpace=wrap;fontSize=13.3;spacingLeft=8.4;spacingRight=8.4;spacingTop=2.4;fillColor=none;strokeOpacity=100;fillOpacity=100;" parent="n6qV_Xt3kzfEs7hYFHmW-129" vertex="1">
          <mxGeometry y="210.75" width="169" height="25" as="geometry" />
        </mxCell>
        <mxCell id="n6qV_Xt3kzfEs7hYFHmW-139" value="id_modality" style="part=1;resizeHeight=0;strokeColor=none;align=left;verticalAlign=top;overflow=hidden;rotatable=0;points=[[0,0.5],[1,0.5]];portConstraint=eastwest;html=1;whiteSpace=wrap;#c3f7c8whiteSpace=wrap;fontSize=13.3;spacingLeft=8.4;spacingRight=8.4;spacingTop=2.4;fillColor=#000000;opacity=5;" parent="n6qV_Xt3kzfEs7hYFHmW-129" vertex="1">
          <mxGeometry y="235.75" width="169" height="29" as="geometry" />
        </mxCell>
        <mxCell id="n6qV_Xt3kzfEs7hYFHmW-140" value="id_regime" style="part=1;resizeHeight=0;strokeColor=none;align=left;verticalAlign=top;overflow=hidden;rotatable=0;points=[[0,0.5],[1,0.5]];portConstraint=eastwest;html=1;whiteSpace=wrap;#c3f7c8whiteSpace=wrap;fontSize=13.3;spacingLeft=8.4;spacingRight=8.4;spacingTop=2.4;fillColor=none;strokeOpacity=100;fillOpacity=100;" parent="n6qV_Xt3kzfEs7hYFHmW-129" vertex="1">
          <mxGeometry y="264.75" width="169" height="24" as="geometry" />
        </mxCell>
        <mxCell id="n6qV_Xt3kzfEs7hYFHmW-141" value="id_country" style="part=1;resizeHeight=0;strokeColor=none;align=left;verticalAlign=top;overflow=hidden;rotatable=0;points=[[0,0.5],[1,0.5]];portConstraint=eastwest;html=1;whiteSpace=wrap;#c3f7c8whiteSpace=wrap;fontSize=13.3;spacingLeft=8.4;spacingRight=8.4;spacingTop=2.4;fillColor=#000000;opacity=5;" parent="n6qV_Xt3kzfEs7hYFHmW-129" vertex="1">
          <mxGeometry y="288.75" width="169" height="24" as="geometry" />
        </mxCell>
        <mxCell id="n6qV_Xt3kzfEs7hYFHmW-142" value="id_icoterm" style="part=1;resizeHeight=0;strokeColor=none;align=left;verticalAlign=top;overflow=hidden;rotatable=0;points=[[0,0.5],[1,0.5]];portConstraint=eastwest;html=1;whiteSpace=wrap;#c3f7c8whiteSpace=wrap;fontSize=13.3;spacingLeft=8.4;spacingRight=8.4;spacingTop=2.4;fillColor=none;strokeOpacity=100;fillOpacity=100;" parent="n6qV_Xt3kzfEs7hYFHmW-129" vertex="1">
          <mxGeometry y="312.75" width="169" height="24" as="geometry" />
        </mxCell>
        <mxCell id="n6qV_Xt3kzfEs7hYFHmW-143" value="id_shipper" style="part=1;resizeHeight=0;strokeColor=none;verticalAlign=top;overflow=hidden;rotatable=0;points=[[0,0.5],[1,0.5]];portConstraint=eastwest;html=1;whiteSpace=wrap;#c3f7c8whiteSpace=wrap;fontSize=13.3;align=left;spacingLeft=8.4;spacingRight=8.4;spacingTop=2.4;fillColor=#000000;opacity=5;" parent="n6qV_Xt3kzfEs7hYFHmW-129" vertex="1">
          <mxGeometry y="336.75" width="169" height="30" as="geometry" />
        </mxCell>
        <mxCell id="n6qV_Xt3kzfEs7hYFHmW-144" value="" style="html=1;jettySize=18;whiteSpace=wrap;fontSize=13;strokeColor=#333333;strokeOpacity=100;strokeWidth=0.8;rounded=1;arcSize=24;edgeStyle=orthogonalEdgeStyle;startArrow=ERone;startSize=16;endArrow=ERmany;endSize=10;exitX=1.002;exitY=0.398;exitPerimeter=0;entryX=0.5;entryY=-0.001;entryPerimeter=0;lucidId=MZ1iUJYXWWJA;" parent="1" source="n6qV_Xt3kzfEs7hYFHmW-2" target="n6qV_Xt3kzfEs7hYFHmW-129" edge="1">
          <mxGeometry width="100" height="100" relative="1" as="geometry">
            <Array as="points" />
          </mxGeometry>
        </mxCell>
        <mxCell id="n6qV_Xt3kzfEs7hYFHmW-145" value="" style="html=1;jettySize=18;whiteSpace=wrap;fontSize=13;strokeColor=#333333;strokeOpacity=100;strokeWidth=0.8;rounded=1;arcSize=24;edgeStyle=orthogonalEdgeStyle;startArrow=ERone;startSize=16;endArrow=ERone;endSize=16;exitX=1.002;exitY=0.325;exitPerimeter=0;entryX=1.002;entryY=0.307;entryPerimeter=0;lucidId=Nx2iOqXve_p5;" parent="1" source="n6qV_Xt3kzfEs7hYFHmW-16" target="n6qV_Xt3kzfEs7hYFHmW-129" edge="1">
          <mxGeometry width="100" height="100" relative="1" as="geometry">
            <Array as="points">
              <mxPoint x="519" y="151" />
              <mxPoint x="519" y="63" />
              <mxPoint x="1194" y="63" />
              <mxPoint x="1194" y="562" />
            </Array>
          </mxGeometry>
        </mxCell>
        <mxCell id="n6qV_Xt3kzfEs7hYFHmW-146" value="" style="html=1;jettySize=18;whiteSpace=wrap;fontSize=13;strokeColor=#333333;strokeOpacity=100;strokeWidth=0.8;rounded=1;arcSize=24;edgeStyle=orthogonalEdgeStyle;startArrow=ERone;startSize=16;endArrow=ERmany;endSize=10;exitX=-0.002;exitY=0.639;exitPerimeter=0;entryX=1.002;entryY=0.571;entryPerimeter=0;lucidId=5y2iKvekF7F8;" parent="1" source="n6qV_Xt3kzfEs7hYFHmW-52" target="n6qV_Xt3kzfEs7hYFHmW-129" edge="1">
          <mxGeometry width="100" height="100" relative="1" as="geometry">
            <Array as="points" />
          </mxGeometry>
        </mxCell>
        <mxCell id="n6qV_Xt3kzfEs7hYFHmW-148" value="regime" style="html=1;overflow=block;blockSpacing=1;swimlane;childLayout=stackLayout;horizontal=1;horizontalStack=0;resizeParent=1;resizeParentMax=0;resizeLast=0;collapsible=0;fontStyle=0;marginBottom=0;swimlaneFillColor=#ffdda6;startSize=30;whiteSpace=wrap;fontSize=13.3;align=left;spacingLeft=8.4;spacingRight=8.4;spacingTop=2.4;spacing=3.6;strokeColor=#333333;strokeOpacity=100;fillOpacity=100;rounded=1;absoluteArcSize=1;arcSize=7.5;strokeWidth=0.8;fillColor=#d9bc8d;" parent="1" vertex="1">
          <mxGeometry x="612" y="222" width="169" height="108.75" as="geometry" />
        </mxCell>
        <mxCell id="n6qV_Xt3kzfEs7hYFHmW-149" value="id" style="part=1;resizeHeight=0;strokeColor=none;align=left;verticalAlign=top;overflow=hidden;rotatable=0;points=[[0,0.5],[1,0.5]];portConstraint=eastwest;html=1;whiteSpace=wrap;#ffdda6whiteSpace=wrap;fontSize=13.3;spacingLeft=8.4;spacingRight=8.4;spacingTop=2.4;fillColor=none;strokeOpacity=100;fillOpacity=100;" parent="n6qV_Xt3kzfEs7hYFHmW-148" vertex="1">
          <mxGeometry y="30" width="169" height="26.25" as="geometry" />
        </mxCell>
        <mxCell id="n6qV_Xt3kzfEs7hYFHmW-150" value="code" style="part=1;resizeHeight=0;strokeColor=none;align=left;verticalAlign=top;overflow=hidden;rotatable=0;points=[[0,0.5],[1,0.5]];portConstraint=eastwest;html=1;whiteSpace=wrap;#ffdda6whiteSpace=wrap;fontSize=13.3;spacingLeft=8.4;spacingRight=8.4;spacingTop=2.4;fillColor=#000000;opacity=5;" parent="n6qV_Xt3kzfEs7hYFHmW-148" vertex="1">
          <mxGeometry y="56.25" width="169" height="26.25" as="geometry" />
        </mxCell>
        <mxCell id="n6qV_Xt3kzfEs7hYFHmW-151" value="description" style="part=1;resizeHeight=0;strokeColor=none;align=left;verticalAlign=top;overflow=hidden;rotatable=0;points=[[0,0.5],[1,0.5]];portConstraint=eastwest;html=1;whiteSpace=wrap;#ffdda6whiteSpace=wrap;fontSize=13.3;spacingLeft=8.4;spacingRight=8.4;spacingTop=2.4;fillColor=none;strokeOpacity=100;fillOpacity=100;" parent="n6qV_Xt3kzfEs7hYFHmW-148" vertex="1">
          <mxGeometry y="82.5" width="169" height="26.25" as="geometry" />
        </mxCell>
        <mxCell id="n6qV_Xt3kzfEs7hYFHmW-152" value="" style="html=1;jettySize=18;whiteSpace=wrap;fontSize=13;strokeColor=#333333;strokeOpacity=100;strokeWidth=0.8;rounded=1;arcSize=24;edgeStyle=orthogonalEdgeStyle;startArrow=ERone;startSize=16;endArrow=ERmany;endSize=10;exitX=1.002;exitY=0.639;exitPerimeter=0;entryX=-0.002;entryY=0.175;entryPerimeter=0;lucidId=lB2ivckwftTi;" parent="1" source="n6qV_Xt3kzfEs7hYFHmW-148" target="n6qV_Xt3kzfEs7hYFHmW-129" edge="1">
          <mxGeometry width="100" height="100" relative="1" as="geometry">
            <Array as="points" />
          </mxGeometry>
        </mxCell>
        <mxCell id="n6qV_Xt3kzfEs7hYFHmW-153" value="permission_users" style="html=1;overflow=block;blockSpacing=1;swimlane;childLayout=stackLayout;horizontal=1;horizontalStack=0;resizeParent=1;resizeParentMax=0;resizeLast=0;collapsible=0;fontStyle=0;marginBottom=0;swimlaneFillColor=#ffdda6;startSize=30;whiteSpace=wrap;fontSize=13.3;align=left;spacingLeft=8.4;spacingRight=8.4;spacingTop=2.4;spacing=3.6;strokeColor=#333333;strokeOpacity=100;fillOpacity=100;rounded=1;absoluteArcSize=1;arcSize=7.5;strokeWidth=0.8;fillColor=#d9bc8d;" parent="1" vertex="1">
          <mxGeometry x="134" y="832" width="169" height="108.75" as="geometry" />
        </mxCell>
        <mxCell id="n6qV_Xt3kzfEs7hYFHmW-154" value="Id" style="part=1;resizeHeight=0;strokeColor=none;verticalAlign=top;overflow=hidden;rotatable=0;points=[[0,0.5],[1,0.5]];portConstraint=eastwest;html=1;whiteSpace=wrap;#ffdda6whiteSpace=wrap;fontSize=13.3;align=left;spacingLeft=8.4;spacingRight=8.4;spacingTop=2.4;fillColor=none;strokeOpacity=100;fillOpacity=100;" parent="n6qV_Xt3kzfEs7hYFHmW-153" vertex="1">
          <mxGeometry y="30" width="169" height="26.25" as="geometry" />
        </mxCell>
        <mxCell id="n6qV_Xt3kzfEs7hYFHmW-155" value="id_user" style="part=1;resizeHeight=0;strokeColor=none;verticalAlign=top;overflow=hidden;rotatable=0;points=[[0,0.5],[1,0.5]];portConstraint=eastwest;html=1;whiteSpace=wrap;#ffdda6whiteSpace=wrap;fontSize=13.3;align=left;spacingLeft=8.4;spacingRight=8.4;spacingTop=2.4;fillColor=#000000;opacity=5;" parent="n6qV_Xt3kzfEs7hYFHmW-153" vertex="1">
          <mxGeometry y="56.25" width="169" height="26.25" as="geometry" />
        </mxCell>
        <mxCell id="n6qV_Xt3kzfEs7hYFHmW-156" value="id_permission" style="part=1;resizeHeight=0;strokeColor=none;verticalAlign=top;overflow=hidden;rotatable=0;points=[[0,0.5],[1,0.5]];portConstraint=eastwest;html=1;whiteSpace=wrap;#ffdda6whiteSpace=wrap;fontSize=13.3;align=left;spacingLeft=8.4;spacingRight=8.4;spacingTop=2.4;fillColor=none;strokeOpacity=100;fillOpacity=100;" parent="n6qV_Xt3kzfEs7hYFHmW-153" vertex="1">
          <mxGeometry y="82.5" width="169" height="26.25" as="geometry" />
        </mxCell>
        <mxCell id="n6qV_Xt3kzfEs7hYFHmW-157" value="" style="html=1;jettySize=18;whiteSpace=wrap;fontSize=13;strokeColor=#333333;strokeOpacity=100;strokeWidth=0.8;rounded=1;arcSize=24;edgeStyle=orthogonalEdgeStyle;startArrow=ERone;startSize=16;endArrow=ERmany;endSize=10;exitX=-0.002;exitY=0.514;exitPerimeter=0;entryX=1.002;entryY=0.396;entryPerimeter=0;lucidId=RM2i.kLhDSkv;" parent="1" source="n6qV_Xt3kzfEs7hYFHmW-11" target="n6qV_Xt3kzfEs7hYFHmW-153" edge="1">
          <mxGeometry width="100" height="100" relative="1" as="geometry">
            <Array as="points" />
          </mxGeometry>
        </mxCell>
        <mxCell id="n6qV_Xt3kzfEs7hYFHmW-158" value="" style="html=1;jettySize=18;whiteSpace=wrap;fontSize=13;strokeColor=#333333;strokeOpacity=100;strokeWidth=0.8;rounded=1;arcSize=24;edgeStyle=orthogonalEdgeStyle;startArrow=ERone;startSize=16;endArrow=ERmany;endSize=10;exitX=-0.002;exitY=0.523;exitPerimeter=0;entryX=0.5;entryY=1.003;entryPerimeter=0;lucidId=WM2iIu.hyuAm;" parent="1" source="n6qV_Xt3kzfEs7hYFHmW-39" target="n6qV_Xt3kzfEs7hYFHmW-153" edge="1">
          <mxGeometry width="100" height="100" relative="1" as="geometry">
            <Array as="points" />
          </mxGeometry>
        </mxCell>
        <mxCell id="n6qV_Xt3kzfEs7hYFHmW-159" value="country" style="html=1;overflow=block;blockSpacing=1;swimlane;childLayout=stackLayout;horizontal=1;horizontalStack=0;resizeParent=1;resizeParentMax=0;resizeLast=0;collapsible=0;fontStyle=0;marginBottom=0;swimlaneFillColor=#ffdda6;startSize=30;whiteSpace=wrap;fontSize=13.3;align=left;spacingLeft=8.4;spacingRight=8.4;spacingTop=2.4;spacing=3.6;strokeColor=#333333;strokeOpacity=100;fillOpacity=100;rounded=1;absoluteArcSize=1;arcSize=7.5;strokeWidth=0.8;fillColor=#d9bc8d;" parent="1" vertex="1">
          <mxGeometry x="829" y="87" width="169" height="123.75" as="geometry" />
        </mxCell>
        <mxCell id="n6qV_Xt3kzfEs7hYFHmW-160" value="id" style="part=1;resizeHeight=0;strokeColor=none;align=left;verticalAlign=top;overflow=hidden;rotatable=0;points=[[0,0.5],[1,0.5]];portConstraint=eastwest;html=1;whiteSpace=wrap;#ffdda6whiteSpace=wrap;fontSize=13.3;spacingLeft=8.4;spacingRight=8.4;spacingTop=2.4;fillColor=none;strokeOpacity=100;fillOpacity=100;" parent="n6qV_Xt3kzfEs7hYFHmW-159" vertex="1">
          <mxGeometry y="30" width="169" height="26.25" as="geometry" />
        </mxCell>
        <mxCell id="n6qV_Xt3kzfEs7hYFHmW-161" value="name" style="part=1;resizeHeight=0;strokeColor=none;align=left;verticalAlign=top;overflow=hidden;rotatable=0;points=[[0,0.5],[1,0.5]];portConstraint=eastwest;html=1;whiteSpace=wrap;#ffdda6whiteSpace=wrap;fontSize=13.3;spacingLeft=8.4;spacingRight=8.4;spacingTop=2.4;fillColor=#000000;opacity=5;" parent="n6qV_Xt3kzfEs7hYFHmW-159" vertex="1">
          <mxGeometry y="56.25" width="169" height="26.25" as="geometry" />
        </mxCell>
        <mxCell id="n6qV_Xt3kzfEs7hYFHmW-162" value="code" style="part=1;resizeHeight=0;strokeColor=none;align=left;verticalAlign=top;overflow=hidden;rotatable=0;points=[[0,0.5],[1,0.5]];portConstraint=eastwest;html=1;whiteSpace=wrap;#ffdda6whiteSpace=wrap;fontSize=13.3;spacingLeft=8.4;spacingRight=8.4;spacingTop=2.4;fillColor=none;strokeOpacity=100;fillOpacity=100;" parent="n6qV_Xt3kzfEs7hYFHmW-159" vertex="1">
          <mxGeometry y="82.5" width="169" height="26.25" as="geometry" />
        </mxCell>
        <mxCell id="n6qV_Xt3kzfEs7hYFHmW-163" value="code_num" style="part=1;resizeHeight=0;strokeColor=none;align=left;verticalAlign=top;overflow=hidden;rotatable=0;points=[[0,0.5],[1,0.5]];portConstraint=eastwest;html=1;whiteSpace=wrap;#ffdda6whiteSpace=wrap;fontSize=13.3;spacingLeft=8.4;spacingRight=8.4;spacingTop=2.4;fillColor=#000000;opacity=5;" parent="n6qV_Xt3kzfEs7hYFHmW-159" vertex="1">
          <mxGeometry y="108.75" width="169" height="15" as="geometry" />
        </mxCell>
        <mxCell id="n6qV_Xt3kzfEs7hYFHmW-164" value="" style="html=1;jettySize=18;whiteSpace=wrap;fontSize=13;strokeColor=#333333;strokeOpacity=100;strokeWidth=0.8;rounded=1;arcSize=24;edgeStyle=orthogonalEdgeStyle;startArrow=ERone;startSize=16;endArrow=ERmany;endSize=10;exitX=0.5;exitY=1.003;exitPerimeter=0;entryX=0.648;entryY=-0.001;entryPerimeter=0;lucidId=NU2iIHFRSUoH;" parent="1" source="n6qV_Xt3kzfEs7hYFHmW-159" target="n6qV_Xt3kzfEs7hYFHmW-129" edge="1">
          <mxGeometry width="100" height="100" relative="1" as="geometry">
            <Array as="points" />
          </mxGeometry>
        </mxCell>
        <mxCell id="n6qV_Xt3kzfEs7hYFHmW-165" value="incoterm" style="html=1;overflow=block;blockSpacing=1;swimlane;childLayout=stackLayout;horizontal=1;horizontalStack=0;resizeParent=1;resizeParentMax=0;resizeLast=0;collapsible=0;fontStyle=0;marginBottom=0;swimlaneFillColor=#ffdda6;startSize=30;whiteSpace=wrap;fontSize=13.3;align=left;spacingLeft=8.4;spacingRight=8.4;spacingTop=2.4;spacing=3.6;strokeColor=#333333;strokeOpacity=100;fillOpacity=100;rounded=1;absoluteArcSize=1;arcSize=7.5;strokeWidth=0.8;fillColor=#d9bc8d;" parent="1" vertex="1">
          <mxGeometry x="1887" y="43" width="169" height="123.75" as="geometry" />
        </mxCell>
        <mxCell id="n6qV_Xt3kzfEs7hYFHmW-166" value="id" style="part=1;resizeHeight=0;strokeColor=none;align=left;verticalAlign=top;overflow=hidden;rotatable=0;points=[[0,0.5],[1,0.5]];portConstraint=eastwest;html=1;whiteSpace=wrap;#ffdda6whiteSpace=wrap;fontSize=13.3;spacingLeft=8.4;spacingRight=8.4;spacingTop=2.4;fillColor=none;strokeOpacity=100;fillOpacity=100;" parent="n6qV_Xt3kzfEs7hYFHmW-165" vertex="1">
          <mxGeometry y="30" width="169" height="26.25" as="geometry" />
        </mxCell>
        <mxCell id="n6qV_Xt3kzfEs7hYFHmW-167" value="code" style="part=1;resizeHeight=0;strokeColor=none;align=left;verticalAlign=top;overflow=hidden;rotatable=0;points=[[0,0.5],[1,0.5]];portConstraint=eastwest;html=1;whiteSpace=wrap;#ffdda6whiteSpace=wrap;fontSize=13.3;spacingLeft=8.4;spacingRight=8.4;spacingTop=2.4;fillColor=#000000;opacity=5;" parent="n6qV_Xt3kzfEs7hYFHmW-165" vertex="1">
          <mxGeometry y="56.25" width="169" height="26.25" as="geometry" />
        </mxCell>
        <mxCell id="n6qV_Xt3kzfEs7hYFHmW-168" value="name" style="part=1;resizeHeight=0;strokeColor=none;align=left;verticalAlign=top;overflow=hidden;rotatable=0;points=[[0,0.5],[1,0.5]];portConstraint=eastwest;html=1;whiteSpace=wrap;#ffdda6whiteSpace=wrap;fontSize=13.3;spacingLeft=8.4;spacingRight=8.4;spacingTop=2.4;fillColor=none;strokeOpacity=100;fillOpacity=100;" parent="n6qV_Xt3kzfEs7hYFHmW-165" vertex="1">
          <mxGeometry y="82.5" width="169" height="26.25" as="geometry" />
        </mxCell>
        <mxCell id="n6qV_Xt3kzfEs7hYFHmW-169" value="description" style="part=1;resizeHeight=0;strokeColor=none;align=left;verticalAlign=top;overflow=hidden;rotatable=0;points=[[0,0.5],[1,0.5]];portConstraint=eastwest;html=1;whiteSpace=wrap;#ffdda6whiteSpace=wrap;fontSize=13.3;spacingLeft=8.4;spacingRight=8.4;spacingTop=2.4;fillColor=#000000;opacity=5;" parent="n6qV_Xt3kzfEs7hYFHmW-165" vertex="1">
          <mxGeometry y="108.75" width="169" height="15" as="geometry" />
        </mxCell>
        <mxCell id="n6qV_Xt3kzfEs7hYFHmW-170" value="" style="html=1;jettySize=18;whiteSpace=wrap;fontSize=13;strokeColor=#333333;strokeOpacity=100;strokeWidth=0.8;rounded=1;arcSize=24;edgeStyle=orthogonalEdgeStyle;startArrow=ERone;startSize=16;endArrow=ERmany;endSize=10;exitX=-0.002;exitY=0.319;exitPerimeter=0;entryX=1.002;entryY=0.373;entryPerimeter=0;lucidId=DG4ilcfxgDzd;" parent="1" source="n6qV_Xt3kzfEs7hYFHmW-165" target="n6qV_Xt3kzfEs7hYFHmW-129" edge="1">
          <mxGeometry width="100" height="100" relative="1" as="geometry">
            <Array as="points" />
          </mxGeometry>
        </mxCell>
        <mxCell id="n6qV_Xt3kzfEs7hYFHmW-171" value="" style="html=1;jettySize=18;whiteSpace=wrap;fontSize=13;strokeColor=#333333;strokeOpacity=100;strokeWidth=0.8;rounded=1;arcSize=24;edgeStyle=orthogonalEdgeStyle;startArrow=ERone;startSize=16;endArrow=ERmany;endSize=10;exitX=-0.002;exitY=0.703;exitPerimeter=0;entryX=0.529;entryY=-0.001;entryPerimeter=0;lucidId=214i6MCjLoQ1;" parent="1" source="n6qV_Xt3kzfEs7hYFHmW-129" target="n6qV_Xt3kzfEs7hYFHmW-28" edge="1">
          <mxGeometry width="100" height="100" relative="1" as="geometry">
            <Array as="points">
              <mxPoint x="921" y="773" />
              <mxPoint x="893" y="773" />
              <mxPoint x="893" y="1138" />
              <mxPoint x="1018" y="1138" />
              <mxPoint x="1018" y="1246" />
            </Array>
          </mxGeometry>
        </mxCell>
        <mxCell id="n6qV_Xt3kzfEs7hYFHmW-172" value="" style="html=1;jettySize=18;whiteSpace=wrap;fontSize=13;strokeColor=#333333;strokeOpacity=100;strokeWidth=0.8;rounded=1;arcSize=24;edgeStyle=orthogonalEdgeStyle;startArrow=ERone;startSize=16;endArrow=ERmany;endSize=10;exitX=1.002;exitY=0.18;exitPerimeter=0;entryX=-0.002;entryY=0.639;entryPerimeter=0;lucidId=564iiCKOJsef;" parent="1" source="n6qV_Xt3kzfEs7hYFHmW-42" target="n6qV_Xt3kzfEs7hYFHmW-24" edge="1">
          <mxGeometry width="100" height="100" relative="1" as="geometry">
            <Array as="points" />
          </mxGeometry>
        </mxCell>
        <mxCell id="n6qV_Xt3kzfEs7hYFHmW-174" value="" style="html=1;jettySize=18;whiteSpace=wrap;fontSize=13;strokeColor=#333333;strokeOpacity=100;strokeWidth=0.8;rounded=1;arcSize=24;edgeStyle=orthogonalEdgeStyle;startArrow=ERone;startSize=16;endArrow=ERmany;endSize=10;exitX=0.5;exitY=0;exitPerimeter=0;entryX=0.906;entryY=1.001;entryPerimeter=0;lucidId=Xo5iYzH39pMe;" parent="1" source="n6qV_Xt3kzfEs7hYFHmW-98" target="n6qV_Xt3kzfEs7hYFHmW-129" edge="1">
          <mxGeometry width="100" height="100" relative="1" as="geometry">
            <Array as="points" />
          </mxGeometry>
        </mxCell>
        <mxCell id="n6qV_Xt3kzfEs7hYFHmW-175" value="" style="html=1;jettySize=18;whiteSpace=wrap;fontSize=13;strokeColor=#333333;strokeOpacity=100;strokeWidth=0.8;rounded=1;arcSize=24;edgeStyle=orthogonalEdgeStyle;startArrow=ERone;startSize=16;endArrow=ERmany;endSize=10;exitX=0.747;exitY=-0.001;exitPerimeter=0;entryX=1.002;entryY=0.835;entryPerimeter=0;lucidId=1o5iQaKt0T1m;" parent="1" source="n6qV_Xt3kzfEs7hYFHmW-107" target="n6qV_Xt3kzfEs7hYFHmW-129" edge="1">
          <mxGeometry width="100" height="100" relative="1" as="geometry">
            <Array as="points" />
          </mxGeometry>
        </mxCell>
        <mxCell id="n6qV_Xt3kzfEs7hYFHmW-176" value="" style="html=1;jettySize=18;whiteSpace=wrap;fontSize=13;strokeColor=#333333;strokeOpacity=100;strokeWidth=0.8;rounded=1;arcSize=24;edgeStyle=orthogonalEdgeStyle;startArrow=ERone;startSize=16;endArrow=ERone;endSize=16;exitX=0.5;exitY=-0.002;exitPerimeter=0;entryX=0.23;entryY=1.001;entryPerimeter=0;lucidId=~o5izKy_hxBG;" parent="1" source="n6qV_Xt3kzfEs7hYFHmW-89" target="n6qV_Xt3kzfEs7hYFHmW-129" edge="1">
          <mxGeometry width="100" height="100" relative="1" as="geometry">
            <Array as="points" />
          </mxGeometry>
        </mxCell>
        <mxCell id="MXTqZxVAq7oDFnsf_esE-3" style="edgeStyle=orthogonalEdgeStyle;rounded=0;orthogonalLoop=1;jettySize=auto;html=1;exitX=0.5;exitY=0;exitDx=0;exitDy=0;entryX=1;entryY=0.5;entryDx=0;entryDy=0;endArrow=ERone;endFill=0;startArrow=ERone;startFill=0;" parent="1" source="n6qV_Xt3kzfEs7hYFHmW-179" target="n6qV_Xt3kzfEs7hYFHmW-92" edge="1">
          <mxGeometry relative="1" as="geometry" />
        </mxCell>
        <mxCell id="n6qV_Xt3kzfEs7hYFHmW-179" value="cargo_insurance" style="html=1;overflow=block;blockSpacing=1;swimlane;childLayout=stackLayout;horizontal=1;horizontalStack=0;resizeParent=1;resizeParentMax=0;resizeLast=0;collapsible=0;fontStyle=0;marginBottom=0;swimlaneFillColor=#c3f7c8;startSize=30;whiteSpace=wrap;fontSize=13.3;align=left;spacingLeft=8.4;spacingRight=8.4;spacingTop=2.4;spacing=3.6;strokeColor=#333333;strokeOpacity=100;fillOpacity=100;rounded=1;absoluteArcSize=1;arcSize=7.5;strokeWidth=0.8;fillColor=#a6d2aa;" parent="1" vertex="1">
          <mxGeometry x="2112" y="1706" width="169" height="201" as="geometry" />
        </mxCell>
        <mxCell id="n6qV_Xt3kzfEs7hYFHmW-180" value="Id" style="part=1;resizeHeight=0;strokeColor=none;verticalAlign=top;overflow=hidden;rotatable=0;points=[[0,0.5],[1,0.5]];portConstraint=eastwest;html=1;whiteSpace=wrap;#c3f7c8whiteSpace=wrap;fontSize=13.3;align=left;spacingLeft=8.4;spacingRight=8.4;spacingTop=2.4;fillColor=none;strokeOpacity=100;fillOpacity=100;" parent="n6qV_Xt3kzfEs7hYFHmW-179" vertex="1">
          <mxGeometry y="30" width="169" height="26.25" as="geometry" />
        </mxCell>
        <mxCell id="n6qV_Xt3kzfEs7hYFHmW-181" value="certified_number" style="part=1;resizeHeight=0;strokeColor=none;verticalAlign=top;overflow=hidden;rotatable=0;points=[[0,0.5],[1,0.5]];portConstraint=eastwest;html=1;whiteSpace=wrap;#c3f7c8whiteSpace=wrap;fontSize=13.3;align=left;spacingLeft=8.4;spacingRight=8.4;spacingTop=2.4;fillColor=#000000;opacity=5;" parent="n6qV_Xt3kzfEs7hYFHmW-179" vertex="1">
          <mxGeometry y="56.25" width="169" height="26.25" as="geometry" />
        </mxCell>
        <mxCell id="n6qV_Xt3kzfEs7hYFHmW-182" value="insured_references" style="part=1;resizeHeight=0;strokeColor=none;verticalAlign=top;overflow=hidden;rotatable=0;points=[[0,0.5],[1,0.5]];portConstraint=eastwest;html=1;whiteSpace=wrap;#c3f7c8whiteSpace=wrap;fontSize=13.3;align=left;spacingLeft=8.4;spacingRight=8.4;spacingTop=2.4;fillColor=none;strokeOpacity=100;fillOpacity=100;" parent="n6qV_Xt3kzfEs7hYFHmW-179" vertex="1">
          <mxGeometry y="82.5" width="169" height="26.25" as="geometry" />
        </mxCell>
        <mxCell id="n6qV_Xt3kzfEs7hYFHmW-183" value="date" style="part=1;resizeHeight=0;strokeColor=none;verticalAlign=top;overflow=hidden;rotatable=0;points=[[0,0.5],[1,0.5]];portConstraint=eastwest;html=1;whiteSpace=wrap;#c3f7c8whiteSpace=wrap;fontSize=13.3;align=left;spacingLeft=8.4;spacingRight=8.4;spacingTop=2.4;fillColor=#000000;opacity=5;" parent="n6qV_Xt3kzfEs7hYFHmW-179" vertex="1">
          <mxGeometry y="108.75" width="169" height="26.25" as="geometry" />
        </mxCell>
        <mxCell id="n6qV_Xt3kzfEs7hYFHmW-190" value="sales_value" style="part=1;resizeHeight=0;strokeColor=none;verticalAlign=top;overflow=hidden;rotatable=0;points=[[0,0.5],[1,0.5]];portConstraint=eastwest;html=1;whiteSpace=wrap;#c3f7c8whiteSpace=wrap;fontSize=13.3;align=left;spacingLeft=8.4;spacingRight=8.4;spacingTop=2.4;fillColor=none;strokeOpacity=100;fillOpacity=100;" parent="n6qV_Xt3kzfEs7hYFHmW-179" vertex="1">
          <mxGeometry y="135" width="169" height="22" as="geometry" />
        </mxCell>
        <mxCell id="n6qV_Xt3kzfEs7hYFHmW-191" value="total" style="part=1;resizeHeight=0;strokeColor=none;verticalAlign=top;overflow=hidden;rotatable=0;points=[[0,0.5],[1,0.5]];portConstraint=eastwest;html=1;whiteSpace=wrap;#c3f7c8whiteSpace=wrap;fontSize=13.3;align=left;spacingLeft=8.4;spacingRight=8.4;spacingTop=2.4;fillColor=#000000;opacity=5;" parent="n6qV_Xt3kzfEs7hYFHmW-179" vertex="1">
          <mxGeometry y="157" width="169" as="geometry" />
        </mxCell>
        <mxCell id="n6qV_Xt3kzfEs7hYFHmW-192" value="observations" style="part=1;resizeHeight=0;strokeColor=none;verticalAlign=top;overflow=hidden;rotatable=0;points=[[0,0.5],[1,0.5]];portConstraint=eastwest;html=1;whiteSpace=wrap;#c3f7c8whiteSpace=wrap;fontSize=13.3;align=left;spacingLeft=8.4;spacingRight=8.4;spacingTop=2.4;fillColor=none;strokeOpacity=100;fillOpacity=100;" parent="n6qV_Xt3kzfEs7hYFHmW-179" vertex="1">
          <mxGeometry y="157" width="169" as="geometry" />
        </mxCell>
        <mxCell id="n6qV_Xt3kzfEs7hYFHmW-193" value="month" style="part=1;resizeHeight=0;strokeColor=none;verticalAlign=top;overflow=hidden;rotatable=0;points=[[0,0.5],[1,0.5]];portConstraint=eastwest;html=1;whiteSpace=wrap;#c3f7c8whiteSpace=wrap;fontSize=13.3;align=left;spacingLeft=8.4;spacingRight=8.4;spacingTop=2.4;fillColor=#000000;opacity=5;" parent="n6qV_Xt3kzfEs7hYFHmW-179" vertex="1">
          <mxGeometry y="157" width="169" as="geometry" />
        </mxCell>
        <mxCell id="n6qV_Xt3kzfEs7hYFHmW-194" value="type_insurance" style="part=1;resizeHeight=0;strokeColor=none;verticalAlign=top;overflow=hidden;rotatable=0;points=[[0,0.5],[1,0.5]];portConstraint=eastwest;html=1;whiteSpace=wrap;#c3f7c8whiteSpace=wrap;fontSize=13.3;align=left;spacingLeft=8.4;spacingRight=8.4;spacingTop=2.4;fillColor=none;strokeOpacity=100;fillOpacity=100;" parent="n6qV_Xt3kzfEs7hYFHmW-179" vertex="1">
          <mxGeometry y="157" width="169" as="geometry" />
        </mxCell>
        <mxCell id="n6qV_Xt3kzfEs7hYFHmW-195" value="id_customers" style="part=1;resizeHeight=0;strokeColor=none;verticalAlign=top;overflow=hidden;rotatable=0;points=[[0,0.5],[1,0.5]];portConstraint=eastwest;html=1;whiteSpace=wrap;#c3f7c8whiteSpace=wrap;fontSize=13.3;align=left;spacingLeft=8.4;spacingRight=8.4;spacingTop=2.4;fillColor=#000000;opacity=5;" parent="n6qV_Xt3kzfEs7hYFHmW-179" vertex="1">
          <mxGeometry y="157" width="169" as="geometry" />
        </mxCell>
        <mxCell id="n6qV_Xt3kzfEs7hYFHmW-196" value="id_users" style="part=1;resizeHeight=0;strokeColor=none;verticalAlign=top;overflow=hidden;rotatable=0;points=[[0,0.5],[1,0.5]];portConstraint=eastwest;html=1;whiteSpace=wrap;#c3f7c8whiteSpace=wrap;fontSize=13.3;align=left;spacingLeft=8.4;spacingRight=8.4;spacingTop=2.4;fillColor=none;strokeOpacity=100;fillOpacity=100;" parent="n6qV_Xt3kzfEs7hYFHmW-179" vertex="1">
          <mxGeometry y="157" width="169" as="geometry" />
        </mxCell>
        <mxCell id="n6qV_Xt3kzfEs7hYFHmW-197" value="nro_orde" style="part=1;resizeHeight=0;strokeColor=none;verticalAlign=top;overflow=hidden;rotatable=0;points=[[0,0.5],[1,0.5]];portConstraint=eastwest;html=1;whiteSpace=wrap;#c3f7c8whiteSpace=wrap;fontSize=13.3;align=left;spacingLeft=8.4;spacingRight=8.4;spacingTop=2.4;fillColor=#000000;opacity=5;" parent="n6qV_Xt3kzfEs7hYFHmW-179" vertex="1">
          <mxGeometry y="157" width="169" as="geometry" />
        </mxCell>
        <mxCell id="MXTqZxVAq7oDFnsf_esE-5" value="igv" style="part=1;resizeHeight=0;strokeColor=none;verticalAlign=top;overflow=hidden;rotatable=0;points=[[0,0.5],[1,0.5]];portConstraint=eastwest;html=1;whiteSpace=wrap;#c3f7c8whiteSpace=wrap;fontSize=13.3;align=left;spacingLeft=8.4;spacingRight=8.4;spacingTop=2.4;fillColor=none;strokeOpacity=100;fillOpacity=100;" parent="n6qV_Xt3kzfEs7hYFHmW-179" vertex="1">
          <mxGeometry y="157" width="169" height="22" as="geometry" />
        </mxCell>
        <mxCell id="MXTqZxVAq7oDFnsf_esE-6" value="id_type_insurance" style="part=1;resizeHeight=0;strokeColor=none;verticalAlign=top;overflow=hidden;rotatable=0;points=[[0,0.5],[1,0.5]];portConstraint=eastwest;html=1;whiteSpace=wrap;#c3f7c8whiteSpace=wrap;fontSize=13.3;align=left;spacingLeft=8.4;spacingRight=8.4;spacingTop=2.4;fillColor=none;strokeOpacity=100;fillOpacity=100;" parent="n6qV_Xt3kzfEs7hYFHmW-179" vertex="1">
          <mxGeometry y="179" width="169" height="22" as="geometry" />
        </mxCell>
        <mxCell id="n6qV_Xt3kzfEs7hYFHmW-198" value="" style="html=1;jettySize=18;whiteSpace=wrap;fontSize=13;strokeColor=#333333;strokeOpacity=100;strokeWidth=0.8;rounded=1;arcSize=24;edgeStyle=orthogonalEdgeStyle;startArrow=ERone;startSize=16;endArrow=ERmany;endSize=10;exitX=0.5;exitY=-0.003;exitPerimeter=0;entryX=0.5;entryY=1.001;entryPerimeter=0;lucidId=kr5ig9AeLUt-;" parent="1" source="n6qV_Xt3kzfEs7hYFHmW-125" target="n6qV_Xt3kzfEs7hYFHmW-107" edge="1">
          <mxGeometry width="100" height="100" relative="1" as="geometry">
            <Array as="points" />
          </mxGeometry>
        </mxCell>
        <mxCell id="n6qV_Xt3kzfEs7hYFHmW-199" value="" style="html=1;jettySize=18;whiteSpace=wrap;fontSize=13;strokeColor=#333333;strokeOpacity=100;strokeWidth=0.8;rounded=1;arcSize=24;edgeStyle=orthogonalEdgeStyle;startArrow=ERone;startSize=16;endArrow=ERmany;endSize=10;exitX=-0.002;exitY=0.755;exitPerimeter=0;entryX=0.5;entryY=-0.002;entryPerimeter=0;lucidId=ts5iXU2ol0XE;" parent="1" source="n6qV_Xt3kzfEs7hYFHmW-79" target="n6qV_Xt3kzfEs7hYFHmW-89" edge="1">
          <mxGeometry width="100" height="100" relative="1" as="geometry">
            <Array as="points" />
          </mxGeometry>
        </mxCell>
        <mxCell id="n6qV_Xt3kzfEs7hYFHmW-200" value="" style="html=1;jettySize=18;whiteSpace=wrap;fontSize=13;strokeColor=#333333;strokeOpacity=100;strokeWidth=0.8;rounded=1;arcSize=24;edgeStyle=orthogonalEdgeStyle;startArrow=ERone;startSize=16;endArrow=ERmany;endSize=10;exitX=-0.002;exitY=0.359;exitPerimeter=0;entryX=1.002;entryY=0.556;entryPerimeter=0;lucidId=0s5iALl5RVPH;" parent="1" source="n6qV_Xt3kzfEs7hYFHmW-79" target="n6qV_Xt3kzfEs7hYFHmW-60" edge="1">
          <mxGeometry width="100" height="100" relative="1" as="geometry">
            <Array as="points" />
          </mxGeometry>
        </mxCell>
        <mxCell id="n6qV_Xt3kzfEs7hYFHmW-201" value="" style="html=1;jettySize=18;whiteSpace=wrap;fontSize=13;strokeColor=#333333;strokeOpacity=100;strokeWidth=0.8;rounded=1;arcSize=24;edgeStyle=orthogonalEdgeStyle;startArrow=ERone;startSize=16;endArrow=ERmany;endSize=10;exitX=-0.002;exitY=0.398;exitPerimeter=0;entryX=0.5;entryY=1.002;entryPerimeter=0;lucidId=CM5iU3oL3EpM;" parent="1" source="n6qV_Xt3kzfEs7hYFHmW-2" target="n6qV_Xt3kzfEs7hYFHmW-16" edge="1">
          <mxGeometry width="100" height="100" relative="1" as="geometry">
            <Array as="points" />
          </mxGeometry>
        </mxCell>
        <mxCell id="n6qV_Xt3kzfEs7hYFHmW-202" value="shipper" style="html=1;overflow=block;blockSpacing=1;swimlane;childLayout=stackLayout;horizontal=1;horizontalStack=0;resizeParent=1;resizeParentMax=0;resizeLast=0;collapsible=0;fontStyle=0;marginBottom=0;swimlaneFillColor=#ffdda6;startSize=30;whiteSpace=wrap;fontSize=13.3;align=left;spacingLeft=8.4;spacingRight=8.4;spacingTop=2.4;spacing=3.6;strokeColor=#333333;strokeOpacity=100;fillOpacity=100;rounded=1;absoluteArcSize=1;arcSize=7.5;strokeWidth=0.8;fillColor=#d9bc8d;" parent="1" vertex="1">
          <mxGeometry x="1244" y="15.75" width="169" height="243" as="geometry" />
        </mxCell>
        <mxCell id="n6qV_Xt3kzfEs7hYFHmW-203" value="id" style="part=1;resizeHeight=0;strokeColor=none;verticalAlign=top;overflow=hidden;rotatable=0;points=[[0,0.5],[1,0.5]];portConstraint=eastwest;html=1;whiteSpace=wrap;#ffdda6whiteSpace=wrap;fontSize=13.3;align=left;spacingLeft=8.4;spacingRight=8.4;spacingTop=2.4;fillColor=none;strokeOpacity=100;fillOpacity=100;" parent="n6qV_Xt3kzfEs7hYFHmW-202" vertex="1">
          <mxGeometry y="30" width="169" height="26.25" as="geometry" />
        </mxCell>
        <mxCell id="n6qV_Xt3kzfEs7hYFHmW-204" value="type_id" style="part=1;resizeHeight=0;strokeColor=none;verticalAlign=top;overflow=hidden;rotatable=0;points=[[0,0.5],[1,0.5]];portConstraint=eastwest;html=1;whiteSpace=wrap;#ffdda6whiteSpace=wrap;fontSize=13.3;align=left;spacingLeft=8.4;spacingRight=8.4;spacingTop=2.4;fillColor=#000000;opacity=5;" parent="n6qV_Xt3kzfEs7hYFHmW-202" vertex="1">
          <mxGeometry y="56.25" width="169" height="26.25" as="geometry" />
        </mxCell>
        <mxCell id="n6qV_Xt3kzfEs7hYFHmW-205" value="number_id" style="part=1;resizeHeight=0;strokeColor=none;verticalAlign=top;overflow=hidden;rotatable=0;points=[[0,0.5],[1,0.5]];portConstraint=eastwest;html=1;whiteSpace=wrap;#ffdda6whiteSpace=wrap;fontSize=13.3;align=left;spacingLeft=8.4;spacingRight=8.4;spacingTop=2.4;fillColor=none;strokeOpacity=100;fillOpacity=100;" parent="n6qV_Xt3kzfEs7hYFHmW-202" vertex="1">
          <mxGeometry y="82.5" width="169" height="26.25" as="geometry" />
        </mxCell>
        <mxCell id="n6qV_Xt3kzfEs7hYFHmW-206" value="name_businessname" style="part=1;resizeHeight=0;strokeColor=none;verticalAlign=top;overflow=hidden;rotatable=0;points=[[0,0.5],[1,0.5]];portConstraint=eastwest;html=1;whiteSpace=wrap;#ffdda6whiteSpace=wrap;fontSize=13.3;align=left;spacingLeft=8.4;spacingRight=8.4;spacingTop=2.4;fillColor=#000000;opacity=5;" parent="n6qV_Xt3kzfEs7hYFHmW-202" vertex="1">
          <mxGeometry y="108.75" width="169" height="26.25" as="geometry" />
        </mxCell>
        <mxCell id="n6qV_Xt3kzfEs7hYFHmW-207" value="addres" style="part=1;resizeHeight=0;strokeColor=none;verticalAlign=top;overflow=hidden;rotatable=0;points=[[0,0.5],[1,0.5]];portConstraint=eastwest;html=1;whiteSpace=wrap;#ffdda6whiteSpace=wrap;fontSize=13.3;align=left;spacingLeft=8.4;spacingRight=8.4;spacingTop=2.4;fillColor=none;strokeOpacity=100;fillOpacity=100;" parent="n6qV_Xt3kzfEs7hYFHmW-202" vertex="1">
          <mxGeometry y="135" width="169" height="28" as="geometry" />
        </mxCell>
        <mxCell id="n6qV_Xt3kzfEs7hYFHmW-208" value="contact_name" style="part=1;resizeHeight=0;strokeColor=none;verticalAlign=top;overflow=hidden;rotatable=0;points=[[0,0.5],[1,0.5]];portConstraint=eastwest;html=1;whiteSpace=wrap;#ffdda6whiteSpace=wrap;fontSize=13.3;align=left;spacingLeft=8.4;spacingRight=8.4;spacingTop=2.4;fillColor=#000000;opacity=5;" parent="n6qV_Xt3kzfEs7hYFHmW-202" vertex="1">
          <mxGeometry y="163" width="169" height="24" as="geometry" />
        </mxCell>
        <mxCell id="n6qV_Xt3kzfEs7hYFHmW-209" value="contact_number" style="part=1;resizeHeight=0;strokeColor=none;verticalAlign=top;overflow=hidden;rotatable=0;points=[[0,0.5],[1,0.5]];portConstraint=eastwest;html=1;whiteSpace=wrap;#ffdda6whiteSpace=wrap;fontSize=13.3;align=left;spacingLeft=8.4;spacingRight=8.4;spacingTop=2.4;fillColor=none;strokeOpacity=100;fillOpacity=100;" parent="n6qV_Xt3kzfEs7hYFHmW-202" vertex="1">
          <mxGeometry y="187" width="169" height="25" as="geometry" />
        </mxCell>
        <mxCell id="n6qV_Xt3kzfEs7hYFHmW-210" value="contact_email" style="part=1;resizeHeight=0;strokeColor=none;verticalAlign=top;overflow=hidden;rotatable=0;points=[[0,0.5],[1,0.5]];portConstraint=eastwest;html=1;whiteSpace=wrap;#ffdda6whiteSpace=wrap;fontSize=13.3;align=left;spacingLeft=8.4;spacingRight=8.4;spacingTop=2.4;fillColor=#000000;opacity=5;" parent="n6qV_Xt3kzfEs7hYFHmW-202" vertex="1">
          <mxGeometry y="212" width="169" height="31" as="geometry" />
        </mxCell>
        <mxCell id="n6qV_Xt3kzfEs7hYFHmW-211" value="" style="html=1;jettySize=18;whiteSpace=wrap;fontSize=13;strokeColor=#333333;strokeOpacity=100;strokeWidth=0.8;rounded=1;arcSize=24;edgeStyle=orthogonalEdgeStyle;startArrow=ERone;startSize=16;endArrow=ERmany;endSize=10;exitX=-0.002;exitY=0.508;exitPerimeter=0;entryX=1;entryY=0.038;entryPerimeter=0;lucidId=Y78kH3LbvQt_;" parent="1" source="n6qV_Xt3kzfEs7hYFHmW-202" target="n6qV_Xt3kzfEs7hYFHmW-129" edge="1">
          <mxGeometry width="100" height="100" relative="1" as="geometry">
            <Array as="points" />
          </mxGeometry>
        </mxCell>
        <mxCell id="n6qV_Xt3kzfEs7hYFHmW-212" value="type_service" style="html=1;overflow=block;blockSpacing=1;swimlane;childLayout=stackLayout;horizontal=1;horizontalStack=0;resizeParent=1;resizeParentMax=0;resizeLast=0;collapsible=0;fontStyle=0;marginBottom=0;swimlaneFillColor=#ffdda6;startSize=30;whiteSpace=wrap;fontSize=13.3;align=left;spacingLeft=8.4;spacingRight=8.4;spacingTop=2.4;spacing=3.6;strokeColor=#333333;strokeOpacity=100;fillOpacity=100;rounded=1;absoluteArcSize=1;arcSize=7.5;strokeWidth=0.8;fillColor=#d9bc8d;" parent="1" vertex="1">
          <mxGeometry x="2112" y="199" width="169" height="82.5" as="geometry" />
        </mxCell>
        <mxCell id="n6qV_Xt3kzfEs7hYFHmW-213" value="Id" style="part=1;resizeHeight=0;strokeColor=none;verticalAlign=top;overflow=hidden;rotatable=0;points=[[0,0.5],[1,0.5]];portConstraint=eastwest;html=1;whiteSpace=wrap;#ffdda6whiteSpace=wrap;fontSize=13.3;align=left;spacingLeft=8.4;spacingRight=8.4;spacingTop=2.4;fillColor=none;strokeOpacity=100;fillOpacity=100;" parent="n6qV_Xt3kzfEs7hYFHmW-212" vertex="1">
          <mxGeometry y="30" width="169" height="26.25" as="geometry" />
        </mxCell>
        <mxCell id="n6qV_Xt3kzfEs7hYFHmW-214" value="name" style="part=1;resizeHeight=0;strokeColor=none;verticalAlign=top;overflow=hidden;rotatable=0;points=[[0,0.5],[1,0.5]];portConstraint=eastwest;html=1;whiteSpace=wrap;#ffdda6whiteSpace=wrap;fontSize=13.3;align=left;spacingLeft=8.4;spacingRight=8.4;spacingTop=2.4;fillColor=#000000;opacity=5;" parent="n6qV_Xt3kzfEs7hYFHmW-212" vertex="1">
          <mxGeometry y="56.25" width="169" height="26.25" as="geometry" />
        </mxCell>
        <mxCell id="n6qV_Xt3kzfEs7hYFHmW-215" value="routing_typeservice" style="html=1;overflow=block;blockSpacing=1;swimlane;childLayout=stackLayout;horizontal=1;horizontalStack=0;resizeParent=1;resizeParentMax=0;resizeLast=0;collapsible=0;fontStyle=0;marginBottom=0;swimlaneFillColor=#ffdda6;startSize=30;whiteSpace=wrap;fontSize=13.3;align=left;spacingLeft=8.4;spacingRight=8.4;spacingTop=2.4;spacing=3.6;strokeColor=#333333;strokeOpacity=100;fillOpacity=100;rounded=1;absoluteArcSize=1;arcSize=7.5;strokeWidth=0.8;fillColor=#d9bc8d;" parent="1" vertex="1">
          <mxGeometry x="1614" y="265" width="169" height="108.75" as="geometry" />
        </mxCell>
        <mxCell id="n6qV_Xt3kzfEs7hYFHmW-216" value="Id" style="part=1;resizeHeight=0;strokeColor=none;verticalAlign=top;overflow=hidden;rotatable=0;points=[[0,0.5],[1,0.5]];portConstraint=eastwest;html=1;whiteSpace=wrap;#ffdda6whiteSpace=wrap;fontSize=13.3;align=left;spacingLeft=8.4;spacingRight=8.4;spacingTop=2.4;fillColor=none;strokeOpacity=100;fillOpacity=100;" parent="n6qV_Xt3kzfEs7hYFHmW-215" vertex="1">
          <mxGeometry y="30" width="169" height="26.25" as="geometry" />
        </mxCell>
        <mxCell id="n6qV_Xt3kzfEs7hYFHmW-217" value="id_routing" style="part=1;resizeHeight=0;strokeColor=none;verticalAlign=top;overflow=hidden;rotatable=0;points=[[0,0.5],[1,0.5]];portConstraint=eastwest;html=1;whiteSpace=wrap;#ffdda6whiteSpace=wrap;fontSize=13.3;align=left;spacingLeft=8.4;spacingRight=8.4;spacingTop=2.4;fillColor=#000000;opacity=5;" parent="n6qV_Xt3kzfEs7hYFHmW-215" vertex="1">
          <mxGeometry y="56.25" width="169" height="26.25" as="geometry" />
        </mxCell>
        <mxCell id="n6qV_Xt3kzfEs7hYFHmW-218" value="id_type_service" style="part=1;resizeHeight=0;strokeColor=none;verticalAlign=top;overflow=hidden;rotatable=0;points=[[0,0.5],[1,0.5]];portConstraint=eastwest;html=1;whiteSpace=wrap;#ffdda6whiteSpace=wrap;fontSize=13.3;align=left;spacingLeft=8.4;spacingRight=8.4;spacingTop=2.4;fillColor=none;strokeOpacity=100;fillOpacity=100;" parent="n6qV_Xt3kzfEs7hYFHmW-215" vertex="1">
          <mxGeometry y="82.5" width="169" height="26.25" as="geometry" />
        </mxCell>
        <mxCell id="n6qV_Xt3kzfEs7hYFHmW-219" value="" style="html=1;jettySize=18;whiteSpace=wrap;fontSize=13;strokeColor=#333333;strokeOpacity=100;strokeWidth=0.8;rounded=1;arcSize=24;edgeStyle=orthogonalEdgeStyle;startArrow=ERone;startSize=16;endArrow=ERmany;endSize=10;exitX=1.002;exitY=0.175;exitPerimeter=0;entryX=-0.002;entryY=0.397;entryPerimeter=0;lucidId=rwMlvLAYpfzt;" parent="1" source="n6qV_Xt3kzfEs7hYFHmW-129" target="n6qV_Xt3kzfEs7hYFHmW-215" edge="1">
          <mxGeometry width="100" height="100" relative="1" as="geometry">
            <Array as="points" />
          </mxGeometry>
        </mxCell>
        <mxCell id="n6qV_Xt3kzfEs7hYFHmW-220" value="" style="html=1;jettySize=18;whiteSpace=wrap;fontSize=13;strokeColor=#333333;strokeOpacity=100;strokeWidth=0.8;rounded=1;arcSize=24;edgeStyle=orthogonalEdgeStyle;startArrow=ERone;startSize=16;endArrow=ERmany;endSize=10;exitX=-0.002;exitY=0.523;exitPerimeter=0;entryX=1.002;entryY=0.397;entryPerimeter=0;lucidId=GwMljFSzv__6;" parent="1" source="n6qV_Xt3kzfEs7hYFHmW-212" target="n6qV_Xt3kzfEs7hYFHmW-215" edge="1">
          <mxGeometry width="100" height="100" relative="1" as="geometry">
            <Array as="points" />
          </mxGeometry>
        </mxCell>
        <mxCell id="n6qV_Xt3kzfEs7hYFHmW-221" value="concepts" style="html=1;overflow=block;blockSpacing=1;swimlane;childLayout=stackLayout;horizontal=1;horizontalStack=0;resizeParent=1;resizeParentMax=0;resizeLast=0;collapsible=0;fontStyle=0;marginBottom=0;swimlaneFillColor=#ffdda6;startSize=30;whiteSpace=wrap;fontSize=13.3;align=left;spacingLeft=8.4;spacingRight=8.4;spacingTop=2.4;spacing=3.6;strokeColor=#333333;strokeOpacity=100;fillOpacity=100;rounded=1;absoluteArcSize=1;arcSize=7.5;strokeWidth=0.8;fillColor=#d9bc8d;" parent="1" vertex="1">
          <mxGeometry x="302" y="1874" width="169" height="135" as="geometry" />
        </mxCell>
        <mxCell id="n6qV_Xt3kzfEs7hYFHmW-222" value="Id" style="part=1;resizeHeight=0;strokeColor=none;align=left;verticalAlign=top;overflow=hidden;rotatable=0;points=[[0,0.5],[1,0.5]];portConstraint=eastwest;html=1;whiteSpace=wrap;#ffdda6whiteSpace=wrap;fontSize=13.3;spacingLeft=8.4;spacingRight=8.4;spacingTop=2.4;fillColor=none;strokeOpacity=100;fillOpacity=100;" parent="n6qV_Xt3kzfEs7hYFHmW-221" vertex="1">
          <mxGeometry y="30" width="169" height="26.25" as="geometry" />
        </mxCell>
        <mxCell id="n6qV_Xt3kzfEs7hYFHmW-223" value="name" style="part=1;resizeHeight=0;strokeColor=none;align=left;verticalAlign=top;overflow=hidden;rotatable=0;points=[[0,0.5],[1,0.5]];portConstraint=eastwest;html=1;whiteSpace=wrap;#ffdda6whiteSpace=wrap;fontSize=13.3;spacingLeft=8.4;spacingRight=8.4;spacingTop=2.4;fillColor=#000000;opacity=5;" parent="n6qV_Xt3kzfEs7hYFHmW-221" vertex="1">
          <mxGeometry y="56.25" width="169" height="26.25" as="geometry" />
        </mxCell>
        <mxCell id="n6qV_Xt3kzfEs7hYFHmW-224" value="id_type_service" style="part=1;resizeHeight=0;strokeColor=none;align=left;verticalAlign=top;overflow=hidden;rotatable=0;points=[[0,0.5],[1,0.5]];portConstraint=eastwest;html=1;whiteSpace=wrap;#ffdda6whiteSpace=wrap;fontSize=13.3;spacingLeft=8.4;spacingRight=8.4;spacingTop=2.4;fillColor=none;strokeOpacity=100;fillOpacity=100;" parent="n6qV_Xt3kzfEs7hYFHmW-221" vertex="1">
          <mxGeometry y="82.5" width="169" height="26.25" as="geometry" />
        </mxCell>
        <mxCell id="n6qV_Xt3kzfEs7hYFHmW-225" value="id_type_shipment" style="part=1;resizeHeight=0;strokeColor=none;align=left;verticalAlign=top;overflow=hidden;rotatable=0;points=[[0,0.5],[1,0.5]];portConstraint=eastwest;html=1;whiteSpace=wrap;#ffdda6whiteSpace=wrap;fontSize=13.3;spacingLeft=8.4;spacingRight=8.4;spacingTop=2.4;fillColor=#000000;opacity=5;" parent="n6qV_Xt3kzfEs7hYFHmW-221" vertex="1">
          <mxGeometry y="108.75" width="169" height="26.25" as="geometry" />
        </mxCell>
        <mxCell id="n6qV_Xt3kzfEs7hYFHmW-226" value="cocnepts_customs" style="html=1;overflow=block;blockSpacing=1;swimlane;childLayout=stackLayout;horizontal=1;horizontalStack=0;resizeParent=1;resizeParentMax=0;resizeLast=0;collapsible=0;fontStyle=0;marginBottom=0;swimlaneFillColor=#ffdda6;startSize=30;whiteSpace=wrap;fontSize=13.3;align=left;spacingLeft=8.4;spacingRight=8.4;spacingTop=2.4;spacing=3.6;strokeColor=#333333;strokeOpacity=100;fillOpacity=100;rounded=1;absoluteArcSize=1;arcSize=7.5;strokeWidth=0.8;fillColor=#d9bc8d;" parent="1" vertex="1">
          <mxGeometry x="694" y="1852" width="169" height="135" as="geometry" />
        </mxCell>
        <mxCell id="n6qV_Xt3kzfEs7hYFHmW-227" value="Id" style="part=1;resizeHeight=0;strokeColor=none;align=left;verticalAlign=top;overflow=hidden;rotatable=0;points=[[0,0.5],[1,0.5]];portConstraint=eastwest;html=1;whiteSpace=wrap;#ffdda6whiteSpace=wrap;fontSize=13.3;spacingLeft=8.4;spacingRight=8.4;spacingTop=2.4;fillColor=none;strokeOpacity=100;fillOpacity=100;" parent="n6qV_Xt3kzfEs7hYFHmW-226" vertex="1">
          <mxGeometry y="30" width="169" height="26.25" as="geometry" />
        </mxCell>
        <mxCell id="n6qV_Xt3kzfEs7hYFHmW-228" value="concepts_id" style="part=1;resizeHeight=0;strokeColor=none;align=left;verticalAlign=top;overflow=hidden;rotatable=0;points=[[0,0.5],[1,0.5]];portConstraint=eastwest;html=1;whiteSpace=wrap;#ffdda6whiteSpace=wrap;fontSize=13.3;spacingLeft=8.4;spacingRight=8.4;spacingTop=2.4;fillColor=#000000;opacity=5;" parent="n6qV_Xt3kzfEs7hYFHmW-226" vertex="1">
          <mxGeometry y="56.25" width="169" height="26.25" as="geometry" />
        </mxCell>
        <mxCell id="n6qV_Xt3kzfEs7hYFHmW-229" value="id_customs" style="part=1;resizeHeight=0;strokeColor=none;align=left;verticalAlign=top;overflow=hidden;rotatable=0;points=[[0,0.5],[1,0.5]];portConstraint=eastwest;html=1;whiteSpace=wrap;#ffdda6whiteSpace=wrap;fontSize=13.3;spacingLeft=8.4;spacingRight=8.4;spacingTop=2.4;fillColor=none;strokeOpacity=100;fillOpacity=100;" parent="n6qV_Xt3kzfEs7hYFHmW-226" vertex="1">
          <mxGeometry y="82.5" width="169" height="26.25" as="geometry" />
        </mxCell>
        <mxCell id="n6qV_Xt3kzfEs7hYFHmW-230" value="value_concept" style="part=1;resizeHeight=0;strokeColor=none;align=left;verticalAlign=top;overflow=hidden;rotatable=0;points=[[0,0.5],[1,0.5]];portConstraint=eastwest;html=1;whiteSpace=wrap;#ffdda6whiteSpace=wrap;fontSize=13.3;spacingLeft=8.4;spacingRight=8.4;spacingTop=2.4;fillColor=#000000;opacity=5;" parent="n6qV_Xt3kzfEs7hYFHmW-226" vertex="1">
          <mxGeometry y="108.75" width="169" height="26.25" as="geometry" />
        </mxCell>
        <mxCell id="n6qV_Xt3kzfEs7hYFHmW-231" value="" style="html=1;jettySize=18;whiteSpace=wrap;fontSize=13;strokeColor=#333333;strokeOpacity=100;strokeWidth=0.8;rounded=1;arcSize=24;edgeStyle=orthogonalEdgeStyle;startArrow=ERone;startSize=16;endArrow=ERmany;endSize=10;exitX=1.002;exitY=0.319;exitPerimeter=0;entryX=-0.002;entryY=0.514;entryPerimeter=0;lucidId=ry6o7~wOK~Ma;" parent="1" source="n6qV_Xt3kzfEs7hYFHmW-221" target="n6qV_Xt3kzfEs7hYFHmW-226" edge="1">
          <mxGeometry width="100" height="100" relative="1" as="geometry">
            <Array as="points" />
          </mxGeometry>
        </mxCell>
        <mxCell id="n6qV_Xt3kzfEs7hYFHmW-232" value="" style="html=1;jettySize=18;whiteSpace=wrap;fontSize=13;strokeColor=#333333;strokeOpacity=100;strokeWidth=0.8;rounded=1;arcSize=24;edgeStyle=orthogonalEdgeStyle;startArrow=ERone;startSize=16;endArrow=ERmany;endSize=10;exitX=0.5;exitY=1.001;exitPerimeter=0;entryX=1.002;entryY=0.319;entryPerimeter=0;lucidId=vy6oj5s6Skj1;" parent="1" source="n6qV_Xt3kzfEs7hYFHmW-28" target="n6qV_Xt3kzfEs7hYFHmW-226" edge="1">
          <mxGeometry width="100" height="100" relative="1" as="geometry">
            <Array as="points" />
          </mxGeometry>
        </mxCell>
        <mxCell id="n6qV_Xt3kzfEs7hYFHmW-233" value="" style="html=1;jettySize=18;whiteSpace=wrap;fontSize=13;strokeColor=#333333;strokeOpacity=100;strokeWidth=0.8;rounded=1;arcSize=24;edgeStyle=orthogonalEdgeStyle;startArrow=ERone;startSize=16;endArrow=ERmany;endSize=10;exitX=1.002;exitY=0.523;exitPerimeter=0;entryX=0.5;entryY=1.003;entryPerimeter=0;lucidId=f-6oW.qxj9~e;" parent="1" source="n6qV_Xt3kzfEs7hYFHmW-212" target="n6qV_Xt3kzfEs7hYFHmW-221" edge="1">
          <mxGeometry width="100" height="100" relative="1" as="geometry">
            <Array as="points">
              <mxPoint x="2810" y="338" />
              <mxPoint x="2810" y="2260" />
              <mxPoint x="386" y="2260" />
            </Array>
          </mxGeometry>
        </mxCell>
        <mxCell id="n6qV_Xt3kzfEs7hYFHmW-234" value="" style="html=1;jettySize=18;whiteSpace=wrap;fontSize=13;strokeColor=#333333;strokeOpacity=100;strokeWidth=0.8;rounded=1;arcSize=24;edgeStyle=orthogonalEdgeStyle;startArrow=ERone;startSize=16;endArrow=ERmany;endSize=10;exitX=0.5;exitY=1.003;exitPerimeter=0;entryX=0.5;entryY=-0.003;entryPerimeter=0;lucidId=xk7o6rKaPXDx;" parent="1" source="n6qV_Xt3kzfEs7hYFHmW-52" target="n6qV_Xt3kzfEs7hYFHmW-221" edge="1">
          <mxGeometry width="100" height="100" relative="1" as="geometry">
            <Array as="points">
              <mxPoint x="1530" y="1086" />
              <mxPoint x="863" y="1086" />
              <mxPoint x="863" y="1735" />
              <mxPoint x="387" y="1735" />
            </Array>
          </mxGeometry>
        </mxCell>
        <mxCell id="n6qV_Xt3kzfEs7hYFHmW-235" value="cocnepts_freight" style="html=1;overflow=block;blockSpacing=1;swimlane;childLayout=stackLayout;horizontal=1;horizontalStack=0;resizeParent=1;resizeParentMax=0;resizeLast=0;collapsible=0;fontStyle=0;marginBottom=0;swimlaneFillColor=#ffdda6;startSize=30;whiteSpace=wrap;fontSize=13.3;align=left;spacingLeft=8.4;spacingRight=8.4;spacingTop=2.4;spacing=3.6;strokeColor=#333333;strokeOpacity=100;fillOpacity=100;rounded=1;absoluteArcSize=1;arcSize=7.5;strokeWidth=0.8;fillColor=#d9bc8d;" parent="1" vertex="1">
          <mxGeometry x="1085" y="1971" width="169" height="135" as="geometry" />
        </mxCell>
        <mxCell id="n6qV_Xt3kzfEs7hYFHmW-236" value="Id" style="part=1;resizeHeight=0;strokeColor=none;align=left;verticalAlign=top;overflow=hidden;rotatable=0;points=[[0,0.5],[1,0.5]];portConstraint=eastwest;html=1;whiteSpace=wrap;#ffdda6whiteSpace=wrap;fontSize=13.3;spacingLeft=8.4;spacingRight=8.4;spacingTop=2.4;fillColor=none;strokeOpacity=100;fillOpacity=100;" parent="n6qV_Xt3kzfEs7hYFHmW-235" vertex="1">
          <mxGeometry y="30" width="169" height="26.25" as="geometry" />
        </mxCell>
        <mxCell id="n6qV_Xt3kzfEs7hYFHmW-237" value="concepts_id" style="part=1;resizeHeight=0;strokeColor=none;align=left;verticalAlign=top;overflow=hidden;rotatable=0;points=[[0,0.5],[1,0.5]];portConstraint=eastwest;html=1;whiteSpace=wrap;#ffdda6whiteSpace=wrap;fontSize=13.3;spacingLeft=8.4;spacingRight=8.4;spacingTop=2.4;fillColor=#000000;opacity=5;" parent="n6qV_Xt3kzfEs7hYFHmW-235" vertex="1">
          <mxGeometry y="56.25" width="169" height="26.25" as="geometry" />
        </mxCell>
        <mxCell id="n6qV_Xt3kzfEs7hYFHmW-238" value="id_customs" style="part=1;resizeHeight=0;strokeColor=none;align=left;verticalAlign=top;overflow=hidden;rotatable=0;points=[[0,0.5],[1,0.5]];portConstraint=eastwest;html=1;whiteSpace=wrap;#ffdda6whiteSpace=wrap;fontSize=13.3;spacingLeft=8.4;spacingRight=8.4;spacingTop=2.4;fillColor=none;strokeOpacity=100;fillOpacity=100;" parent="n6qV_Xt3kzfEs7hYFHmW-235" vertex="1">
          <mxGeometry y="82.5" width="169" height="26.25" as="geometry" />
        </mxCell>
        <mxCell id="n6qV_Xt3kzfEs7hYFHmW-239" value="value_concept" style="part=1;resizeHeight=0;strokeColor=none;align=left;verticalAlign=top;overflow=hidden;rotatable=0;points=[[0,0.5],[1,0.5]];portConstraint=eastwest;html=1;whiteSpace=wrap;#ffdda6whiteSpace=wrap;fontSize=13.3;spacingLeft=8.4;spacingRight=8.4;spacingTop=2.4;fillColor=#000000;opacity=5;" parent="n6qV_Xt3kzfEs7hYFHmW-235" vertex="1">
          <mxGeometry y="108.75" width="169" height="26.25" as="geometry" />
        </mxCell>
        <mxCell id="n6qV_Xt3kzfEs7hYFHmW-240" style="edgeStyle=orthogonalEdgeStyle;rounded=1;orthogonalLoop=1;jettySize=auto;html=1;exitX=1;exitY=0.5;exitDx=0;exitDy=0;entryX=0;entryY=0.5;entryDx=0;entryDy=0;endArrow=ERmany;endFill=0;startArrow=ERone;startFill=0;strokeColor=#333333;strokeWidth=0.8;align=center;verticalAlign=middle;arcSize=24;fontFamily=Helvetica;fontSize=13;fontColor=default;labelBackgroundColor=default;startSize=16;endSize=10;" parent="1" source="n6qV_Xt3kzfEs7hYFHmW-224" target="n6qV_Xt3kzfEs7hYFHmW-238" edge="1">
          <mxGeometry relative="1" as="geometry">
            <Array as="points">
              <mxPoint x="497" y="1970" />
              <mxPoint x="497" y="2061" />
              <mxPoint x="784" y="2061" />
              <mxPoint x="784" y="2057" />
            </Array>
          </mxGeometry>
        </mxCell>
        <mxCell id="n6qV_Xt3kzfEs7hYFHmW-241" style="edgeStyle=orthogonalEdgeStyle;rounded=1;orthogonalLoop=1;jettySize=auto;html=1;entryX=0.988;entryY=0.09;entryDx=0;entryDy=0;entryPerimeter=0;strokeColor=#333333;strokeWidth=0.8;align=center;verticalAlign=middle;arcSize=24;fontFamily=Helvetica;fontSize=13;fontColor=default;labelBackgroundColor=default;startArrow=ERone;startSize=16;endArrow=ERmany;endSize=10;" parent="1" source="n6qV_Xt3kzfEs7hYFHmW-97" target="n6qV_Xt3kzfEs7hYFHmW-238" edge="1">
          <mxGeometry relative="1" as="geometry" />
        </mxCell>
        <mxCell id="X1TgRnpZAQ3NQ5CsBxn8-1" style="edgeStyle=orthogonalEdgeStyle;rounded=0;orthogonalLoop=1;jettySize=auto;html=1;entryX=0.003;entryY=0.914;entryDx=0;entryDy=0;entryPerimeter=0;startArrow=baseDash;startFill=0;endArrow=baseDash;endFill=0;" parent="1" source="n6qV_Xt3kzfEs7hYFHmW-56" target="n6qV_Xt3kzfEs7hYFHmW-33" edge="1">
          <mxGeometry relative="1" as="geometry" />
        </mxCell>
        <mxCell id="n6qV_Xt3kzfEs7hYFHmW-60" value="Transport" style="html=1;overflow=block;blockSpacing=1;swimlane;childLayout=stackLayout;horizontal=1;horizontalStack=0;resizeParent=1;resizeParentMax=0;resizeLast=0;collapsible=0;fontStyle=0;marginBottom=0;swimlaneFillColor=#c3f7c8;startSize=30;whiteSpace=wrap;fontSize=13.3;align=left;spacingLeft=8.4;spacingRight=8.4;spacingTop=2.4;spacing=3.6;strokeColor=#333333;strokeOpacity=100;fillOpacity=100;rounded=1;absoluteArcSize=1;arcSize=7.5;strokeWidth=0.8;fillColor=#a6d2aa;" parent="1" vertex="1">
          <mxGeometry x="2174" y="622" width="169" height="437.5" as="geometry" />
        </mxCell>
        <mxCell id="n6qV_Xt3kzfEs7hYFHmW-64" value="id" style="part=1;resizeHeight=0;strokeColor=none;align=left;verticalAlign=top;overflow=hidden;rotatable=0;points=[[0,0.5],[1,0.5]];portConstraint=eastwest;html=1;whiteSpace=wrap;#c3f7c8whiteSpace=wrap;fontSize=13.3;spacingLeft=8.4;spacingRight=8.4;spacingTop=2.4;fillColor=#000000;opacity=5;" parent="n6qV_Xt3kzfEs7hYFHmW-60" vertex="1">
          <mxGeometry y="30" width="169" height="26.25" as="geometry" />
        </mxCell>
        <mxCell id="n6qV_Xt3kzfEs7hYFHmW-61" value="nro_orden" style="part=1;resizeHeight=0;strokeColor=none;align=left;verticalAlign=top;overflow=hidden;rotatable=0;points=[[0,0.5],[1,0.5]];portConstraint=eastwest;html=1;whiteSpace=wrap;#c3f7c8whiteSpace=wrap;fontSize=13.3;spacingLeft=8.4;spacingRight=8.4;spacingTop=2.4;fillColor=none;strokeOpacity=100;fillOpacity=100;" parent="n6qV_Xt3kzfEs7hYFHmW-60" vertex="1">
          <mxGeometry y="56.25" width="169" height="26.25" as="geometry" />
        </mxCell>
        <mxCell id="n6qV_Xt3kzfEs7hYFHmW-62" value="date" style="part=1;resizeHeight=0;strokeColor=none;align=left;verticalAlign=top;overflow=hidden;rotatable=0;points=[[0,0.5],[1,0.5]];portConstraint=eastwest;html=1;whiteSpace=wrap;#c3f7c8whiteSpace=wrap;fontSize=13.3;spacingLeft=8.4;spacingRight=8.4;spacingTop=2.4;fillColor=#000000;opacity=5;" parent="n6qV_Xt3kzfEs7hYFHmW-60" vertex="1">
          <mxGeometry y="82.5" width="169" height="26.25" as="geometry" />
        </mxCell>
        <mxCell id="n6qV_Xt3kzfEs7hYFHmW-63" value="invoice_number" style="part=1;resizeHeight=0;strokeColor=none;align=left;verticalAlign=top;overflow=hidden;rotatable=0;points=[[0,0.5],[1,0.5]];portConstraint=eastwest;html=1;whiteSpace=wrap;#c3f7c8whiteSpace=wrap;fontSize=13.3;spacingLeft=8.4;spacingRight=8.4;spacingTop=2.4;fillColor=none;strokeOpacity=100;fillOpacity=100;" parent="n6qV_Xt3kzfEs7hYFHmW-60" vertex="1">
          <mxGeometry y="108.75" width="169" height="26.25" as="geometry" />
        </mxCell>
        <mxCell id="n6qV_Xt3kzfEs7hYFHmW-65" value="nro_dua" style="part=1;resizeHeight=0;strokeColor=none;align=left;verticalAlign=top;overflow=hidden;rotatable=0;points=[[0,0.5],[1,0.5]];portConstraint=eastwest;html=1;whiteSpace=wrap;#c3f7c8whiteSpace=wrap;fontSize=13.3;spacingLeft=8.4;spacingRight=8.4;spacingTop=2.4;fillColor=none;strokeOpacity=100;fillOpacity=100;" parent="n6qV_Xt3kzfEs7hYFHmW-60" vertex="1">
          <mxGeometry y="135" width="169" height="26.25" as="geometry" />
        </mxCell>
        <mxCell id="n6qV_Xt3kzfEs7hYFHmW-66" value="address" style="part=1;resizeHeight=0;strokeColor=none;align=left;verticalAlign=top;overflow=hidden;rotatable=0;points=[[0,0.5],[1,0.5]];portConstraint=eastwest;html=1;whiteSpace=wrap;#c3f7c8whiteSpace=wrap;fontSize=13.3;spacingLeft=8.4;spacingRight=8.4;spacingTop=2.4;fillColor=#000000;opacity=5;" parent="n6qV_Xt3kzfEs7hYFHmW-60" vertex="1">
          <mxGeometry y="161.25" width="169" height="26.25" as="geometry" />
        </mxCell>
        <mxCell id="n6qV_Xt3kzfEs7hYFHmW-67" value="tax_base" style="part=1;resizeHeight=0;strokeColor=none;align=left;verticalAlign=top;overflow=hidden;rotatable=0;points=[[0,0.5],[1,0.5]];portConstraint=eastwest;html=1;whiteSpace=wrap;#c3f7c8whiteSpace=wrap;fontSize=13.3;spacingLeft=8.4;spacingRight=8.4;spacingTop=2.4;fillColor=none;strokeOpacity=100;fillOpacity=100;" parent="n6qV_Xt3kzfEs7hYFHmW-60" vertex="1">
          <mxGeometry y="187.5" width="169" height="27.5" as="geometry" />
        </mxCell>
        <mxCell id="n6qV_Xt3kzfEs7hYFHmW-68" value="igv" style="part=1;resizeHeight=0;strokeColor=none;align=left;verticalAlign=top;overflow=hidden;rotatable=0;points=[[0,0.5],[1,0.5]];portConstraint=eastwest;html=1;whiteSpace=wrap;#c3f7c8whiteSpace=wrap;fontSize=13.3;spacingLeft=8.4;spacingRight=8.4;spacingTop=2.4;fillColor=#000000;opacity=5;" parent="n6qV_Xt3kzfEs7hYFHmW-60" vertex="1">
          <mxGeometry y="215" width="169" height="29" as="geometry" />
        </mxCell>
        <mxCell id="n6qV_Xt3kzfEs7hYFHmW-69" value="total" style="part=1;resizeHeight=0;strokeColor=none;align=left;verticalAlign=top;overflow=hidden;rotatable=0;points=[[0,0.5],[1,0.5]];portConstraint=eastwest;html=1;whiteSpace=wrap;#c3f7c8whiteSpace=wrap;fontSize=13.3;spacingLeft=8.4;spacingRight=8.4;spacingTop=2.4;fillColor=none;strokeOpacity=100;fillOpacity=100;" parent="n6qV_Xt3kzfEs7hYFHmW-60" vertex="1">
          <mxGeometry y="244" width="169" height="30" as="geometry" />
        </mxCell>
        <mxCell id="n6qV_Xt3kzfEs7hYFHmW-70" value="state" style="part=1;resizeHeight=0;strokeColor=none;align=left;verticalAlign=top;overflow=hidden;rotatable=0;points=[[0,0.5],[1,0.5]];portConstraint=eastwest;html=1;whiteSpace=wrap;#c3f7c8whiteSpace=wrap;fontSize=13.3;spacingLeft=8.4;spacingRight=8.4;spacingTop=2.4;fillColor=#000000;opacity=5;" parent="n6qV_Xt3kzfEs7hYFHmW-60" vertex="1">
          <mxGeometry y="274" width="169" height="25" as="geometry" />
        </mxCell>
        <mxCell id="n6qV_Xt3kzfEs7hYFHmW-72" value="weight" style="part=1;resizeHeight=0;strokeColor=none;align=left;verticalAlign=top;overflow=hidden;rotatable=0;points=[[0,0.5],[1,0.5]];portConstraint=eastwest;html=1;whiteSpace=wrap;#c3f7c8whiteSpace=wrap;fontSize=13.3;spacingLeft=8.4;spacingRight=8.4;spacingTop=2.4;fillColor=#000000;opacity=5;" parent="n6qV_Xt3kzfEs7hYFHmW-60" vertex="1">
          <mxGeometry y="299" width="169" height="25" as="geometry" />
        </mxCell>
        <mxCell id="n6qV_Xt3kzfEs7hYFHmW-77" value="nro_operation (Fk)" style="part=1;resizeHeight=0;strokeColor=none;align=left;verticalAlign=top;overflow=hidden;rotatable=0;points=[[0,0.5],[1,0.5]];portConstraint=eastwest;html=1;whiteSpace=wrap;#c3f7c8whiteSpace=wrap;fontSize=13.3;spacingLeft=8.4;spacingRight=8.4;spacingTop=2.4;fillColor=none;strokeOpacity=100;fillOpacity=100;" parent="n6qV_Xt3kzfEs7hYFHmW-60" vertex="1">
          <mxGeometry y="324" width="169" height="30" as="geometry" />
        </mxCell>
        <mxCell id="n6qV_Xt3kzfEs7hYFHmW-78" value="id_suppliers" style="part=1;resizeHeight=0;strokeColor=none;align=left;verticalAlign=top;overflow=hidden;rotatable=0;points=[[0,0.5],[1,0.5]];portConstraint=eastwest;html=1;whiteSpace=wrap;#c3f7c8whiteSpace=wrap;fontSize=13.3;spacingLeft=8.4;spacingRight=8.4;spacingTop=2.4;fillColor=#000000;opacity=5;" parent="n6qV_Xt3kzfEs7hYFHmW-60" vertex="1">
          <mxGeometry y="354" width="169" height="31" as="geometry" />
        </mxCell>
        <mxCell id="OQG7eI5d58GqjTKuTI5T-36" value="type_shipment" style="part=1;resizeHeight=0;strokeColor=none;align=left;verticalAlign=top;overflow=hidden;rotatable=0;points=[[0,0.5],[1,0.5]];portConstraint=eastwest;html=1;whiteSpace=wrap;#c3f7c8whiteSpace=wrap;fontSize=13.3;spacingLeft=8.4;spacingRight=8.4;spacingTop=2.4;fillColor=#000000;opacity=5;" parent="n6qV_Xt3kzfEs7hYFHmW-60" vertex="1">
          <mxGeometry y="385" width="169" height="26.25" as="geometry" />
        </mxCell>
        <mxCell id="OQG7eI5d58GqjTKuTI5T-37" value="payment_date" style="part=1;resizeHeight=0;strokeColor=none;align=left;verticalAlign=top;overflow=hidden;rotatable=0;points=[[0,0.5],[1,0.5]];portConstraint=eastwest;html=1;whiteSpace=wrap;#c3f7c8whiteSpace=wrap;fontSize=13.3;spacingLeft=8.4;spacingRight=8.4;spacingTop=2.4;fillColor=#000000;opacity=5;" parent="n6qV_Xt3kzfEs7hYFHmW-60" vertex="1">
          <mxGeometry y="411.25" width="169" height="26.25" as="geometry" />
        </mxCell>
        <mxCell id="MXTqZxVAq7oDFnsf_esE-1" style="edgeStyle=orthogonalEdgeStyle;rounded=0;orthogonalLoop=1;jettySize=auto;html=1;exitX=1;exitY=0.5;exitDx=0;exitDy=0;entryX=0.045;entryY=-0.266;entryDx=0;entryDy=0;endArrow=ERone;endFill=0;startArrow=ERone;startFill=0;entryPerimeter=0;" parent="1" source="n6qV_Xt3kzfEs7hYFHmW-37" target="n6qV_Xt3kzfEs7hYFHmW-190" edge="1">
          <mxGeometry relative="1" as="geometry">
            <mxPoint x="2062" y="1835.0000000000005" as="targetPoint" />
            <Array as="points">
              <mxPoint x="1180" y="1499" />
              <mxPoint x="1180" y="1715" />
              <mxPoint x="1937" y="1715" />
              <mxPoint x="1937" y="1835" />
              <mxPoint x="2070" y="1835" />
            </Array>
          </mxGeometry>
        </mxCell>
        <mxCell id="MXTqZxVAq7oDFnsf_esE-7" value="type_insurance" style="html=1;overflow=block;blockSpacing=1;swimlane;childLayout=stackLayout;horizontal=1;horizontalStack=0;resizeParent=1;resizeParentMax=0;resizeLast=0;collapsible=0;fontStyle=0;marginBottom=0;swimlaneFillColor=#c3f7c8;startSize=30;whiteSpace=wrap;fontSize=13.3;align=left;spacingLeft=8.4;spacingRight=8.4;spacingTop=2.4;spacing=3.6;strokeColor=#333333;strokeOpacity=100;fillOpacity=100;rounded=1;absoluteArcSize=1;arcSize=7.5;strokeWidth=0.8;fillColor=#a6d2aa;" parent="1" vertex="1">
          <mxGeometry x="2355" y="1955" width="169" height="82.5" as="geometry" />
        </mxCell>
        <mxCell id="MXTqZxVAq7oDFnsf_esE-8" value="Id" style="part=1;resizeHeight=0;strokeColor=none;verticalAlign=top;overflow=hidden;rotatable=0;points=[[0,0.5],[1,0.5]];portConstraint=eastwest;html=1;whiteSpace=wrap;#c3f7c8whiteSpace=wrap;fontSize=13.3;align=left;spacingLeft=8.4;spacingRight=8.4;spacingTop=2.4;fillColor=none;strokeOpacity=100;fillOpacity=100;" parent="MXTqZxVAq7oDFnsf_esE-7" vertex="1">
          <mxGeometry y="30" width="169" height="26.25" as="geometry" />
        </mxCell>
        <mxCell id="MXTqZxVAq7oDFnsf_esE-9" value="name" style="part=1;resizeHeight=0;strokeColor=none;verticalAlign=top;overflow=hidden;rotatable=0;points=[[0,0.5],[1,0.5]];portConstraint=eastwest;html=1;whiteSpace=wrap;#c3f7c8whiteSpace=wrap;fontSize=13.3;align=left;spacingLeft=8.4;spacingRight=8.4;spacingTop=2.4;fillColor=#000000;opacity=5;" parent="MXTqZxVAq7oDFnsf_esE-7" vertex="1">
          <mxGeometry y="56.25" width="169" height="26.25" as="geometry" />
        </mxCell>
        <mxCell id="MXTqZxVAq7oDFnsf_esE-13" value="total" style="part=1;resizeHeight=0;strokeColor=none;verticalAlign=top;overflow=hidden;rotatable=0;points=[[0,0.5],[1,0.5]];portConstraint=eastwest;html=1;whiteSpace=wrap;#c3f7c8whiteSpace=wrap;fontSize=13.3;align=left;spacingLeft=8.4;spacingRight=8.4;spacingTop=2.4;fillColor=#000000;opacity=5;" parent="MXTqZxVAq7oDFnsf_esE-7" vertex="1">
          <mxGeometry y="82.5" width="169" as="geometry" />
        </mxCell>
        <mxCell id="MXTqZxVAq7oDFnsf_esE-14" value="observations" style="part=1;resizeHeight=0;strokeColor=none;verticalAlign=top;overflow=hidden;rotatable=0;points=[[0,0.5],[1,0.5]];portConstraint=eastwest;html=1;whiteSpace=wrap;#c3f7c8whiteSpace=wrap;fontSize=13.3;align=left;spacingLeft=8.4;spacingRight=8.4;spacingTop=2.4;fillColor=none;strokeOpacity=100;fillOpacity=100;" parent="MXTqZxVAq7oDFnsf_esE-7" vertex="1">
          <mxGeometry y="82.5" width="169" as="geometry" />
        </mxCell>
        <mxCell id="MXTqZxVAq7oDFnsf_esE-15" value="month" style="part=1;resizeHeight=0;strokeColor=none;verticalAlign=top;overflow=hidden;rotatable=0;points=[[0,0.5],[1,0.5]];portConstraint=eastwest;html=1;whiteSpace=wrap;#c3f7c8whiteSpace=wrap;fontSize=13.3;align=left;spacingLeft=8.4;spacingRight=8.4;spacingTop=2.4;fillColor=#000000;opacity=5;" parent="MXTqZxVAq7oDFnsf_esE-7" vertex="1">
          <mxGeometry y="82.5" width="169" as="geometry" />
        </mxCell>
        <mxCell id="MXTqZxVAq7oDFnsf_esE-16" value="type_insurance" style="part=1;resizeHeight=0;strokeColor=none;verticalAlign=top;overflow=hidden;rotatable=0;points=[[0,0.5],[1,0.5]];portConstraint=eastwest;html=1;whiteSpace=wrap;#c3f7c8whiteSpace=wrap;fontSize=13.3;align=left;spacingLeft=8.4;spacingRight=8.4;spacingTop=2.4;fillColor=none;strokeOpacity=100;fillOpacity=100;" parent="MXTqZxVAq7oDFnsf_esE-7" vertex="1">
          <mxGeometry y="82.5" width="169" as="geometry" />
        </mxCell>
        <mxCell id="MXTqZxVAq7oDFnsf_esE-17" value="id_customers" style="part=1;resizeHeight=0;strokeColor=none;verticalAlign=top;overflow=hidden;rotatable=0;points=[[0,0.5],[1,0.5]];portConstraint=eastwest;html=1;whiteSpace=wrap;#c3f7c8whiteSpace=wrap;fontSize=13.3;align=left;spacingLeft=8.4;spacingRight=8.4;spacingTop=2.4;fillColor=#000000;opacity=5;" parent="MXTqZxVAq7oDFnsf_esE-7" vertex="1">
          <mxGeometry y="82.5" width="169" as="geometry" />
        </mxCell>
        <mxCell id="MXTqZxVAq7oDFnsf_esE-18" value="id_users" style="part=1;resizeHeight=0;strokeColor=none;verticalAlign=top;overflow=hidden;rotatable=0;points=[[0,0.5],[1,0.5]];portConstraint=eastwest;html=1;whiteSpace=wrap;#c3f7c8whiteSpace=wrap;fontSize=13.3;align=left;spacingLeft=8.4;spacingRight=8.4;spacingTop=2.4;fillColor=none;strokeOpacity=100;fillOpacity=100;" parent="MXTqZxVAq7oDFnsf_esE-7" vertex="1">
          <mxGeometry y="82.5" width="169" as="geometry" />
        </mxCell>
        <mxCell id="MXTqZxVAq7oDFnsf_esE-19" value="nro_orde" style="part=1;resizeHeight=0;strokeColor=none;verticalAlign=top;overflow=hidden;rotatable=0;points=[[0,0.5],[1,0.5]];portConstraint=eastwest;html=1;whiteSpace=wrap;#c3f7c8whiteSpace=wrap;fontSize=13.3;align=left;spacingLeft=8.4;spacingRight=8.4;spacingTop=2.4;fillColor=#000000;opacity=5;" parent="MXTqZxVAq7oDFnsf_esE-7" vertex="1">
          <mxGeometry y="82.5" width="169" as="geometry" />
        </mxCell>
        <mxCell id="MXTqZxVAq7oDFnsf_esE-22" style="edgeStyle=orthogonalEdgeStyle;rounded=0;orthogonalLoop=1;jettySize=auto;html=1;exitX=1;exitY=0.5;exitDx=0;exitDy=0;entryX=0.5;entryY=0;entryDx=0;entryDy=0;endArrow=ERone;endFill=0;startArrow=ERone;startFill=0;" parent="1" source="n6qV_Xt3kzfEs7hYFHmW-182" target="MXTqZxVAq7oDFnsf_esE-7" edge="1">
          <mxGeometry relative="1" as="geometry" />
        </mxCell>
        <mxCell id="psJmfJ4oodX5bsegLo42-3" value="quote_transport&lt;div&gt;&lt;br&gt;&lt;/div&gt;" style="html=1;overflow=block;blockSpacing=1;swimlane;childLayout=stackLayout;horizontal=1;horizontalStack=0;resizeParent=1;resizeParentMax=0;resizeLast=0;collapsible=0;fontStyle=0;marginBottom=0;swimlaneFillColor=#ffdda6;startSize=30;whiteSpace=wrap;fontSize=13.3;align=left;spacingLeft=8.4;spacingRight=8.4;spacingTop=2.4;spacing=3.6;strokeColor=#333333;strokeOpacity=100;fillOpacity=100;rounded=1;absoluteArcSize=1;arcSize=7.5;strokeWidth=0.8;fillColor=#d9bc8d;" parent="1" vertex="1">
          <mxGeometry x="1775" y="462" width="169" height="823.5" as="geometry" />
        </mxCell>
        <mxCell id="psJmfJ4oodX5bsegLo42-4" value="id" style="part=1;resizeHeight=0;strokeColor=none;align=left;verticalAlign=top;overflow=hidden;rotatable=0;points=[[0,0.5],[1,0.5]];portConstraint=eastwest;html=1;whiteSpace=wrap;#ffdda6whiteSpace=wrap;fontSize=13.3;spacingLeft=8.4;spacingRight=8.4;spacingTop=2.4;fillColor=none;strokeOpacity=100;fillOpacity=100;" parent="psJmfJ4oodX5bsegLo42-3" vertex="1">
          <mxGeometry y="30" width="169" height="26.25" as="geometry" />
        </mxCell>
        <mxCell id="psJmfJ4oodX5bsegLo42-5" value="shipping_date" style="part=1;resizeHeight=0;strokeColor=none;align=left;verticalAlign=top;overflow=hidden;rotatable=0;points=[[0,0.5],[1,0.5]];portConstraint=eastwest;html=1;whiteSpace=wrap;#ffdda6whiteSpace=wrap;fontSize=13.3;spacingLeft=8.4;spacingRight=8.4;spacingTop=2.4;fillColor=#000000;opacity=5;" parent="psJmfJ4oodX5bsegLo42-3" vertex="1">
          <mxGeometry y="56.25" width="169" height="26.25" as="geometry" />
        </mxCell>
        <mxCell id="psJmfJ4oodX5bsegLo42-6" value="response_date" style="part=1;resizeHeight=0;strokeColor=none;align=left;verticalAlign=top;overflow=hidden;rotatable=0;points=[[0,0.5],[1,0.5]];portConstraint=eastwest;html=1;whiteSpace=wrap;#ffdda6whiteSpace=wrap;fontSize=13.3;spacingLeft=8.4;spacingRight=8.4;spacingTop=2.4;fillColor=none;strokeOpacity=100;fillOpacity=100;" parent="psJmfJ4oodX5bsegLo42-3" vertex="1">
          <mxGeometry y="82.5" width="169" height="26.25" as="geometry" />
        </mxCell>
        <mxCell id="psJmfJ4oodX5bsegLo42-7" value="pick_up" style="part=1;resizeHeight=0;strokeColor=none;align=left;verticalAlign=top;overflow=hidden;rotatable=0;points=[[0,0.5],[1,0.5]];portConstraint=eastwest;html=1;whiteSpace=wrap;#ffdda6whiteSpace=wrap;fontSize=13.3;spacingLeft=8.4;spacingRight=8.4;spacingTop=2.4;fillColor=none;strokeOpacity=100;fillOpacity=100;" parent="psJmfJ4oodX5bsegLo42-3" vertex="1">
          <mxGeometry y="108.75" width="169" height="26.25" as="geometry" />
        </mxCell>
        <mxCell id="psJmfJ4oodX5bsegLo42-8" value="delivery" style="part=1;resizeHeight=0;strokeColor=none;align=left;verticalAlign=top;overflow=hidden;rotatable=0;points=[[0,0.5],[1,0.5]];portConstraint=eastwest;html=1;whiteSpace=wrap;#ffdda6whiteSpace=wrap;fontSize=13.3;spacingLeft=8.4;spacingRight=8.4;spacingTop=2.4;fillColor=none;strokeOpacity=100;fillOpacity=100;" parent="psJmfJ4oodX5bsegLo42-3" vertex="1">
          <mxGeometry y="135" width="169" height="26.25" as="geometry" />
        </mxCell>
        <mxCell id="psJmfJ4oodX5bsegLo42-9" value="container_return" style="part=1;resizeHeight=0;strokeColor=none;align=left;verticalAlign=top;overflow=hidden;rotatable=0;points=[[0,0.5],[1,0.5]];portConstraint=eastwest;html=1;whiteSpace=wrap;#ffdda6whiteSpace=wrap;fontSize=13.3;spacingLeft=8.4;spacingRight=8.4;spacingTop=2.4;fillColor=none;strokeOpacity=100;fillOpacity=100;" parent="psJmfJ4oodX5bsegLo42-3" vertex="1">
          <mxGeometry y="161.25" width="169" height="26.25" as="geometry" />
        </mxCell>
        <mxCell id="psJmfJ4oodX5bsegLo42-10" value="contact_phone" style="part=1;resizeHeight=0;strokeColor=none;align=left;verticalAlign=top;overflow=hidden;rotatable=0;points=[[0,0.5],[1,0.5]];portConstraint=eastwest;html=1;whiteSpace=wrap;#ffdda6whiteSpace=wrap;fontSize=13.3;spacingLeft=8.4;spacingRight=8.4;spacingTop=2.4;fillColor=none;strokeOpacity=100;fillOpacity=100;" parent="psJmfJ4oodX5bsegLo42-3" vertex="1">
          <mxGeometry y="187.5" width="169" height="26.5" as="geometry" />
        </mxCell>
        <mxCell id="psJmfJ4oodX5bsegLo42-11" value="contact_name" style="part=1;resizeHeight=0;strokeColor=none;align=left;verticalAlign=top;overflow=hidden;rotatable=0;points=[[0,0.5],[1,0.5]];portConstraint=eastwest;html=1;whiteSpace=wrap;#ffdda6whiteSpace=wrap;fontSize=13.3;spacingLeft=8.4;spacingRight=8.4;spacingTop=2.4;fillColor=none;strokeOpacity=100;fillOpacity=100;" parent="psJmfJ4oodX5bsegLo42-3" vertex="1">
          <mxGeometry y="214" width="169" height="26.5" as="geometry" />
        </mxCell>
        <mxCell id="psJmfJ4oodX5bsegLo42-12" value="max_attention_hour" style="part=1;resizeHeight=0;strokeColor=none;align=left;verticalAlign=top;overflow=hidden;rotatable=0;points=[[0,0.5],[1,0.5]];portConstraint=eastwest;html=1;whiteSpace=wrap;#ffdda6whiteSpace=wrap;fontSize=13.3;spacingLeft=8.4;spacingRight=8.4;spacingTop=2.4;fillColor=none;strokeOpacity=100;fillOpacity=100;" parent="psJmfJ4oodX5bsegLo42-3" vertex="1">
          <mxGeometry y="240.5" width="169" height="26.5" as="geometry" />
        </mxCell>
        <mxCell id="psJmfJ4oodX5bsegLo42-13" value="gang" style="part=1;resizeHeight=0;strokeColor=none;align=left;verticalAlign=top;overflow=hidden;rotatable=0;points=[[0,0.5],[1,0.5]];portConstraint=eastwest;html=1;whiteSpace=wrap;#ffdda6whiteSpace=wrap;fontSize=13.3;spacingLeft=8.4;spacingRight=8.4;spacingTop=2.4;fillColor=none;strokeOpacity=100;fillOpacity=100;" parent="psJmfJ4oodX5bsegLo42-3" vertex="1">
          <mxGeometry y="267" width="169" height="26.5" as="geometry" />
        </mxCell>
        <mxCell id="psJmfJ4oodX5bsegLo42-14" value="guard" style="part=1;resizeHeight=0;strokeColor=none;align=left;verticalAlign=top;overflow=hidden;rotatable=0;points=[[0,0.5],[1,0.5]];portConstraint=eastwest;html=1;whiteSpace=wrap;#ffdda6whiteSpace=wrap;fontSize=13.3;spacingLeft=8.4;spacingRight=8.4;spacingTop=2.4;fillColor=none;strokeOpacity=100;fillOpacity=100;" parent="psJmfJ4oodX5bsegLo42-3" vertex="1">
          <mxGeometry y="293.5" width="169" height="26.5" as="geometry" />
        </mxCell>
        <mxCell id="psJmfJ4oodX5bsegLo42-15" value="customer_detail" style="part=1;resizeHeight=0;strokeColor=none;align=left;verticalAlign=top;overflow=hidden;rotatable=0;points=[[0,0.5],[1,0.5]];portConstraint=eastwest;html=1;whiteSpace=wrap;#ffdda6whiteSpace=wrap;fontSize=13.3;spacingLeft=8.4;spacingRight=8.4;spacingTop=2.4;fillColor=none;strokeOpacity=100;fillOpacity=100;" parent="psJmfJ4oodX5bsegLo42-3" vertex="1">
          <mxGeometry y="320" width="169" height="26.5" as="geometry" />
        </mxCell>
        <mxCell id="psJmfJ4oodX5bsegLo42-16" value="commodity" style="part=1;resizeHeight=0;strokeColor=none;align=left;verticalAlign=top;overflow=hidden;rotatable=0;points=[[0,0.5],[1,0.5]];portConstraint=eastwest;html=1;whiteSpace=wrap;#ffdda6whiteSpace=wrap;fontSize=13.3;spacingLeft=8.4;spacingRight=8.4;spacingTop=2.4;fillColor=none;strokeOpacity=100;fillOpacity=100;" parent="psJmfJ4oodX5bsegLo42-3" vertex="1">
          <mxGeometry y="346.5" width="169" height="26.5" as="geometry" />
        </mxCell>
        <mxCell id="psJmfJ4oodX5bsegLo42-17" value="packaging_type" style="part=1;resizeHeight=0;strokeColor=none;align=left;verticalAlign=top;overflow=hidden;rotatable=0;points=[[0,0.5],[1,0.5]];portConstraint=eastwest;html=1;whiteSpace=wrap;#ffdda6whiteSpace=wrap;fontSize=13.3;spacingLeft=8.4;spacingRight=8.4;spacingTop=2.4;fillColor=none;strokeOpacity=100;fillOpacity=100;" parent="psJmfJ4oodX5bsegLo42-3" vertex="1">
          <mxGeometry y="373" width="169" height="26.5" as="geometry" />
        </mxCell>
        <mxCell id="psJmfJ4oodX5bsegLo42-18" value="load_type" style="part=1;resizeHeight=0;strokeColor=none;align=left;verticalAlign=top;overflow=hidden;rotatable=0;points=[[0,0.5],[1,0.5]];portConstraint=eastwest;html=1;whiteSpace=wrap;#ffdda6whiteSpace=wrap;fontSize=13.3;spacingLeft=8.4;spacingRight=8.4;spacingTop=2.4;fillColor=none;strokeOpacity=100;fillOpacity=100;" parent="psJmfJ4oodX5bsegLo42-3" vertex="1">
          <mxGeometry y="399.5" width="169" height="26.5" as="geometry" />
        </mxCell>
        <mxCell id="psJmfJ4oodX5bsegLo42-19" value="container_type" style="part=1;resizeHeight=0;strokeColor=none;align=left;verticalAlign=top;overflow=hidden;rotatable=0;points=[[0,0.5],[1,0.5]];portConstraint=eastwest;html=1;whiteSpace=wrap;#ffdda6whiteSpace=wrap;fontSize=13.3;spacingLeft=8.4;spacingRight=8.4;spacingTop=2.4;fillColor=none;strokeOpacity=100;fillOpacity=100;" parent="psJmfJ4oodX5bsegLo42-3" vertex="1">
          <mxGeometry y="426" width="169" height="26.5" as="geometry" />
        </mxCell>
        <mxCell id="psJmfJ4oodX5bsegLo42-20" value="tom_kilogram" style="part=1;resizeHeight=0;strokeColor=none;align=left;verticalAlign=top;overflow=hidden;rotatable=0;points=[[0,0.5],[1,0.5]];portConstraint=eastwest;html=1;whiteSpace=wrap;#ffdda6whiteSpace=wrap;fontSize=13.3;spacingLeft=8.4;spacingRight=8.4;spacingTop=2.4;fillColor=none;strokeOpacity=100;fillOpacity=100;" parent="psJmfJ4oodX5bsegLo42-3" vertex="1">
          <mxGeometry y="452.5" width="169" height="26.5" as="geometry" />
        </mxCell>
        <mxCell id="psJmfJ4oodX5bsegLo42-21" value="stackable" style="part=1;resizeHeight=0;strokeColor=none;align=left;verticalAlign=top;overflow=hidden;rotatable=0;points=[[0,0.5],[1,0.5]];portConstraint=eastwest;html=1;whiteSpace=wrap;#ffdda6whiteSpace=wrap;fontSize=13.3;spacingLeft=8.4;spacingRight=8.4;spacingTop=2.4;fillColor=none;strokeOpacity=100;fillOpacity=100;" parent="psJmfJ4oodX5bsegLo42-3" vertex="1">
          <mxGeometry y="479" width="169" height="26.5" as="geometry" />
        </mxCell>
        <mxCell id="psJmfJ4oodX5bsegLo42-22" value="cubage_kgv" style="part=1;resizeHeight=0;strokeColor=none;align=left;verticalAlign=top;overflow=hidden;rotatable=0;points=[[0,0.5],[1,0.5]];portConstraint=eastwest;html=1;whiteSpace=wrap;#ffdda6whiteSpace=wrap;fontSize=13.3;spacingLeft=8.4;spacingRight=8.4;spacingTop=2.4;fillColor=none;strokeOpacity=100;fillOpacity=100;" parent="psJmfJ4oodX5bsegLo42-3" vertex="1">
          <mxGeometry y="505.5" width="169" height="26.5" as="geometry" />
        </mxCell>
        <mxCell id="psJmfJ4oodX5bsegLo42-23" value="total_weight" style="part=1;resizeHeight=0;strokeColor=none;align=left;verticalAlign=top;overflow=hidden;rotatable=0;points=[[0,0.5],[1,0.5]];portConstraint=eastwest;html=1;whiteSpace=wrap;#ffdda6whiteSpace=wrap;fontSize=13.3;spacingLeft=8.4;spacingRight=8.4;spacingTop=2.4;fillColor=none;strokeOpacity=100;fillOpacity=100;" parent="psJmfJ4oodX5bsegLo42-3" vertex="1">
          <mxGeometry y="532" width="169" height="26.5" as="geometry" />
        </mxCell>
        <mxCell id="psJmfJ4oodX5bsegLo42-24" value="packages" style="part=1;resizeHeight=0;strokeColor=none;align=left;verticalAlign=top;overflow=hidden;rotatable=0;points=[[0,0.5],[1,0.5]];portConstraint=eastwest;html=1;whiteSpace=wrap;#ffdda6whiteSpace=wrap;fontSize=13.3;spacingLeft=8.4;spacingRight=8.4;spacingTop=2.4;fillColor=none;strokeOpacity=100;fillOpacity=100;" parent="psJmfJ4oodX5bsegLo42-3" vertex="1">
          <mxGeometry y="558.5" width="169" height="26.5" as="geometry" />
        </mxCell>
        <mxCell id="psJmfJ4oodX5bsegLo42-25" value="cargo_detail" style="part=1;resizeHeight=0;strokeColor=none;align=left;verticalAlign=top;overflow=hidden;rotatable=0;points=[[0,0.5],[1,0.5]];portConstraint=eastwest;html=1;whiteSpace=wrap;#ffdda6whiteSpace=wrap;fontSize=13.3;spacingLeft=8.4;spacingRight=8.4;spacingTop=2.4;fillColor=none;strokeOpacity=100;fillOpacity=100;" parent="psJmfJ4oodX5bsegLo42-3" vertex="1">
          <mxGeometry y="585" width="169" height="26.5" as="geometry" />
        </mxCell>
        <mxCell id="psJmfJ4oodX5bsegLo42-26" value="measures" style="part=1;resizeHeight=0;strokeColor=none;align=left;verticalAlign=top;overflow=hidden;rotatable=0;points=[[0,0.5],[1,0.5]];portConstraint=eastwest;html=1;whiteSpace=wrap;#ffdda6whiteSpace=wrap;fontSize=13.3;spacingLeft=8.4;spacingRight=8.4;spacingTop=2.4;fillColor=none;strokeOpacity=100;fillOpacity=100;" parent="psJmfJ4oodX5bsegLo42-3" vertex="1">
          <mxGeometry y="611.5" width="169" height="26.5" as="geometry" />
        </mxCell>
        <mxCell id="psJmfJ4oodX5bsegLo42-27" value="nro_operation" style="part=1;resizeHeight=0;strokeColor=none;align=left;verticalAlign=top;overflow=hidden;rotatable=0;points=[[0,0.5],[1,0.5]];portConstraint=eastwest;html=1;whiteSpace=wrap;#ffdda6whiteSpace=wrap;fontSize=13.3;spacingLeft=8.4;spacingRight=8.4;spacingTop=2.4;fillColor=none;strokeOpacity=100;fillOpacity=100;" parent="psJmfJ4oodX5bsegLo42-3" vertex="1">
          <mxGeometry y="638" width="169" height="26.5" as="geometry" />
        </mxCell>
        <mxCell id="psJmfJ4oodX5bsegLo42-28" value="lcl_fcl" style="part=1;resizeHeight=0;strokeColor=none;align=left;verticalAlign=top;overflow=hidden;rotatable=0;points=[[0,0.5],[1,0.5]];portConstraint=eastwest;html=1;whiteSpace=wrap;#ffdda6whiteSpace=wrap;fontSize=13.3;spacingLeft=8.4;spacingRight=8.4;spacingTop=2.4;fillColor=none;strokeOpacity=100;fillOpacity=100;" parent="psJmfJ4oodX5bsegLo42-3" vertex="1">
          <mxGeometry y="664.5" width="169" height="26.5" as="geometry" />
        </mxCell>
        <mxCell id="psJmfJ4oodX5bsegLo42-29" value="old_cost_transport" style="part=1;resizeHeight=0;strokeColor=none;align=left;verticalAlign=top;overflow=hidden;rotatable=0;points=[[0,0.5],[1,0.5]];portConstraint=eastwest;html=1;whiteSpace=wrap;#ffdda6whiteSpace=wrap;fontSize=13.3;spacingLeft=8.4;spacingRight=8.4;spacingTop=2.4;fillColor=none;strokeOpacity=100;fillOpacity=100;" parent="psJmfJ4oodX5bsegLo42-3" vertex="1">
          <mxGeometry y="691" width="169" height="26.5" as="geometry" />
        </mxCell>
        <mxCell id="psJmfJ4oodX5bsegLo42-30" value="cost_transport" style="part=1;resizeHeight=0;strokeColor=none;align=left;verticalAlign=top;overflow=hidden;rotatable=0;points=[[0,0.5],[1,0.5]];portConstraint=eastwest;html=1;whiteSpace=wrap;#ffdda6whiteSpace=wrap;fontSize=13.3;spacingLeft=8.4;spacingRight=8.4;spacingTop=2.4;fillColor=none;strokeOpacity=100;fillOpacity=100;" parent="psJmfJ4oodX5bsegLo42-3" vertex="1">
          <mxGeometry y="717.5" width="169" height="26.5" as="geometry" />
        </mxCell>
        <mxCell id="psJmfJ4oodX5bsegLo42-31" value="readjustment_reason" style="part=1;resizeHeight=0;strokeColor=none;align=left;verticalAlign=top;overflow=hidden;rotatable=0;points=[[0,0.5],[1,0.5]];portConstraint=eastwest;html=1;whiteSpace=wrap;#ffdda6whiteSpace=wrap;fontSize=13.3;spacingLeft=8.4;spacingRight=8.4;spacingTop=2.4;fillColor=none;strokeOpacity=100;fillOpacity=100;" parent="psJmfJ4oodX5bsegLo42-3" vertex="1">
          <mxGeometry y="744" width="169" height="26.5" as="geometry" />
        </mxCell>
        <mxCell id="psJmfJ4oodX5bsegLo42-32" value="observations" style="part=1;resizeHeight=0;strokeColor=none;align=left;verticalAlign=top;overflow=hidden;rotatable=0;points=[[0,0.5],[1,0.5]];portConstraint=eastwest;html=1;whiteSpace=wrap;#ffdda6whiteSpace=wrap;fontSize=13.3;spacingLeft=8.4;spacingRight=8.4;spacingTop=2.4;fillColor=none;strokeOpacity=100;fillOpacity=100;" parent="psJmfJ4oodX5bsegLo42-3" vertex="1">
          <mxGeometry y="770.5" width="169" height="26.5" as="geometry" />
        </mxCell>
        <mxCell id="psJmfJ4oodX5bsegLo42-33" value="state" style="part=1;resizeHeight=0;strokeColor=none;align=left;verticalAlign=top;overflow=hidden;rotatable=0;points=[[0,0.5],[1,0.5]];portConstraint=eastwest;html=1;whiteSpace=wrap;#ffdda6whiteSpace=wrap;fontSize=13.3;spacingLeft=8.4;spacingRight=8.4;spacingTop=2.4;fillColor=none;strokeOpacity=100;fillOpacity=100;" parent="psJmfJ4oodX5bsegLo42-3" vertex="1">
          <mxGeometry y="797" width="169" height="26.5" as="geometry" />
        </mxCell>
        <mxCell id="psJmfJ4oodX5bsegLo42-34" style="edgeStyle=orthogonalEdgeStyle;rounded=0;orthogonalLoop=1;jettySize=auto;html=1;entryX=-0.011;entryY=0.116;entryDx=0;entryDy=0;entryPerimeter=0;startArrow=baseDash;startFill=0;endArrow=ERmany;endFill=0;" parent="1" source="n6qV_Xt3kzfEs7hYFHmW-139" target="psJmfJ4oodX5bsegLo42-18" edge="1">
          <mxGeometry relative="1" as="geometry" />
        </mxCell>
        <mxCell id="psJmfJ4oodX5bsegLo42-35" style="edgeStyle=orthogonalEdgeStyle;rounded=0;orthogonalLoop=1;jettySize=auto;html=1;entryX=0;entryY=0.5;entryDx=0;entryDy=0;startArrow=ERone;startFill=0;endArrow=ERone;endFill=0;" parent="1" source="psJmfJ4oodX5bsegLo42-16" target="n6qV_Xt3kzfEs7hYFHmW-67" edge="1">
          <mxGeometry relative="1" as="geometry" />
        </mxCell>
        <mxCell id="7ZXzJWrsroa6qovK6BAl-1" value="freight_documents" style="html=1;overflow=block;blockSpacing=1;swimlane;childLayout=stackLayout;horizontal=1;horizontalStack=0;resizeParent=1;resizeParentMax=0;resizeLast=0;collapsible=0;fontStyle=0;marginBottom=0;swimlaneFillColor=#ffdda6;startSize=30;whiteSpace=wrap;fontSize=13.3;align=left;spacingLeft=8.4;spacingRight=8.4;spacingTop=2.4;spacing=3.6;strokeColor=#333333;strokeOpacity=100;fillOpacity=100;rounded=1;absoluteArcSize=1;arcSize=7.5;strokeWidth=0.8;fillColor=#d9bc8d;" vertex="1" parent="1">
          <mxGeometry x="1712" y="1756" width="169" height="135" as="geometry" />
        </mxCell>
        <mxCell id="7ZXzJWrsroa6qovK6BAl-2" value="id" style="part=1;resizeHeight=0;strokeColor=none;verticalAlign=top;overflow=hidden;rotatable=0;points=[[0,0.5],[1,0.5]];portConstraint=eastwest;html=1;whiteSpace=wrap;#ffdda6whiteSpace=wrap;fontSize=13.3;align=left;spacingLeft=8.4;spacingRight=8.4;spacingTop=2.4;fillColor=none;strokeOpacity=100;fillOpacity=100;" vertex="1" parent="7ZXzJWrsroa6qovK6BAl-1">
          <mxGeometry y="30" width="169" height="26.25" as="geometry" />
        </mxCell>
        <mxCell id="7ZXzJWrsroa6qovK6BAl-3" value="name" style="part=1;resizeHeight=0;strokeColor=none;verticalAlign=top;overflow=hidden;rotatable=0;points=[[0,0.5],[1,0.5]];portConstraint=eastwest;html=1;whiteSpace=wrap;#ffdda6whiteSpace=wrap;fontSize=13.3;align=left;spacingLeft=8.4;spacingRight=8.4;spacingTop=2.4;fillColor=#000000;opacity=5;" vertex="1" parent="7ZXzJWrsroa6qovK6BAl-1">
          <mxGeometry y="56.25" width="169" height="26.25" as="geometry" />
        </mxCell>
        <mxCell id="7ZXzJWrsroa6qovK6BAl-4" value="path" style="part=1;resizeHeight=0;strokeColor=none;verticalAlign=top;overflow=hidden;rotatable=0;points=[[0,0.5],[1,0.5]];portConstraint=eastwest;html=1;whiteSpace=wrap;#ffdda6whiteSpace=wrap;fontSize=13.3;align=left;spacingLeft=8.4;spacingRight=8.4;spacingTop=2.4;fillColor=none;strokeOpacity=100;fillOpacity=100;" vertex="1" parent="7ZXzJWrsroa6qovK6BAl-1">
          <mxGeometry y="82.5" width="169" height="26.25" as="geometry" />
        </mxCell>
        <mxCell id="7ZXzJWrsroa6qovK6BAl-12" value="id_freight" style="part=1;resizeHeight=0;strokeColor=none;verticalAlign=top;overflow=hidden;rotatable=0;points=[[0,0.5],[1,0.5]];portConstraint=eastwest;html=1;whiteSpace=wrap;#ffdda6whiteSpace=wrap;fontSize=13.3;align=left;spacingLeft=8.4;spacingRight=8.4;spacingTop=2.4;fillColor=none;strokeOpacity=100;fillOpacity=100;" vertex="1" parent="7ZXzJWrsroa6qovK6BAl-1">
          <mxGeometry y="108.75" width="169" height="26.25" as="geometry" />
        </mxCell>
      </root>
    </mxGraphModel>
  </diagram>
</mxfile>
